<svg xmlns="http://www.w3.org/2000/svg" xmlns:xlink="http://www.w3.org/1999/xlink" id="svg23309" viewBox="0 0 244.38 309.49" version="1.0"><defs id="defs3"><linearGradient id="linearGradient10002"><stop id="stop10004" stop-color="#d9bc78" offset="0"/><stop id="stop10006" stop-color="#8b7442" offset="1"/></linearGradient><linearGradient id="linearGradient23427" y2="69.085" gradientUnits="userSpaceOnUse" y1="44.198" x2="284.91" x1="225.96"><stop id="stop17208" stop-color="#ceb270" offset="0"/><stop id="stop17210" stop-color="#99814b" offset="1"/></linearGradient><linearGradient id="linearGradient23429" x1="192.22" xlink:href="#linearGradient10002" gradientUnits="userSpaceOnUse" y1="-5.931" gradientTransform="matrix(1.1549 0 0 1.5342 -3.035 115.04)" x2="195.1" y2="-5.931"/><linearGradient id="linearGradient23431" x1="192.22" xlink:href="#linearGradient10002" gradientUnits="userSpaceOnUse" y1="-5.931" gradientTransform="matrix(1.0066 0 0 1.5342 28.468 112.07)" x2="195.1" y2="-5.931"/><linearGradient id="linearGradient23433" x1="192.22" xlink:href="#linearGradient10002" gradientUnits="userSpaceOnUse" y1="-5.931" gradientTransform="matrix(1.3626 0 0 1.5342 -37.225 110.24)" x2="195.1" y2="-5.931"/><linearGradient id="linearGradient23435" x1="192.22" xlink:href="#linearGradient10002" gradientUnits="userSpaceOnUse" y1="-5.931" gradientTransform="matrix(1.0066 0 0 1.5342 34.626 109.07)" x2="195.1" y2="-5.931"/><linearGradient id="linearGradient23437" x1="192.22" xlink:href="#linearGradient10002" gradientUnits="userSpaceOnUse" y1="-5.931" gradientTransform="matrix(1.0909 0 0 1.5342 21.153 108.03)" x2="195.1" y2="-5.931"/><linearGradient id="linearGradient23439" x1="192.22" xlink:href="#linearGradient10002" gradientUnits="userSpaceOnUse" y1="-5.931" gradientTransform="matrix(1.0066 0 0 1.5342 40.271 107.77)" x2="195.1" y2="-5.931"/><linearGradient id="linearGradient23441" x1="192.22" xlink:href="#linearGradient10002" gradientUnits="userSpaceOnUse" y1="-5.931" gradientTransform="matrix(1.0807 0 0 1.5342 28.837 107.11)" x2="195.1" y2="-5.931"/><linearGradient id="linearGradient23443" x1="192.22" xlink:href="#linearGradient10002" gradientUnits="userSpaceOnUse" y1="-5.931" gradientTransform="matrix(1.0066 0 0 1.5342 46.087 106.59)" x2="195.1" y2="-5.931"/><linearGradient id="linearGradient23445" x1="192.22" xlink:href="#linearGradient10002" gradientUnits="userSpaceOnUse" y1="-5.931" gradientTransform="matrix(1.0768 0 0 1.5342 35.4 106.2)" x2="195.1" y2="-5.931"/><linearGradient id="linearGradient23447" x1="192.22" xlink:href="#linearGradient10002" gradientUnits="userSpaceOnUse" y1="-5.931" gradientTransform="matrix(1.105 0 0 1.5342 32.904 105.81)" x2="195.1" y2="-5.931"/><linearGradient id="linearGradient23449" x1="192.22" xlink:href="#linearGradient10002" gradientUnits="userSpaceOnUse" y1="-5.931" gradientTransform="matrix(1.0066 0 0 1.5342 54.726 105.68)" x2="195.1" y2="-5.931"/><linearGradient id="linearGradient23451" x1="192.22" xlink:href="#linearGradient10002" gradientUnits="userSpaceOnUse" y1="-5.931" gradientTransform="matrix(1.0628 0 0 1.5342 46.741 105.42)" x2="195.1" y2="-5.931"/><linearGradient id="linearGradient23453" x1="192.22" xlink:href="#linearGradient10002" gradientUnits="userSpaceOnUse" y1="-5.931" gradientTransform="matrix(1.0909 0 0 1.5342 44.158 105.29)" x2="195.1" y2="-5.931"/><linearGradient id="linearGradient23455" x1="192.22" xlink:href="#linearGradient10002" gradientUnits="userSpaceOnUse" y1="-5.931" gradientTransform="matrix(1.0909 0 0 1.5342 47.067 105.29)" x2="195.1" y2="-5.931"/><linearGradient id="linearGradient23457" x1="192.22" xlink:href="#linearGradient10002" gradientUnits="userSpaceOnUse" y1="-5.931" gradientTransform="matrix(1.0628 0 0 1.5342 55.379 105.03)" x2="195.1" y2="-5.931"/><linearGradient id="linearGradient23459" x1="192.22" xlink:href="#linearGradient10002" gradientUnits="userSpaceOnUse" y1="-5.931" gradientTransform="matrix(1.0066 0 0 1.5342 69.009 105.29)" x2="195.1" y2="-5.931"/><linearGradient id="linearGradient23461" x1="192.22" xlink:href="#linearGradient10002" gradientUnits="userSpaceOnUse" y1="-5.931" gradientTransform="matrix(1.0066 0 0 1.5342 71.917 105.42)" x2="195.1" y2="-5.931"/><linearGradient id="linearGradient23463" x1="192.22" xlink:href="#linearGradient10002" gradientUnits="userSpaceOnUse" y1="-5.931" gradientTransform="matrix(1.1549 0 0 1.5342 46.227 105.81)" x2="195.1" y2="-5.931"/><linearGradient id="linearGradient23465" x1="192.22" xlink:href="#linearGradient10002" gradientUnits="userSpaceOnUse" y1="-5.931" gradientTransform="matrix(1.0066 0 0 1.5342 77.733 106.07)" x2="195.1" y2="-5.931"/><linearGradient id="linearGradient23467" x1="192.22" xlink:href="#linearGradient10002" gradientUnits="userSpaceOnUse" y1="-5.931" gradientTransform="matrix(1.0768 0 0 1.5342 67.045 106.07)" x2="195.1" y2="-5.931"/><linearGradient id="linearGradient23469" x1="192.22" xlink:href="#linearGradient10002" gradientUnits="userSpaceOnUse" y1="-5.931" gradientTransform="matrix(1.105 0 0 1.5342 64.549 106.98)" x2="195.1" y2="-5.931"/><linearGradient id="linearGradient23471" x1="192.22" xlink:href="#linearGradient10002" gradientUnits="userSpaceOnUse" y1="-5.931" gradientTransform="matrix(1.0066 0 0 1.5342 86.372 107.38)" x2="195.1" y2="-5.931"/><linearGradient id="linearGradient23473" x1="192.22" xlink:href="#linearGradient10002" gradientUnits="userSpaceOnUse" y1="-5.931" gradientTransform="matrix(1.1539 0 0 1.5342 60.867 108.29)" x2="195.1" y2="-5.931"/><linearGradient id="linearGradient23475" x1="192.22" xlink:href="#linearGradient10002" gradientUnits="userSpaceOnUse" y1="-5.931" gradientTransform="matrix(1.1539 0 0 1.5342 63.69 109.46)" x2="195.1" y2="-5.931"/><linearGradient id="linearGradient23477" x1="192.22" xlink:href="#linearGradient10002" gradientUnits="userSpaceOnUse" y1="-5.931" gradientTransform="matrix(1.1244 0 0 1.5342 72.349 111.03)" x2="195.1" y2="-5.931"/><linearGradient id="linearGradient23479" x1="192.22" xlink:href="#linearGradient10002" gradientUnits="userSpaceOnUse" y1="-5.931" gradientTransform="matrix(1.0768 0 0 1.5342 84.494 113.24)" x2="195.1" y2="-5.931"/><linearGradient id="linearGradient23481" x1="192.22" xlink:href="#linearGradient10002" gradientUnits="userSpaceOnUse" y1="-5.931" gradientTransform="matrix(1.0066 0 0 1.5342 100.91 115.46)" x2="195.1" y2="-5.931"/><radialGradient id="radialGradient23425" gradientUnits="userSpaceOnUse" cy="69.085" cx="260.03" gradientTransform="matrix(1.5854 0 0 1.5056 -152.22 -34.927)" r="25.886"><stop id="stop21096" stop-color="#060000" offset="0"/><stop id="stop21098" offset="1"/></radialGradient><radialGradient id="radialGradient23483" gradientUnits="userSpaceOnUse" cy="271.48" cx="280.58" r="129.54"><stop id="stop22099" stop-color="#fff" offset="0"/><stop id="stop22101" stop-color="red" offset="1"/></radialGradient><filter id="filter21116"><feGaussianBlur id="feGaussianBlur21118" stdDeviation=".729"/></filter></defs><g id="layer1" transform="translate(-52.096 -106.19)"><g id="g23391" transform="translate(-182.86 77.143)"><path id="path18183" d="M282.41 69.085a22.386 22.386 0 11-44.77 0 22.386 22.386 0 1144.77 0z" transform="translate(100.1 -14.152)" filter="url(#filter21116)" stroke="url(#radialGradient23425)" stroke-width="7" fill="none"/><path id="path16235" d="M282.41 69.085a22.386 22.386 0 11-44.77 0 22.386 22.386 0 1144.77 0z" transform="translate(100.22 -14.267)" stroke="url(#linearGradient23427)" stroke-width="5" fill="none"/><g id="g23155" transform="translate(100.45 -14.726)" fill-rule="evenodd"><path id="path9023" fill="url(#linearGradient23429)" d="M222.28 87.5c-1.86.931-2.85 1.81-3.34 2.531v25.249c.21-.06.44-.1.65-.16.9-.28 1.79-.57 2.69-.84V87.5z"/><path id="path10010" fill="url(#linearGradient23431)" d="M224.84 86.375c-1.19.417-2.11.861-2.9 1.281v26.724c.96-.29 1.93-.55 2.9-.82V86.375z"/><path id="path10014" fill="url(#linearGradient23433)" d="M228.59 85.344c-1.52.363-2.83.733-3.93 1.125v27.151c1.3-.35 2.62-.68 3.93-1V85.344z"/><path id="path10018" fill="url(#linearGradient23435)" d="M231 84.844c-1.06.205-2.02.402-2.91.625v27.281c.97-.23 1.94-.48 2.91-.69V84.844z"/><path id="path10022" fill="url(#linearGradient23437)" d="M233.96 84.344c-1.13.162-2.17.321-3.15.5v27.276c1.05-.2 2.1-.4 3.15-.59V84.344z"/><path id="path10026" fill="url(#linearGradient23439)" d="M236.62 83.906c-1 .125-1.97.267-2.87.406v27.218c.96-.18 1.91-.37 2.87-.53V83.906z"/><path id="path10030" fill="url(#linearGradient23441)" d="M239.69 83.594c-1.08.105-2.15.254-3.13.375V111c1.04-.17 2.08-.32 3.13-.47V83.594z"/><path id="path10034" fill="url(#linearGradient23443)" d="M242.47 83.344c-1 .077-1.99.16-2.91.25v26.966c.97-.13 1.94-.26 2.91-.37V83.344z"/><path id="path10038" fill="url(#linearGradient23445)" d="M245.48 83.188c-1.07.059-2.11.115-3.1.187v26.815c1.02-.12 2.07-.22 3.1-.31V83.188z"/><path id="path10042" fill="url(#linearGradient23447)" d="M248.47 83.031c-1.1.044-2.16.101-3.19.157v26.692c1.06-.09 2.13-.16 3.19-.22V83.031z"/><path id="path10046" fill="url(#linearGradient23449)" d="M251.09 82.875c-1 .03-1.96.115-2.9.156v26.629c.96-.07 1.93-.15 2.9-.19V82.875z"/><path id="path10050" fill="url(#linearGradient23451)" d="M254.07 82.844c-1.04.017-2.09.003-3.07.031v26.595c1.02-.05 2.04-.04 3.07-.06V82.844z"/><path id="path10054" fill="url(#linearGradient23453)" d="M256.99 82.812c-1.12.008-2.09.014-3.15.032v26.566c1.03-.03 2.05-.07 3.09-.07h.06V82.812z"/><path id="path10058" fill="url(#linearGradient23455)" d="M256.75 82.812v26.528c1.05 0 2.11.04 3.15.07V82.812c-.99-.004-1.98-.006-3.01 0h-.14z"/><path id="path10062" fill="url(#linearGradient23457)" d="M259.66 82.812v26.598c1.02.02 2.05.04 3.06.09V82.844c-.99-.016-2.01-.027-3.06-.032z"/><path id="path10066" fill="url(#linearGradient23459)" d="M262.47 82.844V109.5c.97.05 1.94.09 2.91.16V82.875c-.95-.029-1.92-.015-2.91-.031z"/><path id="path10070" fill="url(#linearGradient23461)" d="M265.38 82.875v26.785c.97.07 1.93.15 2.9.25V83.031c-.94-.043-1.91-.125-2.9-.156z"/><path id="path10074" fill="url(#linearGradient23463)" d="M268.22 83.031v26.879c1.11.1 2.21.21 3.31.34V83.188c-1.06-.071-2.17-.104-3.31-.157z"/><path id="path10078" fill="url(#linearGradient23465)" d="M271.31 83.188c-.01 8.963-.06 21.062-.09 27.032.96.11 1.92.24 2.87.37V83.375c-.89-.076-1.82-.125-2.78-.187z"/><path id="path10082" fill="url(#linearGradient23467)" d="M274.03 83.375v27.215c1.04.14 2.08.28 3.11.44V83.656c-.99-.101-2.03-.195-3.11-.281z"/><path id="path10086" fill="url(#linearGradient23469)" d="M276.94 83.656v27.374c1.06.16 2.13.35 3.19.53V84.031c-1.01-.127-2.08-.264-3.19-.375z"/><path id="path10094" fill="url(#linearGradient23471)" d="M279.84 84.031v27.529c.97.19 1.95.39 2.91.6V84.469c-.92-.16-1.88-.295-2.91-.438z"/><path id="path10098" fill="url(#linearGradient23473)" d="M282.66 84.469v27.651c1.12.25 2.23.51 3.34.79V85.125a66.226 66.226 0 00-3.34-.656z"/><path id="path10102" fill="url(#linearGradient23475)" d="M285.47 85.031v27.749c1.12.27 2.23.57 3.34.88V85.844c-1.01-.297-2.09-.54-3.34-.813z"/><path id="path10106" fill="url(#linearGradient23477)" d="M288.47 85.75v27.81c1.09.3 2.17.59 3.25.91V86.844c-.93-.367-2.01-.744-3.25-1.094z"/><path id="path10110" fill="url(#linearGradient23479)" d="M291.47 86.75v27.66c1.04.29 2.08.59 3.11.9V88.094a24.35 24.35 0 00-3.11-1.344z"/><path id="path10114" fill="url(#linearGradient23481)" d="M294.38 88.094v27.216c.97.32 1.94.66 2.9 1V90.406c-.47-.623-1.34-1.427-2.9-2.312z"/></g><path id="path16021" d="M409.61 271.48a129.04 129.04 0 11-258.07 0 129.04 129.04 0 11258.07 0z" fill-rule="evenodd" transform="translate(92.481 -39.738) scale(.94328)" stroke="#000" fill="url(#radialGradient23483)"/><path id="path23294" stroke="#000" stroke-width="1" fill="none" d="M319.14 99.99V74.662s10.87-6.656 39.77-6.656c29.07 0 38.81 6.656 38.81 6.656v26.298s-22.16-5.958-41.81-6.201c-19.64-.244-36.77 5.231-36.77 5.231z"/></g></g></svg>