<svg version="1.0" xmlns="http://www.w3.org/2000/svg" width="1600" height="1434.667" viewBox="0 0 1200 1076"><path d="M541.5 2C406.6 16.7 286.9 77.6 197.6 177c-92 102.3-140.7 234.1-137.3 371.5 2.1 83 20 155.2 56.7 228.5 37.7 75.3 92.6 140.4 161 191.2 155.2 115.2 364.6 137.2 541 56.9 59.3-27 110.7-62.7 157.1-109.1 26.9-26.9 47.2-51.5 67.9-82.5 119.8-179.3 119.7-415.9-.4-595.5-32.4-48.6-75.6-94.4-122.6-130.2C853.6 56.5 769.3 19.9 689 7.1c-37.5-6-41.5-6.3-87.5-6.7-36.7-.2-45.5 0-60 1.6zm113.3 19.8c9 1.1 16.6 2.2 16.8 2.5.3.2 0 1.7-.6 3.2-2 5.3-7.8 36-10.6 56.2l-2.7 20.1-5.1.6c-19.1 2.5-48.7 10.1-71.3 18.4-32.5 11.9-75.8 34.6-105.1 54.9l-9.3 6.4-10.7-3.5c-33.1-10.9-82.9-18.7-130-20.3-10-.3-18.5-1-18.8-1.4-.7-1.3-.4-39.6.4-46.4.7-5.9.7-6 6.7-9.9 65.6-43.5 147.7-72.7 227.5-81 23.1-2.4 22.7-2.4 61-2.1 27.8.3 39 .8 51.8 2.3zM286 165c-1 .8-5.8 4.4-10.6 8-42.5 30.8-86.2 97.9-114.5 175.4-4.1 11.2-4.2 11.3-8.8 13.5-14.8 7.2-43.3 26.2-50 33.5-5.2 5.6-4.8 3.5 5.1-25.9 31.2-92.9 89.7-176 167.8-238.4l11.5-9.2.6 20.8c.6 19 .5 20.9-1.1 22.3zm396.4-34.9c59.4 26.3 115.1 57.2 143.1 79.4 9.7 7.7 22.9 20.9 26.6 26.7l3.1 4.9-.5 67.7c-.3 37.2-1 74.2-1.7 82.2-1.1 15.2-3.6 36.9-4.5 39.2-.7 1.6-4.4 3.6-47 25.2-68.1 34.4-110.4 52.7-137 59.3l-10 2.5-11-6.2c-40.3-22.9-96-56.6-121-73.3-27.9-18.7-52.9-38-56.9-44.1-4-6.2-1.2-59.4 8.1-154.9l3.7-37.9 9.4-6.6c48.5-33.8 109.4-60.2 159.4-69.2 17.1-3.1 17.9-3 36.2 5.1zm307.2 96.2c17 12.6 35.6 28.2 44.6 37.4 7.6 7.6 15.3 20.4 27.3 44.8 17.7 36.2 32.7 79 40.6 115.7 2 9.6 2.1 11.1 1 22.8-1.7 17.6-5.3 43-11.7 82.5l-5.5 34-4 3.7c-4.9 4.5-20.6 12.7-31.4 16.2-10.7 3.6-31.7 9.1-44 11.5-12.2 2.5-29.7 5.3-29.9 4.9-.2-.2-1.3-2.8-2.5-5.8-9-21.5-42.6-72.1-89.9-135.3l-17-22.7.9-4c4.1-18.3 6.1-60.2 6.3-130.2l.1-58.7 17.5-7c24.4-9.7 44.5-15.5 67-19.4 1.4-.2 5.7-.5 9.6-.6l7.2-.1 13.8 10.3zM163 391.1c13 30.4 45.1 71.2 82.7 105l8.3 7.4-2 11.5c-2.5 14.7-5.4 37.8-7.7 60.6-2.2 22.4-2.5 84.6-.5 102.4 1.6 14.6 4.6 32.4 7.1 42 1 4.1 1.8 7.5 1.7 7.6 0 0-4.9 2.6-10.7 5.6-22.7 11.9-44.4 26.1-58.2 38-6.2 5.3-8.2 6.6-9.5 5.9-4-2.3-24.5-18.8-33.2-26.8-18.7-17.3-27.6-28.8-32-41.6-28.6-82.8-36.6-169.3-23.4-252.6 3.2-20.6 18.5-39.9 46.8-59.3 8.6-5.9 24.4-15.6 25.7-15.7.3-.1 2.5 4.4 4.9 10zm295.9 23.8c24.8 22.3 86.1 62.3 162.5 106.1l19.9 11.5-.6 59.9c-.4 33-.7 82.5-.7 110v50.1l-20.2 12.7c-52.7 32.9-97.4 57.1-128 69.3-12.7 5-29 9.5-34.4 9.5-7 0-85.3-41.4-120.6-63.7-30.4-19.2-53.9-38.1-61.4-49.3-4.5-6.7-10.2-33.6-12.6-59-1.7-18.8-1.4-66.1.6-89.8 1.8-21.1 4.5-43.5 7.8-64l2.1-13.3 5.6-3.8c13.6-9.1 67.4-38.6 124.1-68.1 16.2-8.5 33.6-17.5 38.5-20.2 5-2.6 9.2-4.8 9.4-4.8.2 0 3.8 3.1 8 6.9zm631.7 195.7c1.7 14.7 2.7 29.7 3.1 45.4l.5 23.5-4 12.5c-22.9 72.4-62 139.5-113.8 195.4-10.8 11.5-14.1 14.5-19.9 17.5-33.1 17.3-69 27.5-90.1 25.6l-7.1-.6-.8-60-.7-59.9 11-11.7C914.7 749.1 948 696 970.6 635.9c3.2-8.5 5.8-15.5 5.9-15.6 0-.1 7.2-1.4 16-2.8 38-6.3 64.7-13.7 83.8-23.4 6.2-3.1 11.3-5.6 11.5-5.5.1.1 1.4 10 2.8 22zM653.7 772.9c25.4 15.7 90.2 30.4 172.3 39.4l11.5 1.2.7 4.5c.3 2.5.7 29.2.8 59.4.1 62.7 1.3 55.2-10.5 64.1-28.8 21.6-85.4 50.7-153.8 78.9-10.3 4.2-11.2 4.3-35.2 1.6-47.2-5.4-93.7-14.7-127.6-25.6-9.6-3.1-33.7-12-34.7-12.9-.5-.5-16.2-115.6-16.2-118.9 0-1.1.9-1.6 3.3-1.6 1.7 0 7.3-1.1 12.4-2.5 32.4-8.6 93.8-40.2 156.3-80.4 8.5-5.4 15.6-9.9 15.7-10 .2-.1 2.4 1.2 5 2.8zm-492.6 18.9c6.5 4.5 6.8 4.9 8.5 11.2 4 15 13.3 36 23.8 54 4.2 7.1 4.8 8.6 2.5 6-5.1-5.9-22.2-28.9-29.6-40-11.3-17-28.3-46-28.3-48.5 0-.2 3.7 2.5 8.2 6.1 4.5 3.6 11.2 8.7 14.9 11.2zM350.2 985c18.3 4.7 45.9 10.3 61.8 12.5 6.3.9 21.2 1.8 33 2.1l21.5.6 10.5 4.3c41.8 17.3 103.6 31.1 167.8 37.6l12.2 1.2v3.3c0 1.9-.1 3.4-.2 3.4-.2 0-4.1.5-8.8 1-4.7.6-18.8 1.4-31.3 2-71.5 3.1-143.2-9.2-211.7-36.3-24.2-9.6-75.9-35.7-70.6-35.7.3 0 7.4 1.8 15.8 4z"/></svg>