<svg xmlns="http://www.w3.org/2000/svg" xmlns:xlink="http://www.w3.org/1999/xlink" id="svg2" viewBox="0 0 744.094 800" version="1.1"><defs id="defs4"><filter id="filter4367" height="1.042" width="1.042" y="-.021" x="-.021" color-interpolation-filters="sRGB"><feGaussianBlur id="feGaussianBlur4369" stdDeviation="3.109"/></filter><filter id="filter4371" height="1.038" width="1.038" y="-.019" x="-.019" color-interpolation-filters="sRGB"><feGaussianBlur id="feGaussianBlur4373" stdDeviation="3.109"/></filter><filter id="filter4375" height="1.034" width="1.034" y="-.017" x="-.017" color-interpolation-filters="sRGB"><feGaussianBlur id="feGaussianBlur4377" stdDeviation="3.109"/></filter><filter id="filter4613" height="1.017" width="1.017" y="-.008" x="-.008" color-interpolation-filters="sRGB"><feGaussianBlur id="feGaussianBlur4615" stdDeviation="2.047"/></filter><filter id="filter4733" height="1.082" width="1.082" y="-.041" x="-.041" color-interpolation-filters="sRGB"><feGaussianBlur id="feGaussianBlur4735" stdDeviation="9.943"/></filter><filter id="filter4785" height="1.077" width="1.077" y="-.038" x="-.038" color-interpolation-filters="sRGB"><feGaussianBlur id="feGaussianBlur4787" stdDeviation="9.358"/></filter><filter id="filter5071" height="1.263" width="1.09" y="-.131" x="-.045" color-interpolation-filters="sRGB"><feGaussianBlur id="feGaussianBlur5073" stdDeviation="7.174"/></filter><filter id="filter5106" height="1.208" width="1.083" y="-.104" x="-.042" color-interpolation-filters="sRGB"><feGaussianBlur id="feGaussianBlur5108" stdDeviation="3.954"/></filter><filter id="filter4196" height="1.043" width="1.043" y="-.022" x="-.022" color-interpolation-filters="sRGB"><feGaussianBlur id="feGaussianBlur4198" stdDeviation="5.264"/></filter><filter id="filter4248" height="1.026" width="1.026" y="-.013" x="-.013" color-interpolation-filters="sRGB"><feGaussianBlur id="feGaussianBlur4250" stdDeviation="3.156"/></filter><filter id="filter17004" height="1.212" width="1.209" y="-.106" x="-.105" color-interpolation-filters="sRGB"><feGaussianBlur id="feGaussianBlur17006" stdDeviation="26.271"/></filter><filter id="filter17034" height="1.174" width="1.172" y="-.087" x="-.086" color-interpolation-filters="sRGB"><feGaussianBlur id="feGaussianBlur17036" stdDeviation="21.534"/></filter><linearGradient id="linearGradient5077"><stop id="stop5079" offset="0" stop-color="#fff"/><stop id="stop5081" offset="1" stop-color="#fff" stop-opacity="0"/></linearGradient><linearGradient id="linearGradient4763"><stop id="stop4765" offset="0" stop-color="#fff"/><stop id="stop4767" offset="1" stop-color="#ececec" stop-opacity="0"/></linearGradient><linearGradient id="linearGradient4658" y2="957.41" gradientUnits="userSpaceOnUse" x2="438.41" gradientTransform="translate(-25.763 51.549)" y1="349.3" x1="438.41"><stop id="stop4861" offset="0" stop-color="#bfbfbf"/><stop id="stop4863" offset="1" stop-color="#bfbfbf" stop-opacity="0"/></linearGradient><linearGradient id="linearGradient4660" y2="925.08" gradientUnits="userSpaceOnUse" x2="398" gradientTransform="translate(-25.763 51.549)" y1="232.12" x1="535.38"><stop id="stop4855" offset="0" stop-color="#ababab"/><stop id="stop4857" offset="1" stop-color="#ababab" stop-opacity="0"/></linearGradient><linearGradient id="linearGradient4664" y2="293.7" gradientUnits="userSpaceOnUse" x2="398.09" y1="893.69" x1="406.29"><stop id="stop4867" offset="0" stop-color="#000" stop-opacity=".02"/><stop id="stop4869" offset="1" stop-color="#fff"/></linearGradient><linearGradient id="linearGradient4666" y2="1260.9" gradientUnits="userSpaceOnUse" x2="208.9" y1="197.01" x1="450.57"><stop id="stop4885" offset="0" stop-color="#000" stop-opacity=".02"/><stop id="stop4887" offset="1" stop-color="#7c7c7c" stop-opacity=".428"/></linearGradient><linearGradient id="linearGradient4668" y2="173.59" gradientUnits="userSpaceOnUse" x2="412.36" y1="906.7" x1="319.14"><stop id="stop4843" offset="0" stop-color="#fff"/><stop id="stop4845" offset="1" stop-color="#ececec" stop-opacity="0"/></linearGradient><linearGradient id="linearGradient4670" y2="476.65" gradientUnits="userSpaceOnUse" x2="397.14" gradientTransform="translate(-25.763 64.406)" y1="306.65" x1="397.14"><stop id="stop4989" offset="0" stop-color="#000"/><stop id="stop4991" offset="1" stop-color="#000" stop-opacity="0"/></linearGradient><radialGradient id="radialGradient4662" fx="230.81" fy="648.62" gradientUnits="userSpaceOnUse" cy="679.05" cx="390.9" gradientTransform="matrix(2.1237 0 0 1.9408 -437.93 -646.02)" r="183.82"><stop id="stop4312" offset="0" stop-color="#fff"/><stop id="stop4314" offset="1" stop-color="#fdfdfd" stop-opacity="0"/></radialGradient><radialGradient id="radialGradient4672" xlink:href="#linearGradient5077" gradientUnits="userSpaceOnUse" cy="780.93" cx="288.57" gradientTransform="matrix(1.8904 0 0 1.2477 150.41 -525.92)" r="35.714"/><radialGradient id="radialGradient4674" xlink:href="#linearGradient5077" gradientUnits="userSpaceOnUse" cy="780.93" cx="288.57" gradientTransform="matrix(.94435 0 0 .62327 423.43 -38.289)" r="35.714"/><radialGradient id="radialGradient4676" fx="288.47" fy="735.94" xlink:href="#linearGradient4763" gradientUnits="userSpaceOnUse" cy="760.91" cx="289.75" gradientTransform="matrix(4.5624 .13308 -.37614 3.1414 -607.16 -2081.7)" r="35.714"/></defs><g id="layer1" transform="translate(0 -252.36)"><circle id="circle17008" cy="603.85" transform="matrix(.85259 .32053 -.33894 .90156 239.16 -2.095)" cx="387.9" r="298.92" opacity=".054" stroke-width="8" color-rendering="auto" color="#000" shape-rendering="auto" filter="url(#filter17004)" stroke="#000" image-rendering="auto" fill="none"/><circle id="circle4622" transform="matrix(.84004 .31373 -.33395 .88243 236.98 18.153)" cy="603.85" cx="387.9" r="298.92" color-rendering="auto" stroke-opacity=".994" color="#000" shape-rendering="auto" filter="url(#filter17034)" stroke="#000" image-rendering="auto" stroke-width="16.308" fill="none"/><circle id="circle4626" transform="rotate(20.603 350.868 664.503)" cy="643.28" cx="366.18" r="286.88" color-rendering="auto" color="#000" shape-rendering="auto" filter="url(#filter4248)" image-rendering="auto" fill="#fff"/><circle id="circle4628" cx="579.08" transform="rotate(20.604)" cy="477.81" r="292.44" stroke-width="3" color-rendering="auto" color="#000" shape-rendering="auto" stroke="#b3b3b3" image-rendering="auto" fill="#e7e7e7"/><circle id="circle4630" transform="rotate(20.603 350.868 664.503)" cy="643.79" cx="367.69" r="222.08" color-rendering="auto" color="#000" shape-rendering="auto" filter="url(#filter4375)" image-rendering="auto" fill="url(#linearGradient4658)"/><circle id="circle4632" cx="367.69" transform="rotate(20.603 350.868 664.503)" cy="643.79" r="196.36" color-rendering="auto" color="#000" shape-rendering="auto" filter="url(#filter4371)" image-rendering="auto" fill="url(#linearGradient4660)"/><circle id="circle4634" transform="rotate(20.603 150.883 499.347) scale(1.0272)" cy="552.81" cx="402.08" r="176.36" color-rendering="auto" color="#000" shape-rendering="auto" filter="url(#filter4367)" image-rendering="auto" fill="url(#radialGradient4662)"/><circle id="circle4636" transform="rotate(20.603 214.781 572.644) scale(.99455)" cy="592.24" cx="393.45" r="292.44" color-rendering="auto" color="#000" shape-rendering="auto" filter="url(#filter4613)" stroke="#e6e6e6" image-rendering="auto" stroke-width="1.879" fill="none"/><circle id="circle4638" cx="393.45" transform="rotate(-168.944 335.678 526.5) scale(.69668)" cy="592.24" r="292.44" color-rendering="auto" color="#000" shape-rendering="auto" filter="url(#filter4733)" stroke="url(#linearGradient4664)" image-rendering="auto" stroke-width="7.177" fill="none"/><circle id="circle4640" transform="matrix(.66265 .20728 -.20728 .66265 236.29 176.08)" cy="592.24" cx="393.45" r="292.44" color-rendering="auto" color="#000" shape-rendering="auto" filter="url(#filter4196)" stroke="url(#linearGradient4666)" image-rendering="auto" stroke-width="7.177" fill="none"/><circle id="circle4642" cx="393.45" transform="matrix(-.65524 -.38061 -.38061 .65524 857.48 411.78)" cy="592.24" r="292.44" opacity=".047" stroke-width="7.177" color-rendering="auto" color="#000" shape-rendering="auto" filter="url(#filter4785)" stroke="url(#linearGradient4668)" image-rendering="auto" fill="none"/><path id="path4644" d="M182.81 535.34c5.714 0 57.143-114.29 202.86-101.43 145.71 12.857 178.57 130 178.57 130s-66.161-115.3-187.14-114.29c-145.72 1.226-172.86 77.143-194.29 85.714z" transform="rotate(20.603 350.868 664.503)" opacity=".365" filter="url(#filter5071)" fill="url(#linearGradient4670)"/><ellipse id="ellipse4646" rx="67.516" transform="rotate(42.863)" ry="44.561" cy="448.44" cx="695.94" color-rendering="auto" color="#000" shape-rendering="auto" image-rendering="auto" fill="url(#radialGradient4672)"/><ellipse id="ellipse4648" rx="33.727" ry="22.26" transform="rotate(42.863)" cy="448.44" cx="695.94" color-rendering="auto" color="#000" shape-rendering="auto" image-rendering="auto" fill="url(#radialGradient4674)"/><path id="path4650" d="M564.47 358.29c0 8.455 9.072 47.228 3.363 55.04-16.639-22.241-81.078-43.101-154.06-43.699-68.716-.563-127.96 45.61-134.54 39.938-5.709-7.811-1.719-49.691-1.719-58.146 4.06-49.502 102.98-51.199 140.05-51.527 37.334 1.419 145.71 17.471 146.91 58.395z" transform="matrix(.288 -.95763 .93856 .34513 -302.33 862.54)" color-rendering="auto" color="#000" shape-rendering="auto" filter="url(#filter5106)" image-rendering="auto" fill="url(#radialGradient4676)"/><path id="path4652" d="M564.47 358.29c0 8.455 9.072 47.228 3.363 55.04-16.639-22.241-81.078-43.101-154.06-43.699-68.716-.563-127.96 45.61-134.54 39.938-5.709-7.811-1.719-49.691-1.719-58.146 4.06-49.502 102.98-51.199 140.05-51.527 37.334 1.419 145.71 17.471 146.91 58.395z" transform="matrix(.4142 -.91019 -.93347 -.35865 743.04 1255.5)" fill="url(#radialGradient4676)" color-rendering="auto" color="#000" shape-rendering="auto" filter="url(#filter5106)" image-rendering="auto"/><circle id="path25259" style="isolation:auto;mix-blend-mode:normal" cx="-545.47" transform="rotate(-163.33)" cy="-515.47" r="241.93" color-rendering="auto" color="#000" shape-rendering="auto" image-rendering="auto" fill="none"/></g></svg>