<svg width="124" height="36" fill="none" xmlns="http://www.w3.org/2000/svg"><path d="M6.024 12.296V35H.744V1.4h5.28l13.008 22.56V1.4h5.328V35h-5.328L6.024 12.296zm36.547 22.416c-.096.032-.464.176-1.104.432-.64.256-1.472.384-2.496.384-6.016 0-9.024-2.928-9.024-8.784V10.952h5.28v15.024c0 1.472.256 2.56.768 3.264.544.704 1.536 1.056 2.976 1.056s2.4-.384 2.88-1.152c.48-.8.72-1.92.72-3.36V10.952h5.28V35h-4.944l-.336-.288zm35.532-14.304c0-1.728-.24-2.976-.72-3.744-.447-.768-1.183-1.152-2.207-1.152-.737 0-1.728.224-2.977.672l-.816.336c.065.192.113.416.145.672.031.256.047.496.047.72V35h-5.28V20.552c0-1.6-.368-2.832-1.103-3.696-.736-.864-1.728-1.296-2.976-1.296-1.12 0-2.288.352-3.505 1.056V35h-5.28V10.952h4.657l.623.336c1.056-.48 2.257-.72 3.6-.72 1.089 0 2.145.192 3.169.576a6.702 6.702 0 012.688 1.728c.447-.256 1.12-.608 2.015-1.056 1.888-.864 3.712-1.296 5.472-1.296 2.272 0 4.129.704 5.569 2.112 1.44 1.376 2.16 3.296 2.16 5.76V35h-5.28V20.408zM91.89 6.584c-.768 0-1.44-.288-2.016-.864-.576-.576-.864-1.248-.864-2.016 0-.736.288-1.376.864-1.92.576-.576 1.248-.864 2.016-.864.736 0 1.376.288 1.92.864.576.544.864 1.184.864 1.92 0 .768-.288 1.44-.864 2.016-.544.576-1.184.864-1.92.864zm-2.784 4.368h5.28V35h-5.28V10.952zM112.21 28.28L108.035 35h-6.576l7.488-11.952-7.488-12.096h6.672l4.128 6.864 4.32-6.864h6.528L115.475 23l7.248 12h-6.288l-4.224-6.72z" fill="#C4C4C4"/><path d="M6.024 12.296V35H.744V1.4h5.28l13.008 22.56V1.4h5.328V35h-5.328L6.024 12.296zm36.547 22.416c-.096.032-.464.176-1.104.432-.64.256-1.472.384-2.496.384-6.016 0-9.024-2.928-9.024-8.784V10.952h5.28v15.024c0 1.472.256 2.56.768 3.264.544.704 1.536 1.056 2.976 1.056s2.4-.384 2.88-1.152c.48-.8.72-1.92.72-3.36V10.952h5.28V35h-4.944l-.336-.288zm35.532-14.304c0-1.728-.24-2.976-.72-3.744-.447-.768-1.183-1.152-2.207-1.152-.737 0-1.728.224-2.977.672l-.816.336c.065.192.113.416.145.672.031.256.047.496.047.72V35h-5.28V20.552c0-1.6-.368-2.832-1.103-3.696-.736-.864-1.728-1.296-2.976-1.296-1.12 0-2.288.352-3.505 1.056V35h-5.28V10.952h4.657l.623.336c1.056-.48 2.257-.72 3.6-.72 1.089 0 2.145.192 3.169.576a6.702 6.702 0 012.688 1.728c.447-.256 1.12-.608 2.015-1.056 1.888-.864 3.712-1.296 5.472-1.296 2.272 0 4.129.704 5.569 2.112 1.44 1.376 2.16 3.296 2.16 5.76V35h-5.28V20.408zM91.89 6.584c-.768 0-1.44-.288-2.016-.864-.576-.576-.864-1.248-.864-2.016 0-.736.288-1.376.864-1.92.576-.576 1.248-.864 2.016-.864.736 0 1.376.288 1.92.864.576.544.864 1.184.864 1.92 0 .768-.288 1.44-.864 2.016-.544.576-1.184.864-1.92.864zm-2.784 4.368h5.28V35h-5.28V10.952zM112.21 28.28L108.035 35h-6.576l7.488-11.952-7.488-12.096h6.672l4.128 6.864 4.32-6.864h6.528L115.475 23l7.248 12h-6.288l-4.224-6.72z" fill="url(#paint0_linear)"/><defs><linearGradient id="paint0_linear" x1="61" y1="-11" x2="61" y2="46" gradientUnits="userSpaceOnUse"><stop offset=".427" stop-color="#F99909"/><stop offset=".792" stop-color="#F4F904" stop-opacity=".93"/></linearGradient></defs></svg>