<svg xmlns="http://www.w3.org/2000/svg" xmlns:xlink="http://www.w3.org/1999/xlink" id="svg10567" viewBox="0 0 744.09 1052.4" version="1.1"><defs id="defs10569"><linearGradient id="linearGradient11518"><stop id="stop11520" offset="0" stop-color="#390"/><stop id="stop11522" offset="1" stop-color="#015a01"/></linearGradient><linearGradient id="linearGradient9570"><stop id="stop9572" offset="0" stop-color="#fff"/><stop id="stop9574" offset="1" stop-color="#cccccf"/></linearGradient><linearGradient id="linearGradient10898" y2="3532.4" xlink:href="#linearGradient9570" gradientUnits="userSpaceOnUse" x2="-914.29" gradientTransform="matrix(-1.1509 0 0 1.6716 -2026.1 -2617.3)" y1="3349.5" x1="-902.86"/><linearGradient id="linearGradient10902" y2="3532.4" xlink:href="#linearGradient9570" gradientUnits="userSpaceOnUse" x2="-914.29" gradientTransform="translate(-345.86 2437.1) scale(.39603)" y1="3349.5" x1="-902.86"/><linearGradient id="linearGradient10957" y2="3532.4" xlink:href="#linearGradient9570" gradientUnits="userSpaceOnUse" x2="-914.29" gradientTransform="translate(626.85 -1507.2) scale(.52206)" y1="3349.5" x1="-902.86"/><linearGradient id="linearGradient10961" y2="3532.4" xlink:href="#linearGradient9570" gradientUnits="userSpaceOnUse" x2="-914.29" gradientTransform="matrix(-.23881 0 0 .43551 -25.137 -991.79)" y1="3349.5" x1="-902.86"/><linearGradient id="linearGradient10964" y2="3532.4" xlink:href="#linearGradient9570" gradientUnits="userSpaceOnUse" x2="-914.29" gradientTransform="matrix(.44229 0 0 .38217 923.14 -939.75)" y1="3349.5" x1="-902.86"/><linearGradient id="linearGradient10967" y2="4200.9" gradientUnits="userSpaceOnUse" x2="-648.57" gradientTransform="translate(717.71 -1495.4) scale(.52206)" y1="2940.9" x1="-660"><stop id="stop9562" offset="0" stop-color="#8ec1fb"/><stop id="stop9564" offset="1" stop-color="#8ec1fb" stop-opacity="0"/></linearGradient><radialGradient id="radialGradient10978" xlink:href="#linearGradient11518" gradientUnits="userSpaceOnUse" cy="432.8" cx="-80.997" gradientTransform="matrix(.07895 .50694 -.43764 .06815 638.3 564.89)" r="198.36"/><radialGradient id="radialGradient11514" xlink:href="#linearGradient11518" gradientUnits="userSpaceOnUse" cy="338.71" cx="-537.4" gradientTransform="matrix(.27479 -1.4341 .66544 .12751 310.06 -437.22)" r="114.65"/><radialGradient id="radialGradient11524" xlink:href="#linearGradient11518" gradientUnits="userSpaceOnUse" cy="374.63" cx="-507.1" gradientTransform="matrix(.12218 -.55074 .52988 .11288 179.66 138.78)" r="140.5"/><radialGradient id="radialGradient11528" xlink:href="#linearGradient11518" gradientUnits="userSpaceOnUse" cy="374.63" cx="-507.1" gradientTransform="matrix(.12424 -.47622 .53885 .0976 277.36 181.08)" r="140.5"/><radialGradient id="radialGradient11532" xlink:href="#linearGradient11518" gradientUnits="userSpaceOnUse" cy="432.8" cx="-80.997" gradientTransform="matrix(.06544 .40875 -.36274 .05495 483.48 378.61)" r="198.36"/><radialGradient id="radialGradient11876" xlink:href="#linearGradient11518" gradientUnits="userSpaceOnUse" cy="374.63" cx="-507.1" gradientTransform="matrix(.10977 -.48367 .47608 .09914 250.02 262.51)" r="140.5"/><radialGradient id="radialGradient11878" xlink:href="#linearGradient11518" gradientUnits="userSpaceOnUse" cy="338.71" cx="-537.4" gradientTransform="matrix(-.90336 -1.0349 .36713 -.50695 -297.96 202.73)" r="114.65"/><filter id="filter10164" color-interpolation-filters="sRGB"><feGaussianBlur id="feGaussianBlur10166" stdDeviation="2.878"/></filter><filter id="filter10217" color-interpolation-filters="sRGB"><feGaussianBlur id="feGaussianBlur10219" stdDeviation=".421"/></filter></defs><g id="layer1"><path id="path8330" d="M-352.19 896.9c-40.187 9.668-41.503-14.962-99.73.029 45.322-30.842 51.113-15.468 76.668-23.202-23.27 3.107-34.685-8.275-49.556-30.994 31.734 28.447 33.817-6.91 50.362 22.611 1.955-22.823 18.021-39.524 29.845-60.403-10.816 21.699-22.053 42.606-22.434 57.407-3.364 12.473-.27 34.008 14.844 34.551z" fill-rule="evenodd" fill="#390"/><path id="path8198" d="M-314.2 871.55c-26.72-46.072 8.592-51.425-31.546-118.03 59.057 48.886 38.585 58.109 57.876 87.162-11.858-27.061 1.047-42.325 29.304-63.426-31.241 41.941 20.708 38.958-16.891 63.088 33.725-1.204 63.026 15.238 97.048 26.015-34.893-9.458-68.77-19.535-90.361-17.705-19.156-2.059-49.417 4.922-45.43 22.893z" fill-rule="evenodd" fill="#390"/><path id="path8234" d="M-247.64 721.15c-23.939-40.717 5.998-44.656-29.897-103.55 51.553 43.836 34.354 51.455 51.53 77.182-10.794-23.837-.195-36.878 23.33-54.693-25.531 35.922 18.637 34.391-12.767 54.654 28.693-.355 54.07 14.582 83.323 24.678-29.961-8.963-59.072-18.447-77.415-17.296-16.368-2.19-41.962 3.273-38.105 19.023z" fill-rule="evenodd" fill="#390"/><path id="path8283" d="M-71.66 786.45c-30.587-8.358-17.308-32.25-62.187-43.429 45.91-9.452 40.718 7.627 61.077 11.44-16.285-7.198-16.885-22.948-13.151-50.938 3.498 40.761 25.038 8.193 18.451 43.353 14.284-20.757 33.86-29.568 53.184-44.184-19.165 15.831-38.138 30.729-46.849 44.577-9.237 10.344-19.637 32.081-10.525 39.181z" fill-rule="evenodd" fill="#015a01"/><path id="path8983" d="M-484.88 824.3c28.47-37.078-2.803-54.683 39.715-107.76-57.849 28.715-40.305 45.075-60.457 67.612 13.269-23.106 3.117-42.921-20.296-73.919 24.099 52.986-22.376 32.006 9.154 69.283-30.242-12.883-58.195-6.493-89.853-7.432 32.316 2.568 63.777 4.16 83.037 13.473 17.441 4.56 44.012 22.053 38.7 38.743z" fill-rule="evenodd" fill="#390"/><path id="path8246" d="M-264.17 841.9c-15.383-51.171 13.738-53.658-9.717-127.77 41.027 57.06 23.332 64.979 34.997 97.468-5.95-29.711 6.459-44.705 31.994-64.497-30.701 41.581 11.49 43.1-21.962 65.256 27.293 1.762 48.686 21.802 74.628 36.271-26.82-13.151-52.737-26.868-70.351-26.874-15.14-3.904-40.412.76-39.59 20.142z" fill-rule="evenodd" fill="#015a01"/><path id="path8993" d="M-278.5 858.39c32.641-27.015 10.875-48.816 59.068-87.133-55.064 13.749-44.419 31.7-66.628 47.55 16.62-17.731 12.959-37.25.967-69.296 7.253 51.585-26.346 23.76-9.117 62.972-22.049-17.428-46.849-17.39-72.96-24.561 26.265 8.74 52.056 16.449 65.83 28.527 13.41 7.519 31.29 28.279 22.84 41.942z" fill-rule="evenodd" fill="#015a01"/><g id="g11880"><path id="path9651" d="M377.82 775.39c-8.568.067-17.219.386-25.94.946-65.883 4.233-126.97 22.19-178.2 49.743 45.814 103.73 115.56 169.98 193.67 169.98 80.153 0 151.49-69.75 197.21-178.19-52.326-27.396-116.77-43.033-186.73-42.483z" color="#000" fill="#390"/><path id="path9558" d="M619.26 534.41c0 254.96-111.86 461.65-249.84 461.65S119.58 789.37 119.58 534.41 231.44 72.76 369.42 72.76s249.84 206.69 249.84 461.65z" color="#000" fill="url(#linearGradient10967)"/><path id="path9578" d="M549.09 363.26c2.885-19.637 41.473-26.273 34.12 20.746l-69.503-2.184c-2.027-10.168-95.929 8.17-79.744-10.897 39.164-46.139 46.501 1.613 54.341-15.464 16.391-35.704 51.65-8.549 60.786 7.8z" fill="url(#linearGradient10964)"/><path id="path9601" d="M176.83 493.07c-1.558-22.377-22.393-29.939-18.422 23.642l37.527-2.489c1.095-11.587 51.795 9.311 43.057-12.418-21.146-52.579-25.108 1.838-29.341-17.623-8.85-40.687-27.888-9.742-32.821 8.888z" fill="url(#linearGradient10961)"/><path id="path9739" d="M-1052.7 3081.9c-7.506-85.889-161.39-136.82-142.25 68.832 133.42-18.021 467.83 44.69 449.91 1.06-101.91-201.81-129.08-29.31-149.48-104.01-42.652-156.17-134.4-37.391-158.17 34.113z" transform="matrix(.304 0 0 .36006 683.93 -931.37)" opacity=".883" filter="url(#filter10164)" fill="url(#linearGradient10898)"/><path id="path9568" d="M208.58 242.08c-11.16.095-21.335 9.705-23.248 30.671-3.12-6.46-6.915-11.973-11.126-16.526l-16.592 48.764 82.91-.914c5.29-39.14-14.534-62.143-31.943-61.995z" fill="url(#linearGradient10957)"/><path id="path9879" d="M435.13 908.4c-.462-5.345-4.156-8.635-6.784-12.603l9.263 8.52c1.228-3.072-.151-6.488-1.134-9.852l3.392 6.301c1.346-3.987 1.195-8.377.412-13.577 1.187 4.614 1.38 9.609 3.677 13.796 1.36-.966.477-6.832 1.286-10.334l2.45 12.03c1.425-4.645 2.565-10.02 2.981-17.247.44 6.294.657 13.261 2.392 15.631l4.868-8.578c-2.192 6.172-3.968 11.833-4.052 15.421-7.084-1.604-13.334-1.44-18.751.49z" fill="#149514"/><path id="path9881" d="M259.12 882.3c-.462-5.345-3.101-10.481-5.73-14.448l7.286 8.52c1.228-3.072.772-4.642-.211-8.006l3.392 6.301c1.346-3.987 1.986-5.08 1.203-10.281 1.187 4.614.59 6.312 2.886 10.5 1.36-.966.477-6.832 1.286-10.334l2.45 12.03c1.425-4.645 4.41-5.406 4.827-12.632.44 6.293-1.189 8.646.546 11.016l8.691-12.27c-1.13 3.18-2.636 9.183-4.354 12.828-.659 1.397-2.205 2.732-.867 1.978 19.551-11.017-2.63 3.276-2.654 4.306-7.084-1.603-13.334-1.44-18.75.491z" fill="#149514"/><path id="path9845" d="M268.45 791.4c-.625-3.256-4.133-4.843-6.69-6.98l8.807 4.146c1.009-2.054-.383-4.003-1.41-5.968l3.344 3.49c1.084-2.635.78-5.338-.134-8.465 1.261 2.715 1.627 5.787 3.888 8.1 1.211-.765.18-4.292.79-6.562l2.698 7.157c1.13-3.054 1.971-6.525 2.08-11.055.64 3.846 1.102 8.138 2.781 9.395l4.136-5.913c-1.776 4.093-3.189 7.82-3.13 10.054-6.55-.127-12.27.74-17.16 2.6z" fill="#390"/><path id="path9847" d="M253.16 794.56c-.625-3.256-4.133-4.843-6.69-6.98l8.807 4.146c1.009-2.054-.383-4.003-1.41-5.968l3.344 3.49c1.083-2.635.78-5.338-.134-8.465 1.26 2.715 1.627 5.787 3.888 8.1 1.21-.765.18-4.292.79-6.562l2.697 7.157c1.13-3.054 1.972-6.525 2.081-11.055.64 3.846 1.102 8.138 2.78 9.395l4.137-5.913c-1.776 4.093-3.189 7.82-3.13 10.054-6.55-.127-12.27.74-17.16 2.6z" fill="#390"/><path id="path9849" d="M238.98 800.37c-1.14-3.114-4.856-4.117-7.723-5.817l9.358 2.68c.666-2.19-1.02-3.89-2.35-5.664l3.862 2.909c.647-2.776-.087-5.394-1.49-8.334 1.68 2.477 2.534 5.45 5.137 7.372 1.073-.95-.51-4.267-.273-6.604l3.81 6.63c.627-3.195.9-6.756.282-11.244 1.248 3.694 2.392 7.856 4.251 8.827l3.134-6.5c-1.096 4.326-1.893 8.23-1.477 10.427-6.486.925-11.993 2.698-16.521 5.318z" fill="#390"/><path id="path9851" d="M226.32 804.59c-1.14-3.114-4.856-4.117-7.723-5.817l9.358 2.68c.666-2.19-1.02-3.89-2.35-5.664l3.862 2.909c.647-2.776-.087-5.394-1.49-8.334 1.68 2.477 2.534 5.45 5.137 7.372 1.073-.95-.51-4.267-.273-6.604l3.81 6.63c.627-3.195.9-6.756.282-11.244 1.248 3.694 2.392 7.856 4.251 8.827l3.134-6.5c-1.096 4.326-1.893 8.23-1.477 10.427-6.486.925-11.993 2.698-16.521 5.318z" fill="#390"/><path id="path9853" d="M211.82 809.86c-1.14-3.114-4.856-4.117-7.723-5.817l9.358 2.68c.666-2.19-1.02-3.89-2.35-5.664l3.862 2.909c.647-2.776-.087-5.394-1.49-8.334 1.68 2.477 2.534 5.45 5.137 7.372 1.073-.95-.51-4.267-.273-6.604l3.81 6.63c.627-3.195.9-6.756.282-11.244 1.248 3.694 2.392 7.856 4.251 8.827l3.134-6.5c-1.096 4.326-1.893 8.23-1.477 10.427-6.486.925-11.993 2.698-16.521 5.318z" fill="#390"/><path id="path9855" d="M198.9 814.61c-1.14-3.114-4.856-4.117-7.723-5.817l9.358 2.68c.666-2.19-1.02-3.89-2.35-5.664l3.862 2.909c.647-2.776-.087-5.394-1.49-8.334 1.68 2.477 2.534 5.45 5.137 7.372 1.073-.95-.51-4.267-.273-6.604l3.81 6.63c.627-3.195.9-6.756.282-11.244 1.248 3.694 2.392 7.856 4.251 8.827l3.134-6.5c-1.096 4.326-1.893 8.23-1.477 10.427-6.486.925-11.993 2.698-16.521 5.318z" fill="#390"/><path id="path9857" d="M198.9 814.61c-1.14-3.114-4.856-4.117-7.723-5.817l9.358 2.68c.666-2.19-1.02-3.89-2.35-5.664l3.862 2.909c.647-2.776-.087-5.394-1.49-8.334 1.68 2.477 2.534 5.45 5.137 7.372 1.073-.95-.51-4.267-.273-6.604l3.81 6.63c.627-3.195.9-6.756.282-11.244 1.248 3.694 2.392 7.856 4.251 8.827l3.134-6.5c-1.096 4.326-1.893 8.23-1.477 10.427-6.486.925-11.993 2.698-16.521 5.318z" fill="#390"/><g id="g9894" transform="rotate(8.377 9638.303 8231.514) scale(.52206)" fill="#390"><path id="path9896" d="M-1229 4236.9c-1.197-6.237-7.917-9.277-12.815-13.371l16.87 7.942c1.933-3.935-.734-7.667-2.702-11.43l6.408 6.685c2.074-5.05 1.492-10.226-.257-16.215 2.415 5.2 3.116 11.084 7.447 15.517 2.32-1.466.344-8.224 1.512-12.571l5.168 13.708c2.165-5.85 3.777-12.498 3.985-21.175 1.227 7.368 2.111 15.589 5.327 17.996l7.922-11.326c-3.4 7.841-6.108 14.979-5.996 19.259-12.547-.242-23.504 1.418-32.869 4.98z"/><path id="path9898" d="M-1258.3 4242.9c-1.197-6.237-7.917-9.277-12.815-13.371l16.87 7.942c1.933-3.935-.734-7.667-2.702-11.43l6.408 6.685c2.074-5.05 1.492-10.226-.257-16.215 2.415 5.2 3.116 11.084 7.447 15.517 2.32-1.466.344-8.224 1.512-12.571l5.168 13.708c2.165-5.85 3.777-12.498 3.985-21.175 1.227 7.368 2.111 15.589 5.327 17.996l7.922-11.326c-3.4 7.841-6.108 14.979-5.996 19.259-12.547-.242-23.504 1.418-32.869 4.98z"/><path id="path9900" d="M-1285.5 4254.1c-2.182-5.965-9.302-7.887-14.794-11.143l17.926 5.134c1.277-4.194-1.954-7.45-4.5-10.85l7.397 5.572c1.238-5.317-.167-10.333-2.854-15.964 3.217 4.745 4.853 10.44 9.84 14.122 2.053-1.82-.98-8.172-.525-12.65l7.3 12.702c1.2-6.12 1.724-12.942.538-21.54 2.392 7.077 4.583 15.049 8.144 16.909l6.003-12.45c-2.1 8.285-3.626 15.765-2.83 19.971-12.424 1.773-22.972 5.169-31.645 10.187z"/><path id="path9902" d="M-1309.7 4262.1c-2.182-5.965-9.302-7.887-14.794-11.143l17.926 5.134c1.277-4.194-1.954-7.45-4.5-10.85l7.397 5.572c1.238-5.317-.167-10.333-2.854-15.964 3.217 4.745 4.853 10.44 9.84 14.122 2.053-1.82-.98-8.172-.525-12.65l7.3 12.702c1.2-6.12 1.724-12.942.538-21.54 2.392 7.077 4.583 15.049 8.144 16.909l6.003-12.45c-2.1 8.285-3.626 15.765-2.83 19.971-12.424 1.773-22.972 5.169-31.645 10.187z"/><path id="path9904" d="M-1337.5 4272.2c-2.182-5.965-9.302-7.887-14.794-11.143l17.926 5.134c1.277-4.194-1.954-7.45-4.5-10.85l7.397 5.572c1.238-5.317-.167-10.333-2.854-15.964 3.217 4.745 4.853 10.44 9.84 14.122 2.053-1.82-.98-8.172-.525-12.65l7.3 12.702c1.2-6.12 1.724-12.942.538-21.54 2.392 7.077 4.583 15.049 8.144 16.909l6.003-12.45c-2.1 8.285-3.626 15.765-2.83 19.971-12.424 1.773-22.972 5.169-31.645 10.187z"/><path id="path9906" d="M-1362.3 4281.3c-2.182-5.965-9.302-7.887-14.794-11.143l17.926 5.134c1.277-4.194-1.954-7.45-4.5-10.85l7.397 5.572c1.238-5.317-.167-10.333-2.854-15.964 3.217 4.745 4.853 10.44 9.84 14.122 2.053-1.82-.98-8.172-.525-12.65l7.3 12.702c1.2-6.12 1.724-12.942.538-21.54 2.392 7.077 4.583 15.049 8.144 16.909l6.003-12.45c-2.1 8.285-3.626 15.765-2.83 19.971-12.424 1.773-22.972 5.169-31.645 10.187z"/><path id="path9908" d="M-1362.3 4281.3c-2.182-5.965-9.302-7.887-14.794-11.143l17.926 5.134c1.277-4.194-1.954-7.45-4.5-10.85l7.397 5.572c1.238-5.317-.167-10.333-2.854-15.964 3.217 4.745 4.853 10.44 9.84 14.122 2.053-1.82-.98-8.172-.525-12.65l7.3 12.702c1.2-6.12 1.724-12.942.538-21.54 2.392 7.077 4.583 15.049 8.144 16.909l6.003-12.45c-2.1 8.285-3.626 15.765-2.83 19.971-12.424 1.773-22.972 5.169-31.645 10.187z"/></g><g id="g9928" transform="rotate(22.264 3530.614 4249.778) scale(.52206)" fill="#390"><g id="g9930"><path id="path9932" d="M-1229 4236.9c-1.197-6.237-7.917-9.277-12.815-13.371l16.87 7.942c1.933-3.935-.734-7.667-2.702-11.43l6.408 6.685c2.074-5.05 1.492-10.226-.257-16.215 2.415 5.2 3.116 11.084 7.447 15.517 2.32-1.466.344-8.224 1.512-12.571l5.168 13.708c2.165-5.85 3.777-12.498 3.985-21.175 1.227 7.368 2.111 15.589 5.327 17.996l7.922-11.326c-3.4 7.841-6.108 14.979-5.996 19.259-12.547-.242-23.504 1.418-32.869 4.98z"/><path id="path9934" d="M-1258.3 4242.9c-1.197-6.237-7.917-9.277-12.815-13.371l16.87 7.942c1.933-3.935-.734-7.667-2.702-11.43l6.408 6.685c2.074-5.05 1.492-10.226-.257-16.215 2.415 5.2 3.116 11.084 7.447 15.517 2.32-1.466.344-8.224 1.512-12.571l5.168 13.708c2.165-5.85 3.777-12.498 3.985-21.175 1.227 7.368 2.111 15.589 5.327 17.996l7.922-11.326c-3.4 7.841-6.108 14.979-5.996 19.259-12.547-.242-23.504 1.418-32.869 4.98z"/><path id="path9936" d="M-1285.5 4254.1c-2.182-5.965-9.302-7.887-14.794-11.143l17.926 5.134c1.277-4.194-1.954-7.45-4.5-10.85l7.397 5.572c1.238-5.317-.167-10.333-2.854-15.964 3.217 4.745 4.853 10.44 9.84 14.122 2.053-1.82-.98-8.172-.525-12.65l7.3 12.702c1.2-6.12 1.724-12.942.538-21.54 2.392 7.077 4.583 15.049 8.144 16.909l6.003-12.45c-2.1 8.285-3.626 15.765-2.83 19.971-12.424 1.773-22.972 5.169-31.645 10.187z"/><path id="path9938" d="M-1309.7 4262.1c-2.182-5.965-9.302-7.887-14.794-11.143l17.926 5.134c1.277-4.194-1.954-7.45-4.5-10.85l7.397 5.572c1.238-5.317-.167-10.333-2.854-15.964 3.217 4.745 4.853 10.44 9.84 14.122 2.053-1.82-.98-8.172-.525-12.65l7.3 12.702c1.2-6.12 1.724-12.942.538-21.54 2.392 7.077 4.583 15.049 8.144 16.909l6.003-12.45c-2.1 8.285-3.626 15.765-2.83 19.971-12.424 1.773-22.972 5.169-31.645 10.187z"/><path id="path9940" d="M-1337.5 4272.2c-2.182-5.965-9.302-7.887-14.794-11.143l17.926 5.134c1.277-4.194-1.954-7.45-4.5-10.85l7.397 5.572c1.238-5.317-.167-10.333-2.854-15.964 3.217 4.745 4.853 10.44 9.84 14.122 2.053-1.82-.98-8.172-.525-12.65l7.3 12.702c1.2-6.12 1.724-12.942.538-21.54 2.392 7.077 4.583 15.049 8.144 16.909l6.003-12.45c-2.1 8.285-3.626 15.765-2.83 19.971-12.424 1.773-22.972 5.169-31.645 10.187z"/><path id="path9942" d="M-1362.3 4281.3c-2.182-5.965-9.302-7.887-14.794-11.143l17.926 5.134c1.277-4.194-1.954-7.45-4.5-10.85l7.397 5.572c1.238-5.317-.167-10.333-2.854-15.964 3.217 4.745 4.853 10.44 9.84 14.122 2.053-1.82-.98-8.172-.525-12.65l7.3 12.702c1.2-6.12 1.724-12.942.538-21.54 2.392 7.077 4.583 15.049 8.144 16.909l6.003-12.45c-2.1 8.285-3.626 15.765-2.83 19.971-12.424 1.773-22.972 5.169-31.645 10.187z"/><path id="path9944" d="M-1362.3 4281.3c-2.182-5.965-9.302-7.887-14.794-11.143l17.926 5.134c1.277-4.194-1.954-7.45-4.5-10.85l7.397 5.572c1.238-5.317-.167-10.333-2.854-15.964 3.217 4.745 4.853 10.44 9.84 14.122 2.053-1.82-.98-8.172-.525-12.65l7.3 12.702c1.2-6.12 1.724-12.942.538-21.54 2.392 7.077 4.583 15.049 8.144 16.909l6.003-12.45c-2.1 8.285-3.626 15.765-2.83 19.971-12.424 1.773-22.972 5.169-31.645 10.187z"/></g><g id="g9946" transform="rotate(8.377 -986.052 5226.997)"><path id="path9948" d="M-1229 4236.9c-1.197-6.237-7.917-9.277-12.815-13.371l16.87 7.942c1.933-3.935-.734-7.667-2.702-11.43l6.408 6.685c2.074-5.05 1.492-10.226-.257-16.215 2.415 5.2 3.116 11.084 7.447 15.517 2.32-1.466.344-8.224 1.512-12.571l5.168 13.708c2.165-5.85 3.777-12.498 3.985-21.175 1.227 7.368 2.111 15.589 5.327 17.996l7.922-11.326c-3.4 7.841-6.108 14.979-5.996 19.259-12.547-.242-23.504 1.418-32.869 4.98z"/><path id="path9950" d="M-1258.3 4242.9c-1.197-6.237-7.917-9.277-12.815-13.371l16.87 7.942c1.933-3.935-.734-7.667-2.702-11.43l6.408 6.685c2.074-5.05 1.492-10.226-.257-16.215 2.415 5.2 3.116 11.084 7.447 15.517 2.32-1.466.344-8.224 1.512-12.571l5.168 13.708c2.165-5.85 3.777-12.498 3.985-21.175 1.227 7.368 2.111 15.589 5.327 17.996l7.922-11.326c-3.4 7.841-6.108 14.979-5.996 19.259-12.547-.242-23.504 1.418-32.869 4.98z"/><path id="path9952" d="M-1285.5 4254.1c-2.182-5.965-9.302-7.887-14.794-11.143l17.926 5.134c1.277-4.194-1.954-7.45-4.5-10.85l7.397 5.572c1.238-5.317-.167-10.333-2.854-15.964 3.217 4.745 4.853 10.44 9.84 14.122 2.053-1.82-.98-8.172-.525-12.65l7.3 12.702c1.2-6.12 1.724-12.942.538-21.54 2.392 7.077 4.583 15.049 8.144 16.909l6.003-12.45c-2.1 8.285-3.626 15.765-2.83 19.971-12.424 1.773-22.972 5.169-31.645 10.187z"/><path id="path9954" d="M-1309.7 4262.1c-2.182-5.965-9.302-7.887-14.794-11.143l17.926 5.134c1.277-4.194-1.954-7.45-4.5-10.85l7.397 5.572c1.238-5.317-.167-10.333-2.854-15.964 3.217 4.745 4.853 10.44 9.84 14.122 2.053-1.82-.98-8.172-.525-12.65l7.3 12.702c1.2-6.12 1.724-12.942.538-21.54 2.392 7.077 4.583 15.049 8.144 16.909l6.003-12.45c-2.1 8.285-3.626 15.765-2.83 19.971-12.424 1.773-22.972 5.169-31.645 10.187z"/><path id="path9956" d="M-1337.5 4272.2c-2.182-5.965-9.302-7.887-14.794-11.143l17.926 5.134c1.277-4.194-1.954-7.45-4.5-10.85l7.397 5.572c1.238-5.317-.167-10.333-2.854-15.964 3.217 4.745 4.853 10.44 9.84 14.122 2.053-1.82-.98-8.172-.525-12.65l7.3 12.702c1.2-6.12 1.724-12.942.538-21.54 2.392 7.077 4.583 15.049 8.144 16.909l6.003-12.45c-2.1 8.285-3.626 15.765-2.83 19.971-12.424 1.773-22.972 5.169-31.645 10.187z"/><path id="path9958" d="M-1362.3 4281.3c-2.182-5.965-9.302-7.887-14.794-11.143l17.926 5.134c1.277-4.194-1.954-7.45-4.5-10.85l7.397 5.572c1.238-5.317-.167-10.333-2.854-15.964 3.217 4.745 4.853 10.44 9.84 14.122 2.053-1.82-.98-8.172-.525-12.65l7.3 12.702c1.2-6.12 1.724-12.942.538-21.54 2.392 7.077 4.583 15.049 8.144 16.909l6.003-12.45c-2.1 8.285-3.626 15.765-2.83 19.971-12.424 1.773-22.972 5.169-31.645 10.187z"/><path id="path9960" d="M-1362.3 4281.3c-2.182-5.965-9.302-7.887-14.794-11.143l17.926 5.134c1.277-4.194-1.954-7.45-4.5-10.85l7.397 5.572c1.238-5.317-.167-10.333-2.854-15.964 3.217 4.745 4.853 10.44 9.84 14.122 2.053-1.82-.98-8.172-.525-12.65l7.3 12.702c1.2-6.12 1.724-12.942.538-21.54 2.392 7.077 4.583 15.049 8.144 16.909l6.003-12.45c-2.1 8.285-3.626 15.765-2.83 19.971-12.424 1.773-22.972 5.169-31.645 10.187z"/></g></g><path id="path9985" d="M184.73 821.69c-1.14-3.114-4.856-4.117-7.723-5.817l9.358 2.68c.666-2.19-1.02-3.89-2.35-5.664l3.862 2.909c.647-2.776-.087-5.394-1.49-8.334 1.68 2.477 2.534 5.45 5.137 7.372 1.073-.95-.51-4.267-.273-6.604l3.81 6.63c.627-3.195.9-6.756.282-11.244 1.248 3.694 2.392 7.856 4.251 8.827l3.134-6.5c-1.096 4.326-1.893 8.23-1.477 10.427-6.486.925-11.993 2.698-16.521 5.318z" fill="#390"/><path id="path9987" d="M184.73 821.69c-1.14-3.114-4.856-4.117-7.723-5.817l9.358 2.68c.666-2.19-1.02-3.89-2.35-5.664l3.862 2.909c.647-2.776-.087-5.394-1.49-8.334 1.68 2.477 2.534 5.45 5.137 7.372 1.073-.95-.51-4.267-.273-6.604l3.81 6.63c.627-3.195.9-6.756.282-11.244 1.248 3.694 2.392 7.856 4.251 8.827l3.134-6.5c-1.096 4.326-1.893 8.23-1.477 10.427-6.486.925-11.993 2.698-16.521 5.318z" fill="#390"/><path id="path9989" d="M174.29 826.54c-1.14-3.114-4.856-4.117-7.723-5.817l9.358 2.68c.666-2.19-1.02-3.89-2.35-5.664l3.862 2.909c.647-2.776-.087-5.394-1.49-8.334 1.68 2.477 2.534 5.45 5.137 7.372 1.073-.95-.51-4.267-.273-6.604l3.81 6.63c.627-3.195.9-6.756.282-11.244 1.248 3.694 2.392 7.856 4.251 8.827l3.134-6.5c-1.096 4.326-1.893 8.23-1.477 10.427-6.486.925-11.993 2.698-16.521 5.318z" fill="#390"/><path id="path9991" d="M545.16 811.25c1.14-3.114 4.856-4.117 7.723-5.817l-9.358 2.68c-.666-2.19 1.02-3.89 2.35-5.664l-3.862 2.909c-.647-2.776.087-5.394 1.49-8.334-1.68 2.477-2.534 5.45-5.137 7.372-1.073-.95.51-4.267.273-6.604l-3.81 6.63c-.627-3.195-.9-6.756-.282-11.244-1.248 3.694-2.392 7.856-4.251 8.827l-3.134-6.5c1.096 4.326 1.893 8.23 1.477 10.427 6.486.925 11.993 2.698 16.521 5.318z" fill="#390"/><path id="path9993" d="M557.47 815.73c1.14-3.114 4.856-4.117 7.723-5.817l-9.358 2.68c-.666-2.19 1.02-3.89 2.35-5.664l-3.862 2.909c-.647-2.776.087-5.394 1.49-8.334-1.68 2.477-2.534 5.45-5.137 7.372-1.073-.95.51-4.267.273-6.604l-3.81 6.63c-.627-3.195-.9-6.756-.282-11.244-1.248 3.694-2.392 7.856-4.251 8.827l-3.134-6.5c1.096 4.326 1.893 8.23 1.477 10.427 6.486.925 11.993 2.698 16.521 5.318z" fill="#390"/><path id="path9995" d="M564.55 818.71c1.14-3.114 4.856-4.117 7.723-5.817l-9.358 2.68c-.666-2.19 1.02-3.89 2.35-5.664l-3.862 2.909c-.647-2.776.087-5.394 1.49-8.334-1.68 2.477-2.534 5.45-5.137 7.372-1.073-.95.51-4.267.273-6.604l-3.81 6.63c-.627-3.195-.9-6.756-.282-11.244-1.248 3.694-2.392 7.856-4.251 8.827l-3.134-6.5c1.096 4.326 1.893 8.23 1.477 10.427 6.486.925 11.993 2.698 16.521 5.318z" fill="#390"/><path id="path10083" d="M-682.39 3797c2.72-29.81 56.749-23.161 45.604-4.545-13.781 23.018 39.35-19.707 23.974 16.879-36.835 4.479-83.07 2.46-127.95 2.958-9.9-57.46 39.503-54.363 58.37-15.292z" transform="translate(919.33 -1420.5) scale(.52206)" filter="url(#filter10217)" fill="url(#linearGradient10902)"/><path id="path10126" d="M619.26 534.41c0 254.96-111.86 461.65-249.84 461.65S119.58 789.37 119.58 534.41 231.44 72.76 369.42 72.76s249.84 206.69 249.84 461.65z" color="#000" stroke="#986601" stroke-width="16.706" fill="none"/><path id="path9539" d="M400.47 314.34l-39.63 168.29-31.78-146.71 25.87 175.21-5.478-28.196 20.3 153.18-.063.908-13.757-11.456-50.85-191 38.283 180.53-36.466-30.347 61.46 71.618-11.408 165.32 28.359.563 2.958-151.56 65.577-126.52-67.564 93.232 21.974-194.85-28 175.84c-17.67-146.76-9.58-127.44 20.21-304.04z" stroke="#986601" stroke-width="3.005" fill="#986601"/><path id="path9745" d="M386.5 828.98c.777-7.254 6.984-11.72 11.401-17.105l-15.567 11.563c-2.063-4.17.254-8.806 1.906-13.371l-5.7 8.552c-2.264-5.411-2.01-11.369-.694-18.427-1.993 6.262-2.32 13.041-6.178 18.724-2.288-1.311-.802-9.273-2.162-14.026l-4.118 16.328c-2.395-6.304-4.31-13.6-5.01-23.408-.739 8.542-1.104 17.998-4.02 21.215l-8.18-11.643c3.684 8.377 6.668 16.06 6.81 20.93 11.904-2.176 22.408-1.954 31.512.666z" fill="#149514"/><path id="path10970" d="M411.45 518.7c7.039-31.468 18.656-53.531 53.128-28.653 36.553 9.47 43.186 23.768 30.444 41.189 6.53 35.641 16.346 72.975-28.056 82.378-16.904 18.172-27.238 13.352-34.623-1.79-25.183-3.175-47.565-9.741-42.98-48.95-10.018-30.02-7.563-49.063 22.087-44.175z" fill="url(#radialGradient10978)"/><path id="path11496" d="M360.2 320.52c-5.371-32.432 45.165-50.105 62.024-8.86 13.862-2.754 35.682 30.707 19.69 63.007 15.42 36.2-7.888 46.813-23.628 40.365-5.11 25.623-12.55 35.472-43.318 21.66-35.804-1.946-44.598-38.788-28.551-54.149-16.65 6.548-14.924-57.262 13.783-62.024z" fill="url(#radialGradient11514)"/><path id="path11516" d="M293.04 414.09c16.25-25.806 34.491-30.287 56.648-8.41 30.956 7.661 28.004 29.005 20.599 52.146 8.317 39.832-.916 62.464-36.049 59.717-21.171 38.77-42.343 21.668-48.065 4.205-10.59 8.774-50.173-8.15-18.024-44.578-10.012-2.563-16.654-32.326 6.008-43.736-4.49-17.152 8.805-24.513 18.883-19.345z" opacity=".951" fill="url(#radialGradient11524)"/><path id="path11526" d="M392.67 419.14c16.525-22.314 35.075-26.189 57.606-7.273 31.48 6.626 28.478 25.082 20.948 45.092 8.458 34.442-.931 54.013-36.659 51.638-21.53 33.524-43.059 18.736-48.878 3.636-10.769 7.587-51.022-7.048-18.329-38.546-10.181-2.217-16.936-27.953 6.11-37.819-4.566-14.83 8.953-21.196 19.202-16.728z" opacity=".946" fill="url(#radialGradient11528)"/><path id="path11530" d="M295.46 341.37c5.834-25.372 15.463-43.162 44.036-23.103 30.298 7.636 35.795 19.164 25.234 33.211 5.412 28.737 13.549 58.84-23.255 66.421-14.011 14.652-22.577 10.766-28.698-1.444-20.874-2.56-39.425-7.853-35.625-39.468-8.304-24.204-6.269-39.559 18.307-35.617z" opacity=".915" fill="url(#radialGradient11532)"/><path id="path11534" d="M260.58 579.97c-25.246-13.346-16.777-67.037 19.499-58.772 3.81-13.565 36.624-13.928 52.896 17.893 32.097 6.713 29.939 32.845 18.819 42.929 16.058 18.664 19.954 30.594-2.64 49.638-16.266 30.006-46.064 17.183-50.293-5.28-2.276 18.092-46.837-18.84-38.281-46.409z" opacity=".937" fill="url(#radialGradient11878)"/><path id="path11538" d="M351.89 504.29c14.6-22.664 30.989-26.599 50.896-7.387 27.813 6.73 25.161 25.474 18.508 45.798 7.473 34.981-.823 54.858-32.388 52.446-19.022 34.048-38.043 19.03-43.184 3.694-9.514 7.705-45.079-7.16-16.194-39.15-8.995-2.251-14.963-28.39 5.398-38.41-4.034-15.064 7.91-21.528 16.965-16.99z" opacity=".906" fill="url(#radialGradient11876)"/></g></g></svg>