<svg xmlns="http://www.w3.org/2000/svg" height="340.13mm" width="248.5mm" viewBox="0 0 880.498 1205.186"><defs><radialGradient id="a" gradientUnits="userSpaceOnUse" cy="7545.5" cx="-4672.8" gradientTransform="matrix(1 0 0 1.3688 1059.8 -4231.8)" r="440.25"><stop stop-color="#fff" offset="0"/><stop stop-color="#fff" stop-opacity="0" offset="1"/></radialGradient></defs><path d="M880.47 686.63C877.428 1371.09 47.13 1380-.03 701.651c0-332.74 201.1-701.6 441.75-701.6s438.74 353.85 438.74 686.59z" fill-rule="evenodd" fill="#efc6c6"/><path fill="#c83737" d="M441.77.03c-98.335 0-190.06 61.589-264.17 157.13a1855.345 1855.345 0 00156.81 24.116c35.698 3.84 71.495 6.834 107.38 8.223 12.826.789 25.683.368 38.526.507 6.256.063 12.498-.449 18.754-.538 9.173-.193 18.32-.99 27.471-1.65 9.016-.734 18.046-1.388 27.027-2.558 48.416-5.494 96.34-15.353 142.95-29.577 3.056-.978 6.119-1.943 9.18-2.911C632.04 59.569 540.488.022 441.768.022zM716.2 166.45c-2.813.883-5.63 1.755-8.4 2.769-13.767 4.172-27.538 8.367-41.506 11.813-30.85 7.873-62.133 14.089-93.691 18.338-13.265 1.954-26.628 3.132-39.974 4.391-14.134 1.26-28.318 1.81-42.492 2.357-13.404-.01-26.812.027-40.211-.013-7.995-.632-16.03-.439-24.016-1.156-43.464-2.299-86.822-6.413-129.97-12.082-43.276-5.647-86.374-12.725-129.15-21.343a696.121 696.121 0 00-21.368 30.943 39.56 39.56 0 012.213.668c6.977 2.491 14.183 4.27 21.219 6.582 6.166 1.734 12.324 3.51 18.486 5.27 4.652 1.013 9.133 2.653 13.776 3.693 23.074 5.83 46.256 11.27 69.689 15.456 27.789 5.198 55.874 8.738 84.052 10.957 9.366.547 18.723 1.38 28.116 1.393 8.685.69 17.405.327 26.117.417 4.522.022 9.062.112 13.583-.314 19.104-.417 38.163-2.034 57.195-3.72 23.903-2.545 47.77-5.547 71.464-9.648 8.55-1.353 17.05-2.961 25.579-4.44 40.144-7.722 80-16.98 119.34-28.098a1552.636 1552.636 0 0036.66-10.761A658.638 658.638 0 00716.2 166.45zm26.041 37.559c-22.18 6.886-44.49 13.357-66.985 19.142-58.414 15.389-117.83 27.184-177.86 34.108-23.487 2.707-47.067 4.625-70.693 5.476-9.765.61-19.548.157-29.317.31-10.724.156-21.43-.579-32.14-1.004a805.744 805.744 0 01-89.071-10.424c-47.347-8.273-94.04-20.155-139.74-35.015a783.684 783.684 0 00-17.639 29.9c4.638 1.58 9.263 3.21 13.925 4.725 24.912 7.842 50.254 14.313 75.824 19.628 33.588 6.897 67.579 11.728 101.68 15.286 15.093 1.371 30.199 2.612 45.333 3.509 15.246.721 30.491 1.613 45.759 1.707 11.392.605 22.802.27 34.207.363 4.414 0 8.85.076 13.269-.17 7.099-.48 14.228-.152 21.331-.65 36.523-1.21 72.965-4.253 109.25-8.586 63.491-7.595 126.45-19.602 188.31-35.81-8.12-14.63-16.605-28.815-25.432-42.495zm-631.36 56.954c-17.358 32.469-33.02 66.927-46.733 102.76.915-.28 1.859-.476 2.822-.574.497-.07.995-.108 1.492-.115 4.802-.071 9.488 2.677 12.396 6.389 1.739 2.612 3.307 5.476 3.585 8.671 1.116 6.754-1.734 14.148-7.497 17.98-5.405 4.095-13.525 3.338-18.553-1.067-1.516-1.417-2.868-3.07-3.91-4.887a980.689 980.689 0 00-10.071 30.382c2.27 2.406 4.556 4.797 6.918 7.115 2.68 2.702 5.038 5.71 7.785 8.349 2.285-1.68 4.037-3.975 6.188-5.812 5.015-4.392 9.411-9.42 14.381-13.856 9.702-8.806 18.082-19.072 28.622-26.946 3.997-2.972 8.617-5.024 13.394-6.364 6.538-1.497 13.883-.3 19.212 3.916 3.702 2.94 6.485 6.88 8.632 11.065 1.353 2.694 3.719 4.643 5.708 6.848 14.416 15.46 28.811 30.935 43.3 46.324 2.258 2.361 4.332 4.906 6.658 7.219 2.407-1.703 4.473-3.813 6.682-5.745 4.63-4.226 9.662-7.968 14.488-11.96 6.834-5.414 13.458-11.088 20.453-16.295 7.659-5.691 15.398-11.535 24.347-15.053 3.908-1.725 8.264-2.25 12.503-1.904 3.72.416 7.036 2.42 9.779 4.871 2.657 2.25 5.274 4.553 7.721 7.04 19.243 19.3 38.562 38.53 57.791 57.84a10.71 10.71 0 002.532 1.91c6.43-5.526 12.512-11.45 18.898-17.033 14.054-12.655 27.538-26.633 44.773-34.995 8.07-4.271 17.002-6.906 26.126-7.497 5.028-.013 10.074.56 14.95 1.828a51.425 51.425 0 0115.922 8.304c3.42 2.998 6.431 6.422 9.855 9.42 11.53 10.495 23.733 20.224 35.806 30.079 10.97-10.226 21.949-20.462 32.978-30.63 8.326-7.726 16.63-15.64 26.404-21.546 6.498-3.783 13.94-6.49 21.568-5.996 8.2.246 15.918 3.804 22.546 8.442 3.85 2.492 7.205 5.62 10.759 8.51 6.408 5.293 13.152 10.155 19.776 15.178 2.966 2.281 6.014 4.45 9.093 6.592 4.454 3.169 8.801 6.494 13.364 9.523.497.25 1.258.78 1.733.18 1.667-1.789 3.24-3.667 4.989-5.387 9.204-9.16 18.373-18.364 27.564-27.542 3.598-3.572 7.085-7.26 10.867-10.643 3.777-3.384 7.197-7.148 10.997-10.513 5.848-5.235 11.485-10.85 18.292-14.865 3.607-2.004 7.569-3.295 11.602-4.15 6.968-.969 14.147.224 20.583 3.016 11.235 4.925 20.709 12.883 30.446 20.184 6.7 5.243 13.612 10.219 20.365 15.402a944.994 944.994 0 00-14.382-44.546 10.954 10.954 0 01-2.013-.787c-6.296-2.492-9.823-9.263-10.253-15.757.108-3.227.632-6.53 2.183-9.398.103-.197.21-.395.316-.592-12.424-32.238-26.48-63.272-41.99-92.654-74.588 19.896-150.87 33.249-227.69 40.793-14.233 1.349-28.497 2.349-42.757 3.41-8.07.409-16.142.856-24.208 1.34-11.584.377-23.168.767-34.753 1.107-12.687.054-25.373-.036-38.055.032-7 .076-13.987-.47-20.978-.547-26.435-.842-52.862-2.298-79.163-5.09-23.72-2.196-47.33-5.458-70.822-9.388-33.73-5.88-67.22-13.332-100.01-23.232-4.096-1.25-8.138-2.68-12.247-3.881-4.747-1.407-9.407-3.08-14.06-4.766zm99.054 119.92c1.795.027 3.566.612 5.283 1.136 3.832 1.502 6.771 4.728 8.761 8.255 2.46 5.32 2.523 11.754-.01 17.065-2.34 4.302-6.318 8.147-11.306 8.985-2.953.879-6.072.256-8.828-.927-3.271-1.192-5.844-3.796-7.588-6.74-4.786-7.27-3.356-17.895 3.156-23.667 2.446-2.106 5.494-3.58 8.73-3.925a7.538 7.538 0 011.801-.182zm478.67.01c2.694-.016 5.358.933 7.688 2.251 5.445 3.003 8.305 9.295 8.52 15.322.206 3.236-.838 6.422-2.232 9.303-2.662 5.624-8.891 9.268-15.089 8.923-8.43-.704-15.183-8.734-14.973-17.074-.457-5.176 1.551-10.384 5.056-14.153 2.648-2.124 5.669-4.14 9.164-4.4a10.704 10.704 0 011.865-.172zm-324.45 16.313c5.257-.067 10.153 3.192 12.997 7.498 1.367 2.276 2.34 4.78 2.73 7.425.12 3.15.327 6.503-.932 9.483-.91 2.46-2.192 4.777-4.03 6.677-1.81 1.452-3.736 2.8-5.888 3.701-4.01 1.407-8.654 1.152-12.36-.967-7.071-3.957-10.684-13.05-8.38-20.798.964-3.729 2.896-7.336 6.064-9.644 2.393-2.146 5.624-2.993 8.743-3.316a12.5 12.5 0 011.056-.059zm160.71 0c3.13.04 6.182 1.232 8.774 2.946 7.38 5.472 9.505 16.912 4.459 24.629-1.345 2.429-3.429 4.369-5.688 5.942-3.683 2.16-8.29 2.747-12.364 1.439-3.858-1.403-7.34-4.092-9.263-7.762-1.99-3.186-2.437-7.067-2.298-10.742-.256-2.46.896-4.71 1.73-6.924 2.415-5.126 7.528-9.177 13.304-9.473.45-.043.898-.06 1.345-.055zm-397.24 1.332c-.118 0-.238 0-.358.01-4.692.363-8.618 3.28-12.198 6.068-3.21 2.76-5.929 6.036-9.214 8.716-6.749 6.238-12.812 13.198-19.767 19.221-3.087 2.882-5.884 6.063-9.035 8.886-2.204 1.977-4.548 3.846-6.358 6.216 2.415 3.37 5.61 6.063 8.37 9.137 2.932 3.334 6.118 6.431 9.057 9.765 8.237 9.11 16.872 17.921 24.083 27.896 5.624 7.206 10.952 14.663 17.096 21.447 1.537 1.591 3.15 3.156 5.037 4.352 6.256-3.899 11.764-8.824 17.392-13.543 12.624-10.634 24.58-22.026 36.908-32.996 1.573-1.43 3.16-2.868 4.464-4.548-1.501-1.927-3.388-3.527-4.952-5.396-8.264-8.77-16.371-17.68-24.733-26.354-8.573-9.348-17.244-18.602-25.947-27.83-2.326-2.536-2.76-6.242-5.207-8.689-1.32-1.084-2.863-2.321-4.639-2.357zm648.62 3.81a31.82 31.82 0 00-3.885.264c-3.89.416-7.094 2.976-10.182 5.149-3.728 2.967-7.277 6.153-10.666 9.5-3.652 3.214-7.098 6.646-10.482 10.132-2.72 2.815-5.785 5.266-8.537 8.044a6782.394 6782.394 0 01-22.187 22.178c-1.658 1.636-3.2 3.38-4.728 5.132-2.124 2.343-4.57 4.382-6.565 6.843 21.443 14.78 42.891 29.563 64.822 43.62.587.368 1.336.897 2.003.337 6.153-3.796 11.32-8.932 16.42-14.004 4.382-4.732 8.819-9.415 13.071-14.268 9.371-10.365 18.11-21.291 27.511-31.634 4.195-4.343 8.304-8.77 12.444-13.157-1.115-1.313-2.697-2.179-4.01-3.21-10.356-7.703-20.65-15.486-30.921-23.297-5.589-4.007-11.266-8.062-17.737-10.518-2.042-.821-4.204-1.112-6.373-1.111zm-494.73 21.191c-.533.04-1.6.112-2.138.148-6.21 1.725-11.512 5.696-16.809 9.223-10.388 7.43-20.153 15.68-30.1 23.675-5.571 4.244-10.748 8.972-16.049 13.538.619.968 1.488 1.713 2.272 2.56 4.625 4.929 9.214 9.898 13.856 14.815 12.283 13.413 24.961 26.74 40.126 36.953 3.003 1.801 5.93 3.795 9.165 5.176 5.028 2.28 10.347 4.356 15.98 4.082 2.097.435 3.701-.99 5.13-2.231 15.345-13.776 30.86-27.373 46.1-41.265-4.05-4.45-8.393-8.658-12.834-12.722-2.42-2.066-4.275-4.688-6.57-6.879-13.026-12.964-25.987-26.001-39.005-38.97-3.066-2.675-5.87-5.66-9.124-8.102zm325.72 3.54c-.533.01-1.068.048-1.603.122-6.494.878-11.952 4.826-17.128 8.54-11.073 8.87-21.035 19.002-31.575 28.476-4.549 4.266-9.044 8.6-13.731 12.709-.834.807-1.833 1.524-2.411 2.55.412.645 1.017 1.054 1.622 1.542 4.817 3.675 9.487 7.542 14.255 11.293 12.866 10.562 25.987 20.834 38.28 32.077 3.733 3.267 7.403 7.049 12.337 8.42 2.904 1.116 5.893-.277 8.21-1.98 3.818-3.348 7.179-7.17 10.432-11.056 2.935-3.491 6.592-6.252 9.797-9.474 6.027-6.077 12.095-12.108 18.14-18.163 2.823-2.855 5.763-5.597 8.398-8.63 2.702-3.11 5.722-5.925 8.653-8.816.941-.995 2.012-1.927 2.581-3.2-4.069-2.823-8.16-5.61-12.055-8.666-10.244-7.318-20.327-14.865-30.159-22.716-4.27-3.55-8.402-7.386-13.385-9.913-3.255-1.721-6.924-3.175-10.658-3.115zm-152.79 8.834c-2.038 0-4.086.173-6.09.291-7.241.964-13.928 4.158-20.283 7.6-7.322 4.419-14.178 9.595-20.488 15.367-10.352 9.366-20.664 18.772-30.993 28.16-1.026.932-2.137 1.793-2.98 2.904 2.644 3.222 6.476 5.217 9.657 7.87 9.703 7.707 18.638 16.312 27.973 24.459 8.56 7.367 17.043 14.959 26.897 20.588 2.595 1.496 5.396 2.805 8.416 3.092l.887-.493c4.59-5.145 9.371-10.141 14.592-14.654 3.321-3.101 6.323-6.53 9.774-9.496 2.958-2.564 5.543-5.521 8.523-8.058 2.344-1.98 4.36-4.307 6.66-6.337 3.23-2.733 6.063-5.897 9.307-8.617 6.301-6.252 13.072-12.005 19.378-18.252-2.76-2.622-5.916-4.781-8.82-7.228-9.285-7.726-18.632-15.385-27.52-23.568-3.11-2.868-5.79-6.243-9.352-8.573-2.366-1.725-5.113-2.841-7.847-3.81-2.467-.987-5.07-1.251-7.69-1.245zm-415.4 2.315a993.55 993.55 0 00-6.468 23.1c3.929-3.786 8.03-7.386 11.857-11.276 1.004-1.058 2.12-2.013 2.93-3.232-2.079-2.11-4.26-4.11-6.224-6.318a90.703 90.703 0 00-2.095-2.274zm809.65 12.244c-2.805 2.532-5.243 5.436-7.968 8.053-6.923 6.704-12.969 14.228-19.275 21.5a813.525 813.525 0 01-24.88 28c-6.417 6.6-12.915 13.243-20.609 18.369-2.661 1.595-5.417 3.168-8.514 3.723-3.688 1.058-7.61-.143-10.693-2.218-11.37-7.044-22.406-14.6-33.551-21.976-6.641-4.387-13.073-9.08-19.71-13.453-5.458-3.612-10.701-7.524-16.146-11.132-2.281 1.703-4.181 3.832-6.095 5.92-4.911 5.54-10.343 10.572-15.519 15.856-7.672 7.564-15.134 15.34-22.93 22.778-6.821 5.861-11.446 14.07-19.13 18.956-6.929 4.929-16.542 6.032-24.277 2.393-5.731-2.312-10.509-6.386-15.003-10.514-7.797-7.184-16.057-13.834-24.195-20.618-7.887-6.296-15.64-12.763-23.568-19.01-2.76-2.106-5.256-4.598-8.276-6.319-15.456 14.564-31.105 28.928-46.404 43.653-4.867 4.235-9.21 9.016-13.888 13.448-3.957 3.782-7.529 7.963-11.638 11.588-3.684 3.056-8.824 3.19-13.364 2.765-3.693-.596-7.152-2.084-10.526-3.63-7.95-4.091-15.057-9.576-21.923-15.25-5.494-4.656-11.028-9.272-16.34-14.134-8.442-7.564-16.746-15.34-25.937-22.003-2.492-1.841-4.718-3.992-7.246-5.771-2.832 2.039-5.261 4.575-7.87 6.878-13.704 12.288-27.416 24.563-41.188 36.774-2.675 2.64-6.318 3.944-9.97 4.508-5.297.462-10.764.489-15.9-1.04-8.161-2.209-15.698-6.229-22.743-10.831-4.262-2.667-8.206-5.79-12.06-9.003-4.132-3.473-8.273-6.955-12.037-10.818-4.195-4.32-8.6-8.434-12.673-12.866-7.265-7.963-14.798-15.68-21.99-23.693-.471.22-.91.502-1.31.838-16.607 15.057-32.941 30.45-50.347 44.603-4.154 3.258-8.331 6.632-13.153 8.864-3.899 1.734-8.43 1.264-12.154-.659-4.988-2.51-8.958-6.574-12.61-10.71-9.106-10.41-16.622-22.106-25.85-32.413-9.396-10.585-19.17-20.82-28.791-31.199-.574-.614-1.129-1.218-1.779-1.734-4.427 3.913-8.434 8.268-12.857 12.193-6.806 6.581-13.716 13.052-20.604 19.546C8.92 560.086.024 631.654.024 701.624c4.309 61.968 15.16 118.19 31.31 168.7 3 3.234 5.994 6.474 8.971 9.728 1.703 1.82 3.25 3.868 5.298 5.356 2.146-1.04 4.064-2.501 6.112-3.697 12.292-7.426 24.544-14.91 36.846-22.317 4.49-2.541 9.209-4.666 13.978-6.629 4.548-1.886 9.25-3.464 14.116-4.266 5.592-1.192 11.422-.7 16.97.515 7.555 2.111 14.498 6.248 20.126 11.701 3.405 3.308 6.619 6.82 10.137 10.024 5.745 5.145 11.015 10.791 16.518 16.196 8.796 8.685 17.298 17.683 26.556 25.884 2.756-1.994 5.225-4.333 7.815-6.528 8.542-7.332 17.2-14.538 26.22-21.278 8.699-6.516 18.63-11.62 29.375-13.641 4.536-1.036 9.214-.785 13.812-.444 9.259.815 18.087 4.795 25.208 10.71 17.262 15.142 34.614 30.19 51.656 45.588 1.95 1.752 3.8 3.634 5.89 5.252 1.63-.798 2.956-2.106 4.43-3.128 20.539-15.653 41.709-30.46 63.219-44.742 2.59-2.084 6.063-2.518 9.276-2.168 15.048.6 28.972 8.402 39.494 18.826 5.037 5.274 10.55 10.074 16.052 14.865 8.179 7.04 16.415 14.017 24.795 20.82.394-.346.766-.713 1.134-1.08a3451.909 3451.909 0 0146.516-50.281c5.75-5.956 11.737-11.924 19.154-15.801 6.83-3.298 14.46-5.629 22.124-4.683 5.032.417 10.047 1.586 14.613 3.8 3.836 1.963 7.264 4.638 10.715 7.21 13.188 9.657 26.309 19.4 39.489 29.07 2.836 2.088 5.548 4.351 8.528 6.265 2.72-2.2 4.745-5.104 7.044-7.703 14-16.173 28.103-32.252 42.116-48.408 2.335-2.89 4.938-5.66 8.228-7.47 7.636-4.298 16.24-7.314 25.096-7.233 10.15-.327 20.22 2.962 28.645 8.537 3.89 2.46 7.506 5.323 11.235 8.03 11.253 8.38 22.15 17.226 33.184 25.898 3.074-2.017 5.543-4.786 8.366-7.116 2.097-1.763 4.186-3.536 6.274-5.31 15.069-54.675 23.554-116.03 23.857-184.06 0-79.157-11.218-159.5-31.544-236-.095-.05-.188-.103-.285-.15zm-1.14 52.262c3.76-.033 7.536 1.3 10.237 3.966 4.625 4.033 6.588 10.473 6.015 16.473-.892 5.341-3.837 10.742-8.847 13.198-5.346 3.293-12.82 2.388-17.369-1.896-3.8-3.146-6.122-8.039-5.978-12.99 0-2.062-.197-4.164.51-6.118 1.17-3.294 2.77-6.579 5.459-8.904 2.214-1.555 4.63-3.155 7.385-3.487.853-.154 1.72-.234 2.588-.242zm-803.11 6.365c1.692.042 3.354.586 4.96 1.1 5.638 2.026 9.533 7.484 10.527 13.283 1.488 6.861-1.272 14.694-7.201 18.638-3.42 2.344-7.874 3.487-11.934 2.375-5.266-1.124-9.644-5.144-11.517-10.146-.807-2.536-1.47-5.117-1.488-7.788 0-2.846.927-5.584 2.142-8.12 2.178-5.091 7.336-8.645 12.808-9.196a7.485 7.485 0 011.703-.146zm148.93 9.879c4.329.01 8.662 1.847 11.485 5.176 2.304 2.828 4.262 6.167 4.612 9.882.963 6.036-1.241 12.458-5.745 16.599-3.097 2.765-7.283 4.302-11.446 4.069-3.478-.57-6.99-1.9-9.46-4.504-2.94-2.734-5.032-6.476-5.391-10.518-.139-3.182-.341-6.52.914-9.514 1.474-3.455 3.554-6.816 6.794-8.864 1.958-1.143 4.118-1.976 6.386-2.218.614-.074 1.232-.11 1.85-.109zm501.76 8.039c3.918-.04 7.777 1.801 10.647 4.397 2.649 2.98 4.983 6.534 5.27 10.643.188 3.491.31 7.238-1.313 10.46-2.196 4.719-6.426 9.02-11.745 9.89-4.158 1.183-8.56-.345-11.983-2.706-3.948-2.756-6.202-7.377-6.937-12.037-.923-5.383.812-11.086 4.347-15.2 2.541-2.909 6.189-4.876 10.033-5.31.56-.087 1.121-.131 1.68-.137zm-331.66 16.295c4.333.01 8.823 1.685 11.69 5.032 7.112 7.291 6.391 20.561-1.429 27.063-4.633 3.926-11.764 4.737-17.056 1.703-6.511-3.648-10.082-11.629-8.814-18.929.78-3.872 2.285-7.788 5.292-10.486 1.712-1.33 3.437-2.774 5.539-3.441 1.55-.498 3.16-.771 4.778-.941zm161.43 0c5.686.097 11.114 3.687 13.636 8.762 1.954 3.446 2.572 7.543 2.214 11.464-.7 5.35-3.832 10.306-8.335 13.273-5.427 3.276-12.794 2.671-17.652-1.389-7.184-5.888-8.188-17.239-3.263-24.876 1.174-1.636 2.586-3.101 4.127-4.387 2.523-1.86 5.65-2.59 8.72-2.846h.552zm-480.48 264.61c3 .032 6.008.863 8.371 2.752 5.526 3.845 8.21 10.983 7.381 17.562-.636 3.72-2.147 7.363-4.643 10.23-3.796 4.142-9.961 6.158-15.424 4.625-5.445-1.591-9.671-6.224-11.374-11.548-.623-2.254-.878-4.603-.941-6.92.493-5.184 2.662-10.486 7.08-13.524 2.017-1.3 4.141-2.662 6.575-2.953a17.584 17.584 0 012.975-.224zm803.03 9.79c5.297-.047 10.63 2.65 13.3 7.297 4.588 6.664 4.194 16.402-1.184 22.51-2.81 3.128-6.646 5.696-10.998 5.691-5.162.543-10.383-2.061-13.296-6.283-2.644-3.24-3.962-7.524-3.693-11.67-.354-7.721 5.19-15.77 12.947-17.23a14.807 14.807 0 012.922-.315zm-637.06 26.03c1.73.012 3.446.264 5.014 1.03 5.683 2.348 9.595 8.062 10.316 14.099.166 3.343.192 6.932-1.313 10.029-2.165 5.691-7.775 10.235-13.986 10.289-3.89.466-7.663-1.228-10.688-3.535-6.915-6.01-8.376-17.222-3.182-24.778 2.272-3.344 5.795-6.122 9.832-6.857 1.304-.15 2.66-.287 4.006-.277zm478.29.033c1.83-.017 3.665.208 5.346.939 5.79 2.084 9.747 7.816 10.558 13.807 1.08 6.708-1.64 14.138-7.426 17.939-2.17 1.752-4.934 2.684-7.712 2.733-3.079.225-6.346-.376-8.856-2.227-5.279-3.249-8.532-9.536-8.102-15.72-.363-7.77 5.162-15.694 12.933-17.236a29.705 29.705 0 013.258-.235zm81.717 12.94c-1.29-.01-2.585.09-3.88.3-4.98.623-9.869 2.084-14.158 4.733-1.595.73-2.63 2.172-3.714 3.481-16.281 18.687-32.651 37.303-48.788 56.115.394.488.882.915 1.406 1.305 9.622 7.084 19.284 14.129 28.717 21.474 7.686 5.731 15.321 11.535 22.86 17.473a33.21 33.21 0 008.975 5.4c2.25.914 4.76.497 7.103.205 5.06-2.02 9.061-5.96 12.36-10.199 6.403-7.663 11.611-16.218 17.2-24.468a901.923 901.923 0 0110.592-14.954c3.8-5.238 8.134-10.06 12.598-14.739 2.69-2.854 5.718-5.387 8.228-8.407-1.08-1.34-2.627-2.218-3.917-3.294-8.95-7.049-17.822-14.192-26.982-20.964-4.078-3.146-8.242-6.202-12.646-8.86-4.887-2.657-10.364-4.576-15.953-4.6zm-406.11 3.167c4.165.071 8.247 2.045 11.087 5.074a24.862 24.862 0 013.513 5.897c1.564 4.553 1.48 9.743-.237 14.265-2.263 5.454-7.515 10.15-13.646 10.212-1.896 0-3.836.157-5.646-.435-4.325-1.514-7.986-4.808-9.846-9.002-3.504-7.045-2.044-16.281 3.809-21.627 2.043-2.362 5.046-3.666 8.085-4.118a13.16 13.16 0 012.881-.266zm160.62.024c1.71.026 3.413.32 5.034.936 3.07.94 5.297 3.392 7.359 5.73 2.765 3.685 3.764 8.426 3.486 12.975-.444 4.15-2.325 8.049-5 11.222-2.21 1.815-4.607 3.674-7.466 4.302-3.124.354-6.503.708-9.42-.699-5.741-2.267-9.604-8.098-10.316-14.116-.175-3.379-.18-6.91 1.317-10.012 1.327-3.28 3.536-6.35 6.718-8.035 1.608-.954 3.32-1.882 5.216-2.075a17.698 17.698 0 013.073-.227zm-400.6 4.146c-.745 0-1.497.053-2.255.15-4.41.444-8.707 1.663-12.789 3.375-5.127 1.945-10.056 4.383-14.779 7.166-12.512 7.676-25.149 15.155-37.63 22.872 1.448 2.196 3.419 4.002 5.194 5.943 14.107 15.322 28.273 30.594 42.192 46.095 3.562 3.76 6.892 7.739 10.325 11.629 3.007 2.904 6.237 5.771 10.253 7.196 6.887 3.366 14.896 2.398 22.017.346 1.389-.422 2.352-1.591 3.347-2.564 2.115-2.214 4.262-4.391 6.584-6.38 4.544-3.962 8.42-8.623 12.996-12.549 2.962-2.559 5.534-5.54 8.563-8.017 3.702-3.621 7.529-7.112 11.33-10.63 1.64-1.515 3.428-2.886 4.8-4.66-2.376-2.869-5.226-5.28-7.785-7.96-7.77-7.618-15.196-15.594-23.294-22.863-6.762-6.687-13.422-13.471-20.184-20.148-5.105-4.845-11.678-9.036-18.883-9.002zm486.27 17.116c-.347 0-.695 0-1.042.014-2.976.394-6.036.682-8.774 1.986-6.848 2.935-12.24 8.286-17.208 13.686-2.707 3.253-5.915 6.037-8.667 9.259-6.26 6.735-12.633 13.368-18.764 20.224-6.162 6.417-11.916 13.21-18.123 19.584-.681.3-1.08 1.376-.443 1.913 1.676 1.645 3.697 2.895 5.503 4.419 18.78 15.075 37.737 29.944 56.76 44.71 5.32.054 10.343-2.26 14.824-4.939 4.508-3.007 8.756-6.426 12.557-10.298 4.208-4.49 8.049-9.303 11.858-14.13 11.898-14.372 24.006-28.569 36.178-42.712.506-.448.51-1.308-.153-1.586-11.405-8.479-22.904-16.823-34.296-25.315-5.26-3.84-10.563-7.627-15.694-11.633-4.033-3.353-9.299-5.138-14.517-5.181zm-330.93 5.662a28.308 28.308 0 00-3.853.218c-4.037.444-8.043 1.421-11.745 3.11-7.788 3.335-14.493 8.64-21.103 13.843-5.368 4.159-10.536 8.573-15.73 12.95-2.872 2.515-5.897 4.868-8.604 7.574 2.393 2.931 5.356 5.346 7.937 8.125 3.24 3.486 7.009 6.422 10.32 9.845a11218.14 11218.14 0 0022.85 22.86c4.047 3.559 7.887 7.34 11.647 11.208 2.348 2.438 3.944 5.616 7.009 7.337 3.19 1.837 6.785 3.262 10.531 3.181 3.75-.318 7.502-.892 10.992-2.384 7.242-2.971 13.578-7.73 19.561-12.696 11.015-10.258 22.702-19.767 34.408-29.209-.488-1.273-2.053-1.87-2.877-2.837-5.203-4.504-10.28-9.147-15.456-13.668-12.122-10.9-24.486-21.523-36.734-32.274-5.282-4.522-12.205-7.105-19.154-7.183zm164.18 11.693c-.309 0-.615.044-.915.155-21.407 13.91-42.142 28.846-62.573 44.15a5.897 5.897 0 00-.923.91c1.098 1.46 2.64 2.464 3.948 3.737 5.382 5.073 10.93 9.966 16.227 15.133 5.163 4.383 9.496 9.635 14.658 14.022 3.953 3.504 7.318 7.636 11.49 10.921 4.598 3.572 9.285 7.156 14.627 9.563 4.544 2.057 9.353 4.07 14.435 4.025 3.115-.027 6.34.08 9.33-.973 1.59-.538 3.397-.856 4.625-2.111 1.586-1.407 2.985-3.007 4.396-4.566 11.396-12.794 22.971-25.423 34.421-38.163 1.838-2.057 3.921-3.93 5.467-6.215-1.017-1.528-2.729-2.39-4.046-3.595-10.294-8.5-20.542-17.06-30.361-26.1-3.988-3.782-7.551-8.044-12.032-11.27-5.857-4.49-12.615-8.08-19.973-9.223-.918-.034-1.873-.405-2.8-.401zm399 6.236c-2.532 2.07-4.731 4.508-7.053 6.812-4.737 4.844-9.406 9.796-13.364 15.317-10.562 13.776-18.929 29.15-30.213 42.38-3.993 4.727-8.747 8.873-14.286 11.687-5.57 2.917-12.234 3.822-18.333 2.236-4.172-.856-8.026-2.841-11.612-5.073-4.253-2.863-8.142-6.207-12.229-9.281-15.474-11.737-30.868-23.585-46.615-34.954-.829.659-1.51 1.47-2.196 2.285-9.514 11.244-19.145 22.384-28.573 33.7-9.173 10.491-17.024 22.39-28.205 30.948-7.488 6.073-16.335 11.028-26.055 12.117-3.858.475-7.985.413-11.557-1.285-2.684-1.564-4.979-3.684-7.421-5.566-19.893-15.313-39.48-31.011-59.122-46.637-2.008 1.712-3.666 3.773-5.418 5.74-11.871 13.072-23.733 26.158-35.537 39.301-1.94 2.088-3.693 4.37-5.795 6.31-6.99 5.11-15.85 6.798-24.36 6.749-9.706-.556-19.072-3.966-27.372-8.918-6.583-3.97-12.642-8.765-18.19-14.07-6.493-5.755-12.202-12.31-18.678-18.07-7.008-6.749-14.206-13.287-21.314-19.92-1.057-.883-1.966-1.998-3.28-2.465-.492.193-.945.48-1.375.798-10.455 8.326-20.727 16.89-30.702 25.786-6.427 6.121-13.524 11.58-21.282 15.922-5.306 2.743-10.912 5.19-16.886 5.996-2.837.488-5.723.646-8.591.708-8.04-.452-15.828-3.787-21.837-9.11-3.106-2.743-5.324-6.324-8.461-9.021-3.568-3.15-6.825-6.624-10.2-9.962-4.929-4.93-9.863-9.86-14.778-14.798-3.115-3.169-6.561-5.992-9.658-9.165-4.45-4.521-8.99-8.948-13.395-13.506-.824-.82-1.649-1.72-2.77-2.11-9.137 8.2-18.068 16.647-26.91 25.171-7.277 6.453-13.631 13.878-21.016 20.215-2.514 2.223-5.875 2.98-8.972 3.989-6.059 1.846-12.476 1.98-18.75 1.685-10.93-1.277-21.175-6.915-28.461-15.107-5.324-6.027-10.594-12.099-16.052-18.001-9.523-10.347-18.938-20.794-28.519-31.083-3.42-3.755-6.933-7.412-10.267-11.235-.68-.736-1.332-1.502-2.005-2.243 157.46 396.49 662.33 394.03 800.25-2.202a497.69 497.69 0 00-2.583-2.07zm-148.03 70.353c4.166-.107 8.296 1.696 11.283 4.566 3.142 3.374 5.141 7.891 5.056 12.552 0 2.483 0 5.132-1.008 7.476-2.322 6.376-8.668 11.279-15.564 11.217-4.544-.337-9.021-2.51-11.72-6.23-3.235-4.064-4.48-9.487-3.902-14.591 1.196-7.04 6.61-14.085 14.07-14.824.594-.096 1.19-.15 1.785-.166zm-491.5.015c5.473.038 10.765 3.357 13.443 8.113 4.876 7.811 2.9 19.341-4.763 24.67-2.765 2.165-6.409 2.927-9.842 2.971-2.227-.385-4.507-.887-6.434-2.12-4.092-2.217-6.875-6.363-8.076-10.786-.542-2.909-1.183-5.96-.323-8.868.762-3.724 2.649-7.256 5.387-9.89 2.362-1.946 5.198-3.483 8.259-3.9a13.374 13.374 0 012.35-.19zm160.56 17.86c5.692-.073 11.265 3.437 13.802 8.542 2.425 3.733 2.51 8.411 2.241 12.736-.811 3.316-2.021 6.7-4.548 9.142-4.177 4.92-11.745 6.749-17.607 3.92-2.671-1.514-5.455-3.27-6.983-6.03-1.636-2.367-2.531-5.163-2.921-7.987-1.076-6.627 1.9-13.78 7.488-17.535 1.725-1.434 3.876-2.272 6.09-2.531a13.24 13.24 0 012.438-.257zm168.74.01c3.846-.027 7.688 1.427 10.524 4.042 3.657 3.5 5.835 8.505 5.79 13.592.26 4.651-1.653 9.24-4.61 12.768-2.904 3.5-7.525 5.18-11.974 5.306-3.016-.332-6.14-1.013-8.528-2.98-2.864-1.86-4.638-4.854-6.005-7.88-1.564-3.97-1.569-8.437-.579-12.53 1.269-3.566 3.196-7.147 6.418-9.285 1.931-1.25 4.001-2.437 6.314-2.773a14.611 14.611 0 012.65-.26z"/><path opacity=".48" d="M-3021.9 6421.1c-3.042 684.46-833.34 693.37-880.5 15.02 0-332.74 201.1-701.6 441.75-701.6s438.74 353.85 438.74 686.59z" fill-rule="evenodd" fill="url(#a)" transform="translate(3902.37 -5734.47)"/></svg>