<svg version="1.1" id="Layer_1" xmlns="http://www.w3.org/2000/svg" x="0" y="0" viewBox="127.307 135.775 1671.55 996.632" xml:space="preserve"><g stroke-width=".094"><path fill="#A47A50" stroke="#A47A50" d="M127.37 136.05c2.89-.28 5.79-.24 8.69-.2 513.29-.01 1026.59 0 1539.89 0 40.95.09 81.91-.19 122.86.13-.09 329.01-.01 658.02-.04 987.02.01 3.11.07 6.24-.21 9.36-53.2-.34-106.4-.05-159.6-.14-503.01 0-1006.03-.01-1509.04 0-1.56.34-2.95-.42-2.47-2.15.02-188.69 0-377.38.01-566.08-.06-142.64.11-285.29-.09-427.94m92.24 68.6c.01 258.8 0 517.6.01 776.4-.26 9.58.52 19.22-.42 28.76 5.59-.66 11.24-.17 16.85-.31 259.45-.03 518.9.04 778.34-.05.41-.32 1.21-.97 1.62-1.29.39.33 1.18.99 1.58 1.32 5.81.42 11.61-.73 17.42.01 82.67.02 165.35 0 248.02 0 23.53.17 47.08-.33 70.6.25l-.27-1.99c40.19-.43 80.4-.06 120.61-.19 23.88.14 47.78-.26 71.65.2l-.41 1.99c28.26-.6 56.56-.09 84.84-.26 25.54.16 51.1-.32 76.63.25-.26-47.23-.05-94.46-.11-141.7-.01-114.67 0-229.34-.01-344.02-.06-106.48.15-212.98-.11-319.46-122.18.17-244.36.02-366.55.07-373.43.01-746.86-.01-1120.29.02z"/><path stroke="#000" d="M219.61 204.65c373.43-.03 746.86-.01 1120.29-.02 122.19-.05 244.37.1 366.55-.07.26 106.48.05 212.98.11 319.46.01 114.68 0 229.35.01 344.02.06 47.24-.15 94.47.11 141.7-25.53-.57-51.09-.09-76.63-.25-28.28.17-56.58-.34-84.84.26l.41-1.99c.14-8.81-.03-17.63.06-26.43 1.93-.37 5.2-.68 4.88-3.42-.03-11.09.35-22.2-.25-33.27-9.71-.96-19.51-.17-29.25-.41-56.73.02-113.45-.07-170.17.04-3.22-.44-3.24 3.48-3.21 5.69.18 9.36-.19 18.73.16 28.08 0 2.94 3.34 2.78 5.44 3.19.11 8.84-.07 17.68.08 26.52l.27 1.99c-23.52-.58-47.07-.08-70.6-.25-82.67 0-165.35.02-248.02 0-5.81-.74-11.61.41-17.42-.01-.4-.33-1.19-.99-1.58-1.32-.41.32-1.21.97-1.62 1.29-259.44.09-518.89.02-778.34.05-5.61.14-11.26-.35-16.85.31.94-9.54.16-19.18.42-28.76-.01-258.8 0-517.6-.01-776.4m625.31 210.71c-5.78 1.52-11.8 2.69-17.12 5.51-5.14 3.95-8.97 9.5-11.79 15.29-1.51 2.15.15 5.55 2.97 4.73 5.37-1.27 10.42-3.73 15.92-4.54 2.36-.52 5.51-.45 6.57-3.13-.37-.43-1.13-1.3-1.51-1.73 10.12-3.31 20.4-6.48 31.04-7.54 3.98-.29 8.12-.25 11.92 1.15 2.03.78 4.3 2.48 3.91 4.96-.95 3.02-3.79 4.85-6.38 6.37-7.46 4.04-15.95 5.56-24.24 6.9 3.79-4.64 8.06-8.95 10.97-14.24-11.16.08-18.72 9.26-25.95 16.48-4.61.77-9.31 1.03-13.84 2.21-1.94.56-4.08 1.26-5.09 3.16.26 4.92 6.66 4.44 10.2 5.02-3.67 4.89-7.49 9.7-10.63 14.95-3.29 5-1.62 12.54 3.65 15.49 7.05 4.2 15.65 3.05 23.37 1.89 10.8-1.87 21.8-5.83 29.63-13.79 2.58-2.78 5.51-6.58 3.96-10.58-1.59-3.42-5.25-5.13-8.55-6.47-8.21-3.1-17.02-4.11-25.65-5.36.55-1.59 2.26-2.24 3.79-2.47 9.6-1.71 19.28-3.53 28.36-7.19 5.3-2.23 10.7-5.08 13.99-9.98 2.92-4.25 3.27-10.56-.24-14.58-3.26-3.85-8.38-5.29-13.17-6.03-12.12-1.59-24.28.95-36.09 3.52m184.46 1.11c-10.09 5.78-18.73 13.78-26.86 22.04-8.56 8.72-15.72 18.83-21.2 29.72-5.52 4.49-11.5 8.76-18.38 10.85-4.06 1.16-9.53.96-12.01-2.98-1.63-2.47-.34-5.75 1.85-7.4 3.57-2.89 7.38-5.48 11-8.33.39 2.15 1.56 5.2 4.32 4.72 3.26-1.1 5.67-3.78 7.79-6.37 2.29-3 4.44-6.85 3.3-10.74-1.18-3.12-5.08-2.96-7.75-2.33-6.52 1.64-12.51 4.97-18 8.78-5.13 3.58-10.5 8.14-11.21 14.8-3.63 2.77-7.24 5.64-11.3 7.77-2.04.91-4.57 1.97-6.67.71-1.56-.84-1.23-2.91-.65-4.27 2.04-4.88 6.37-8.29 8.82-12.93 1.15-2.38-.46-4.73-2.35-6.07 1.23-.66 2.45-1.36 3.63-2.15-.62-3.17-3.41-5.85-6.7-5.86-4.49-.1-8.86 1.23-13.05 2.68-9.08 3.4-17.99 8.12-24.57 15.38-3.56 3.81-6.03 9.57-3.49 14.6 1.89 3.7 4.6 8.22 9.06 8.88 8.38-3.48 14.65-10.56 21.97-15.78-1.71 3.82-3.59 7.65-4.17 11.84-.34 2.53.62 5.67 3.28 6.54 2.45.89 4.97-.29 7.15-1.38 6.93-3.76 12.99-8.89 18.83-14.14.34 6.67 4.56 14.44 12.07 14.46 10.54-.16 19.17-7.53 26.55-14.3.42 3.86.68 8.03 2.9 11.36 1.12 1.67 3.78 1.32 4.79-.3 2.21-3.26 4.07-6.83 7.14-9.4 3.16 4.74 6.24 10.09 11.57 12.69 3.12 1.67 6.85.99 9.86-.62 7.83-4.04 14.18-10.3 20.79-16.03-.39-1.57-.76-3.13-1.11-4.69-5.77 4.35-11.33 9.23-18.03 12.08-3.83 1.5-7.57-1.21-9.34-4.47 6.96-4.03 14.97-7.09 20.04-13.63 3.47-4.26 3.2-12.15-2.21-14.66-3.43-.57-6.53 1.54-9.41 3.08-10.44 6.38-19.67 14.48-28.97 22.39-.36-3.2 2.45-4.92 4.35-6.94 12.14-12.2 24.72-24.01 35.84-37.17 2.39-3.07 5.1-6.09 6.36-9.84.64-3.35-3.63-4.44-5.83-2.59m-117.1 149.74c-3.3 1.99-5.27 5.42-7.38 8.52-4.16.37-8.74.28-12.22 2.94-3.48 3.03-5.37 7.38-7.94 11.12 3.52-.48 7.08-.49 10.63-.33-4.31 7.03-10.4 12.7-16.89 17.68.4 1.44.84 2.91 1.27 4.37 1.83-1.63 3.74-3.18 5.78-4.53-1.84 4.83-4.33 10.53-1.74 15.55 2.24 3.88 7.55 3.53 11.18 2.07 8.11-3.18 14.51-9.36 20.88-15.09.71 5.35 3.33 11.43 8.94 13.1 7.5 1.57 14.56-2.83 19.66-7.93 7.12.33 13.68-3.34 17.94-8.9-.39-1.65-.78-3.29-1.15-4.92-3.39 2.66-6.68 6.57-11.46 6.07 2.61-5.14 5.63-10.95 3.83-16.84-.37-1.55-1.89-2.25-3.11-2.96 3.06-1.15 2.73-5.47-.32-6.34-5.06-1.67-10.47.39-15.23 2.11-8.8 3.92-17.79 10.77-19.3 20.93-4.89 3.32-9.43 7.25-14.77 9.85-2.29 1.36-6.37.75-6.09-2.59.25-8.09 5.46-14.9 10.06-21.17 4.14.15 8.97.25 12.07-3 2.9-3.13 4.37-7.24 6.25-11-2.28-.18-4.54-.37-6.8-.56 1.76-2.63 4.92-5.23 3.99-8.74-2.66-.69-5.65-.89-8.08.59M802.21 690.3c-6.4 3.77-7.14 11.98-7.92 18.62-.54 4.61 3.48 8.15 7.68 8.94 9 1.88 18.19 2.9 27.09 5.3 4.52 1.29 9.44 2.38 12.9 5.83-1.72 3.92-6.06 5.59-9.7 7.26-13.1 5-27.42 5.51-41.28 5 1.7-1.24 3.51-2.44 4.53-4.36-5.18-.43-11.42 1.69-13.93 6.63-1.56 2.61-4.26 6.36-1.53 9.11 3.55 3.05 8.56 3.1 13 3.46 11.21.24 22.52-.71 33.42-3.43 7.06-1.88 14.24-4.51 19.62-9.62 4.17-3.96 6.65-10.26 4.84-15.9-2.19-5.12-7.42-8.07-12.48-9.73-10.95-3.22-22.47-4.7-33-9.29.23-3.35 3.58-5.04 6.08-6.66 10.71-6.02 23.21-7.88 35.33-8.36-3.08 2.67-7.59 4.92-8.23 9.32 3.04 1.18 5.4-1.49 7.79-2.91 3.71-2.63 8.36-3.37 12.16-5.84 4.05-2.67 4.62-8.32 3.67-12.67-3.59-2.24-8.17-2.03-12.24-2.59-16.56-.76-33.76 2.82-47.8 11.89m138.25-8.02c-4.89 2.61-8.89 6.54-12.92 10.27-12.31 12.03-23.49 25.67-30.58 41.44-5.76 4.66-11.9 9.32-19.1 11.46-3.96 1.18-9.15 1.01-11.82-2.59-1.89-2.32-.82-5.85 1.38-7.56 3.54-3.05 7.56-5.5 11.07-8.6.5 2.41 2.33 5.96 5.38 4.49 4.64-2.68 8.45-7.09 10.2-12.19 1.13-3.03-.3-7.55-4.13-7.33-6.93.17-13.16 3.9-18.96 7.34-5.31 3.64-11.44 7.52-13.32 14.07-1.61 6.54-1.03 14.31 3.69 19.48 3.62 3.97 9.63 3.93 14.37 2.3 7.72-2.76 14.34-7.95 20.1-13.67.33 3.62.21 7.53 2.12 10.78.62 1.2 1.65 1.75 3.09 1.64 3.16-1.95 5.29-5.09 7.87-7.69 6-6.32 12.36-12.49 19.87-16.98-3.97 5.06-8.34 10.01-10.8 16.03-1.07 2.95-1.6 6.82.8 9.28 2.05 2.14 5.32 1.29 7.71.25 6.8-3.05 12.6-7.83 18.57-12.22.87 5.46 3.91 11.72 9.92 12.75 7.27.89 13.73-3.41 18.74-8.19 5.6.17 11.1-1.92 15.12-5.83.66 5.64 3.31 12.29 9.37 13.87 7.31 1.39 14.04-2.96 19.15-7.73 5.83-.42 11.75-2.16 15.91-6.56.22 4.51.54 9.69 4.09 12.97 3.51 3.02 8.74 2.27 12.65.44 7.7-3.58 13.54-9.99 19.43-15.92-.5-1.11-.99-2.21-1.47-3.3-6.14 4.38-12.02 10.93-20.11 10.91-5.15-1.25-6.19-8.42-3.67-12.38 9.62-9.94 20.25-19.77 25.45-32.91 1.3-4.33 2.8-9.1 1.65-13.61-1.25-2.49-3.99-.54-5.57.51-7.29 5.45-13.23 12.44-19.04 19.37-6.39 7.51-10.79 16.69-12.56 26.39-3.15 2.84-6.52 6.48-11.17 6.08 2.38-5.02 5.35-10.48 3.97-16.23-.2-1.71-1.69-2.65-2.98-3.5.76-1.02 2.1-1.94 1.85-3.39-.2-2.72-3.47-3.71-5.75-3.69-5.59.19-11.04 2-15.91 4.67-6.51 3.76-12.76 9.07-14.91 16.57-2.41 3.06-6.11 5.86-10.23 5.53 2.4-4.97 5.24-10.32 4.05-16.03-.23-1.82-1.75-2.89-3.21-3.7 1.18-1.1 2.69-2.47 1.82-4.26-1.39-2.77-5.05-3.02-7.75-2.64-9.8 1.21-19.02 6.49-25.19 14.16-2.58 3.05-3.25 7.04-4.23 10.73-3.88 2.7-7.85 5.58-12.45 6.89-2.18.79-4.13-2.02-2.74-3.8 3.16-5.39 8.01-9.54 11.3-14.82 2.03-3.14-1.34-7.12-4.61-7.38-3.29.44-6.08 2.4-8.82 4.12-8.08 5.42-15.47 11.78-22.96 17.96-.03-1.41-.03-2.81-.02-4.2 11.12-11.21 21.93-22.76 32.02-34.91 3.72-4.82 7.98-9.47 10.2-15.22 1.08-3.21-3.6-4.92-5.93-3.72m36.81 309.12c-1.59.3-3.06 1.81-3.03 3.48-.15 3.04-.14 6.1-.03 9.15-.12 1.98 1.73 3.92 3.75 3.77 18.68.1 37.37.03 56.05.05 2.26.33 4.44-1.44 4.58-3.71.15-3.07.15-6.16-.05-9.21-.09-2.23-2.41-3.82-4.51-3.65-18.92.07-37.86-.18-56.76.12m104.04 2.01c-4.11 1.32-2.95 6.37-3.03 9.67-.27 2.58 1.96 5.11 4.65 4.76 32.06-.03 64.13.06 96.2-.05 4.88-.42 3.65-6.36 3.72-9.76.5-2.75-2.08-5.23-4.78-4.79-32.26.12-64.53-.21-96.76.17z"/><path fill="#FFF" stroke="#FFF" d="M844.92 415.36c11.81-2.57 23.97-5.11 36.09-3.52 4.79.74 9.91 2.18 13.17 6.03 3.51 4.02 3.16 10.33.24 14.58-3.29 4.9-8.69 7.75-13.99 9.98-9.08 3.66-18.76 5.48-28.36 7.19-1.53.23-3.24.88-3.79 2.47 8.63 1.25 17.44 2.26 25.65 5.36 3.3 1.34 6.96 3.05 8.55 6.47 1.55 4-1.38 7.8-3.96 10.58-7.83 7.96-18.83 11.92-29.63 13.79-7.72 1.16-16.32 2.31-23.37-1.89-5.27-2.95-6.94-10.49-3.65-15.49 3.14-5.25 6.96-10.06 10.63-14.95-3.54-.58-9.94-.1-10.2-5.02 1.01-1.9 3.15-2.6 5.09-3.16 4.53-1.18 9.23-1.44 13.84-2.21 7.23-7.22 14.79-16.4 25.95-16.48-2.91 5.29-7.18 9.6-10.97 14.24 8.29-1.34 16.78-2.86 24.24-6.9 2.59-1.52 5.43-3.35 6.38-6.37.39-2.48-1.88-4.18-3.91-4.96-3.8-1.4-7.94-1.44-11.92-1.15-10.64 1.06-20.92 4.23-31.04 7.54.38.43 1.14 1.3 1.51 1.73-1.06 2.68-4.21 2.61-6.57 3.13-5.5.81-10.55 3.27-15.92 4.54-2.82.82-4.48-2.58-2.97-4.73 2.82-5.79 6.65-11.34 11.79-15.29 5.32-2.82 11.34-3.99 17.12-5.51m-11.69 53.68c-1.3 3.07 1.53 5.49 4.19 6.31 9.44 3.31 19.67-.33 27.97-5.03 2.06-1.51 5.38-3.21 4.79-6.25-1.61-2.38-4.59-3.13-7.17-3.91-6.57-1.64-13.34-2.43-20.09-2.56-3.13 3.89-7.25 7.04-9.69 11.44zm196.15-52.57c2.2-1.85 6.47-.76 5.83 2.59-1.26 3.75-3.97 6.77-6.36 9.84-11.12 13.16-23.7 24.97-35.84 37.17-1.9 2.02-4.71 3.74-4.35 6.94 9.3-7.91 18.53-16.01 28.97-22.39 2.88-1.54 5.98-3.65 9.41-3.08 5.41 2.51 5.68 10.4 2.21 14.66-5.07 6.54-13.08 9.6-20.04 13.63 1.77 3.26 5.51 5.97 9.34 4.47 6.7-2.85 12.26-7.73 18.03-12.08.35 1.56.72 3.12 1.11 4.69-6.61 5.73-12.96 11.99-20.79 16.03-3.01 1.61-6.74 2.29-9.86.62-5.33-2.6-8.41-7.95-11.57-12.69-3.07 2.57-4.93 6.14-7.14 9.4-1.01 1.62-3.67 1.97-4.79.3-2.22-3.33-2.48-7.5-2.9-11.36-7.38 6.77-16.01 14.14-26.55 14.3-7.51-.02-11.73-7.79-12.07-14.46-5.84 5.25-11.9 10.38-18.83 14.14-2.18 1.09-4.7 2.27-7.15 1.38-2.66-.87-3.62-4.01-3.28-6.54.58-4.19 2.46-8.02 4.17-11.84-7.32 5.22-13.59 12.3-21.97 15.78-4.46-.66-7.17-5.18-9.06-8.88-2.54-5.03-.07-10.79 3.49-14.6 6.58-7.26 15.49-11.98 24.57-15.38 4.19-1.45 8.56-2.78 13.05-2.68 3.29.01 6.08 2.69 6.7 5.86-1.18.79-2.4 1.49-3.63 2.15 1.89 1.34 3.5 3.69 2.35 6.07-2.45 4.64-6.78 8.05-8.82 12.93-.58 1.36-.91 3.43.65 4.27 2.1 1.26 4.63.2 6.67-.71 4.06-2.13 7.67-5 11.3-7.77.71-6.66 6.08-11.22 11.21-14.8 5.49-3.81 11.48-7.14 18-8.78 2.67-.63 6.57-.79 7.75 2.33 1.14 3.89-1.01 7.74-3.3 10.74-2.12 2.59-4.53 5.27-7.79 6.37-2.76.48-3.93-2.57-4.32-4.72-3.62 2.85-7.43 5.44-11 8.33-2.19 1.65-3.48 4.93-1.85 7.4 2.48 3.94 7.95 4.14 12.01 2.98 6.88-2.09 12.86-6.36 18.38-10.85 5.48-10.89 12.64-21 21.2-29.72 8.13-8.26 16.77-16.26 26.86-22.04M899.98 467c-3.39 2.29-6.87 5.61-6.89 10-.08 1.21.41 3.1 2.04 2.81 3.44-.45 6.16-2.83 8.86-4.81 6.72-5.47 12.99-11.49 18.96-17.76-7.91 2.56-15.98 5.14-22.97 9.76m118.23-7.89c-6.05 2.48-11.84 6.1-16.2 11 1.37.75 2.73 1.54 4.08 2.37 4-2.76 8.04-5.48 12-8.32 1.38-1.15 3.08-2.3 3.55-4.14.55-1.94-2.46-1.36-3.43-.91z"/><path stroke="#000" d="M899.98 467c6.99-4.62 15.06-7.2 22.97-9.76-5.97 6.27-12.24 12.29-18.96 17.76-2.7 1.98-5.42 4.36-8.86 4.81-1.63.29-2.12-1.6-2.04-2.81.02-4.39 3.5-7.71 6.89-10zm-66.75 2.04c2.44-4.4 6.56-7.55 9.69-11.44 6.75.13 13.52.92 20.09 2.56 2.58.78 5.56 1.53 7.17 3.91.59 3.04-2.73 4.74-4.79 6.25-8.3 4.7-18.53 8.34-27.97 5.03-2.66-.82-5.49-3.24-4.19-6.31zm184.98-9.93c.97-.45 3.98-1.03 3.43.91-.47 1.84-2.17 2.99-3.55 4.14-3.96 2.84-8 5.56-12 8.32-1.35-.83-2.71-1.62-4.08-2.37 4.36-4.9 10.15-8.52 16.2-11z"/><path fill="#FFF" stroke="#FFF" d="M912.28 566.21c2.43-1.48 5.42-1.28 8.08-.59.93 3.51-2.23 6.11-3.99 8.74 2.26.19 4.52.38 6.8.56-1.88 3.76-3.35 7.87-6.25 11-3.1 3.25-7.93 3.15-12.07 3-4.6 6.27-9.81 13.08-10.06 21.17-.28 3.34 3.8 3.95 6.09 2.59 5.34-2.6 9.88-6.53 14.77-9.85 1.51-10.16 10.5-17.01 19.3-20.93 4.76-1.72 10.17-3.78 15.23-2.11 3.05.87 3.38 5.19.32 6.34 1.22.71 2.74 1.41 3.11 2.96 1.8 5.89-1.22 11.7-3.83 16.84 4.78.5 8.07-3.41 11.46-6.07.37 1.63.76 3.27 1.15 4.92-4.26 5.56-10.82 9.23-17.94 8.9-5.1 5.1-12.16 9.5-19.66 7.93-5.61-1.67-8.23-7.75-8.94-13.1-6.37 5.73-12.77 11.91-20.88 15.09-3.63 1.46-8.94 1.81-11.18-2.07-2.59-5.02-.1-10.72 1.74-15.55-2.04 1.35-3.95 2.9-5.78 4.53-.43-1.46-.87-2.93-1.27-4.37 6.49-4.98 12.58-10.65 16.89-17.68-3.55-.16-7.11-.15-10.63.33 2.57-3.74 4.46-8.09 7.94-11.12 3.48-2.66 8.06-2.57 12.22-2.94 2.11-3.1 4.08-6.53 7.38-8.52m28.53 25.17c-4.79 2.8-10.13 5.18-13.65 9.6-2.18 3.17-4.26 7.58-2.45 11.32 3.91 3.49 9.57.33 12.52-2.96-3.18-6.14.59-12.6 3.58-17.96z"/><path stroke="#000" d="M940.81 591.38c-2.99 5.36-6.76 11.82-3.58 17.96-2.95 3.29-8.61 6.45-12.52 2.96-1.81-3.74.27-8.15 2.45-11.32 3.52-4.42 8.86-6.8 13.65-9.6z"/><path fill="#FFF" stroke="#FFF" d="M802.21 690.3c14.04-9.07 31.24-12.65 47.8-11.89 4.07.56 8.65.35 12.24 2.59.95 4.35.38 10-3.67 12.67-3.8 2.47-8.45 3.21-12.16 5.84-2.39 1.42-4.75 4.09-7.79 2.91.64-4.4 5.15-6.65 8.23-9.32-12.12.48-24.62 2.34-35.33 8.36-2.5 1.62-5.85 3.31-6.08 6.66 10.53 4.59 22.05 6.07 33 9.29 5.06 1.66 10.29 4.61 12.48 9.73 1.81 5.64-.67 11.94-4.84 15.9-5.38 5.11-12.56 7.74-19.62 9.62-10.9 2.72-22.21 3.67-33.42 3.43-4.44-.36-9.45-.41-13-3.46-2.73-2.75-.03-6.5 1.53-9.11 2.51-4.94 8.75-7.06 13.93-6.63-1.02 1.92-2.83 3.12-4.53 4.36 13.86.51 28.18 0 41.28-5 3.64-1.67 7.98-3.34 9.7-7.26-3.46-3.45-8.38-4.54-12.9-5.83-8.9-2.4-18.09-3.42-27.09-5.3-4.2-.79-8.22-4.33-7.68-8.94.78-6.64 1.52-14.85 7.92-18.62zm138.25-8.02c2.33-1.2 7.01.51 5.93 3.72-2.22 5.75-6.48 10.4-10.2 15.22-10.09 12.15-20.9 23.7-32.02 34.91-.01 1.39-.01 2.79.02 4.2 7.49-6.18 14.88-12.54 22.96-17.96 2.74-1.72 5.53-3.68 8.82-4.12 3.27.26 6.64 4.24 4.61 7.38-3.29 5.28-8.14 9.43-11.3 14.82-1.39 1.78.56 4.59 2.74 3.8 4.6-1.31 8.57-4.19 12.45-6.89.98-3.69 1.65-7.68 4.23-10.73 6.17-7.67 15.39-12.95 25.19-14.16 2.7-.38 6.36-.13 7.75 2.64.87 1.79-.64 3.16-1.82 4.26 1.46.81 2.98 1.88 3.21 3.7 1.19 5.71-1.65 11.06-4.05 16.03 4.12.33 7.82-2.47 10.23-5.53 2.15-7.5 8.4-12.81 14.91-16.57 4.87-2.67 10.32-4.48 15.91-4.67 2.28-.02 5.55.97 5.75 3.69.25 1.45-1.09 2.37-1.85 3.39 1.29.85 2.78 1.79 2.98 3.5 1.38 5.75-1.59 11.21-3.97 16.23 4.65.4 8.02-3.24 11.17-6.08 1.77-9.7 6.17-18.88 12.56-26.39 5.81-6.93 11.75-13.92 19.04-19.37 1.58-1.05 4.32-3 5.57-.51 1.15 4.51-.35 9.28-1.65 13.61-5.2 13.14-15.83 22.97-25.45 32.91-2.52 3.96-1.48 11.13 3.67 12.38 8.09.02 13.97-6.53 20.11-10.91.48 1.09.97 2.19 1.47 3.3-5.89 5.93-11.73 12.34-19.43 15.92-3.91 1.83-9.14 2.58-12.65-.44-3.55-3.28-3.87-8.46-4.09-12.97-4.16 4.4-10.08 6.14-15.91 6.56-5.11 4.77-11.84 9.12-19.15 7.73-6.06-1.58-8.71-8.23-9.37-13.87-4.02 3.91-9.52 6-15.12 5.83-5.01 4.78-11.47 9.08-18.74 8.19-6.01-1.03-9.05-7.29-9.92-12.75-5.97 4.39-11.77 9.17-18.57 12.22-2.39 1.04-5.66 1.89-7.71-.25-2.4-2.46-1.87-6.33-.8-9.28 2.46-6.02 6.83-10.97 10.8-16.03-7.51 4.49-13.87 10.66-19.87 16.98-2.58 2.6-4.71 5.74-7.87 7.69-1.44.11-2.47-.44-3.09-1.64-1.91-3.25-1.79-7.16-2.12-10.78-5.76 5.72-12.38 10.91-20.1 13.67-4.74 1.63-10.75 1.67-14.37-2.3-4.72-5.17-5.3-12.94-3.69-19.48 1.88-6.55 8.01-10.43 13.32-14.07 5.8-3.44 12.03-7.17 18.96-7.34 3.83-.22 5.26 4.3 4.13 7.33-1.75 5.1-5.56 9.51-10.2 12.19-3.05 1.47-4.88-2.08-5.38-4.49-3.51 3.1-7.53 5.55-11.07 8.6-2.2 1.71-3.27 5.24-1.38 7.56 2.67 3.6 7.86 3.77 11.82 2.59 7.2-2.14 13.34-6.8 19.1-11.46 7.09-15.77 18.27-29.41 30.58-41.44 4.03-3.73 8.03-7.66 12.92-10.27m105.88 40.82c7.06-6.85 13.35-14.94 16.69-24.29-8.14 5.85-12.77 15.34-16.69 24.29m-92.21 14.96c-1.13 2.66-2.11 7.03 1.22 8.5 4.14 1.47 7.97-1.13 10.97-3.7-2.99-6.27.45-12.72 3.5-18.18-5.95 3.37-13.1 6.52-15.69 13.38m47.48-5.48c-2.85 3.06-5.02 7.28-4.39 11.58.33 2.17 2.86 2.91 4.77 2.78 3.35.12 5.98-2.23 8.32-4.31-3.12-6.17.55-12.63 3.52-18.01-4.23 2.37-8.64 4.62-12.22 7.96z"/><path stroke="#000" d="M1046.34 723.1c3.92-8.95 8.55-18.44 16.69-24.29-3.34 9.35-9.63 17.44-16.69 24.29zm-92.21 14.96c2.59-6.86 9.74-10.01 15.69-13.38-3.05 5.46-6.49 11.91-3.5 18.18-3 2.57-6.83 5.17-10.97 3.7-3.33-1.47-2.35-5.84-1.22-8.5zm47.48-5.48c3.58-3.34 7.99-5.59 12.22-7.96-2.97 5.38-6.64 11.84-3.52 18.01-2.34 2.08-4.97 4.43-8.32 4.31-1.91.13-4.44-.61-4.77-2.78-.63-4.3 1.54-8.52 4.39-11.58z"/><path fill="#A47A50" stroke="#A47A50" d="M1347.68 949.96c-.03-2.21-.01-6.13 3.21-5.69 56.72-.11 113.44-.02 170.17-.04 9.74.24 19.54-.55 29.25.41.6 11.07.22 22.18.25 33.27.32 2.74-2.95 3.05-4.88 3.42-55.22.33-110.45.04-165.68.14-8.91-.14-17.83.3-26.72-.24-2.1-.41-5.44-.25-5.44-3.19-.35-9.35.02-18.72-.16-28.08z"/><path fill="#FFF" stroke="#FFF" d="M1353.28 981.23c8.89.54 17.81.1 26.72.24 55.23-.1 110.46.19 165.68-.14-.09 8.8.08 17.62-.06 26.43-23.87-.46-47.77-.06-71.65-.2-40.21.13-80.42-.24-120.61.19-.15-8.84.03-17.68-.08-26.52zM977.27 991.4c18.9-.3 37.84-.05 56.76-.12 2.1-.17 4.42 1.42 4.51 3.65.2 3.05.2 6.14.05 9.21-.14 2.27-2.32 4.04-4.58 3.71-18.68-.02-37.37.05-56.05-.05-2.02.15-3.87-1.79-3.75-3.77-.11-3.05-.12-6.11.03-9.15-.03-1.67 1.44-3.18 3.03-3.48zm104.04 2.01c32.23-.38 64.5-.05 96.76-.17 2.7-.44 5.28 2.04 4.78 4.79-.07 3.4 1.16 9.34-3.72 9.76-32.07.11-64.14.02-96.2.05-2.69.35-4.92-2.18-4.65-4.76.08-3.3-1.08-8.35 3.03-9.67z"/></g></svg>