<svg xmlns="http://www.w3.org/2000/svg" width="410.978" height="434.752" id="svg3357" version="1.1"><defs id="defs3359"><filter color-interpolation-filters="sRGB" id="filter6051" x="-.02" width="1.041" y="-.335" height="1.669"><feGaussianBlur stdDeviation="2.024" id="feGaussianBlur6053"/></filter></defs><g id="layer1" transform="translate(-15.478 -7.326)"><g transform="matrix(1.71772 0 0 1.52266 -1580.932 -1049.217)" id="g4260"><g id="g4262"><g transform="translate(-1.053 .01)" id="g4264"><g transform="translate(-18.177)" id="g4266" fill="#da2153" fill-opacity="1"><path d="M954.95 811.384V979.39h227.13V811.384H954.95z" id="path4268" fill="#da2153" fill-opacity="1"/></g><path transform="matrix(.96746 0 0 1 33.31 0)" id="path4270" d="M960.987 800.74c-22.932 0-28.833-.52-28.833 2.031v12.32h237.59v-12.32c0-3.066-6.205-2.031-28.833-2.031H960.99z" fill="#000" filter="url(#filter6051)"/><path d="M960.38 754.36c-22.932 0-28.833-2.08-28.833 8.112v49.197h237.59v-49.197c0-12.245-6.204-8.112-28.833-8.112h-179.92z" id="path4272" fill="#f44676" fill-opacity="1"/></g><g transform="matrix(1.2153 0 0 1 -504.94 -4.213)" id="g4274"><path d="M1261.8 758.58v57.353h34.251V758.58zm3.44 60.452v164.584h27.42V818.861z" id="path4276" fill="#eee"/></g></g><path d="M990.84 693.881c-.29 0-.562.01-.849.03-1.377.086-2.71.396-3.96.987-4.512 2.132-8.474 6.685-10.34 11.823-3.877 10.679-3.886 23.98 0 34.656 1.867 5.125 4.602 11.765 10.34 11.765h37.558c5.74 0 10.372-5.237 10.372-11.765 0 0 1.66-16.387-1.948-22.833-7.31-13.06-22.011-19.557-35.138-23.646-1.905-.593-4.007-1.018-6.035-1.017zm116.35.03c-1.856.06-3.759.444-5.5.987-13.127 4.088-27.828 10.587-35.138 23.646-3.608 6.446-1.949 22.833-1.949 22.833 0 6.528 4.633 11.765 10.372 11.765h37.558c5.739 0 8.474-6.64 10.34-11.765 3.887-10.674 3.878-23.977 0-34.656-1.865-5.138-5.827-9.691-10.34-11.823-1.667-.788-3.487-1.05-5.343-.988zm-106.33 16.615c1.392 0 2.81.279 4.117.668 9.012 2.684 19.12 6.94 24.138 15.512 2.477 4.231 1.32 14.99 1.32 14.99 0 4.284-3.163 7.726-7.103 7.726H997.56c-3.94 0-5.821-4.362-7.103-7.727-2.668-7.006-2.662-15.736 0-22.746 1.281-3.372 4.005-6.356 7.103-7.756.859-.388 1.757-.582 2.703-.639.197-.012.398-.029.597-.03zm96.834 0c.199 0 .4.017.597.03.946.056 1.845.25 2.703.638 3.098 1.4 5.822 4.384 7.103 7.756 2.662 7.01 2.668 15.74 0 22.746-1.281 3.365-3.163 7.727-7.103 7.727h-25.772c-3.94 0-7.103-3.441-7.103-7.727 0 0-1.157-10.758 1.32-14.989 5.019-8.572 15.094-12.829 24.106-15.512 1.308-.389 2.757-.669 4.149-.668zm-61.601 10.487c3.608 5.99 1.98 21.206 1.98 21.206 0 3.223-1.284 6.108-3.363 8.104 1.313 1.728 3.294 2.818 5.563 2.818h17.978c2.278 0 4.313-1.078 5.626-2.818-2.08-1.996-3.395-4.881-3.395-8.104 0 0-1.66-15.216 1.95-21.206-4.92-8.655-20.95-8.964-26.339 0z" id="path4278" fill="#f887a6" stroke="none" fill-opacity="1"/></g></g></svg>