<svg xmlns="http://www.w3.org/2000/svg" width="500" height="500" id="svg4297" version="1.1"><defs id="defs4299"><filter id="filter4885" x="-.038" width="1.076" y="-.047" height="1.094" color-interpolation-filters="sRGB"><feGaussianBlur stdDeviation="6.476" id="feGaussianBlur4887"/></filter><filter id="filter4905" x="-.152" width="1.305" y="-.493" height="1.987" color-interpolation-filters="sRGB"><feGaussianBlur stdDeviation="17.516" id="feGaussianBlur4907"/></filter><filter id="filter4917" x="-.093" width="1.185" y="-.14" height="1.281" color-interpolation-filters="sRGB"><feGaussianBlur stdDeviation="3.822" id="feGaussianBlur4919"/></filter></defs><g id="layer1" transform="translate(0 -552.362)" fill-rule="evenodd" stroke-width="1" stroke-linecap="butt" stroke-linejoin="miter" stroke-opacity="1"><path d="M316.898 1014.587c37.977-12.211 74.02-36.097 99.063-67.15 29.094-36.074 49.782-82.7 51.865-128.997 2.143-47.634-10.422-100.58-41.226-136.977-24.599-29.065-67.886-34.55-102.438-50.552-18.187-8.423-35.282-21.407-55.167-23.913-51.696-6.515-109.478-1.826-154.359 24.642-35.602 20.997-61.285 59.212-76.358 97.699-15.572 39.763-19.536 85.901-10.639 127.667 7.379 34.638 26.674 67.551 51.209 93.091 30.308 31.55 70.067 56.65 112.365 67.824 40.52 10.704 85.787 9.496 125.685-3.334z" id="path4867" fill="#d71604" fill-opacity="1" stroke="#000"/><path d="M284 611.696s6.285-8.222 4.333-12c-2.857-5.534-11.803-4.38-18-5-4.655-.467-14 1-14 1s5.556 12.032 11 15c4.887 2.663 16.667 1 16.667 1z" id="path4873" fill="#fff" fill-opacity=".994" stroke="#000"/><path d="M115.667 732.362c-1.576 18.16 21.642 32.155 38.666 38.667 30.35 11.608 64.968-2.458 97.334-5.334 28.992-2.575 59.033-1.522 86.666-10.666 16.015-5.3 35.39-10.495 44-25 6.524-10.99 16.667-33 .667-38.334-16-5.333-35 6.667-77.667 13.334-42.666 6.666-63 8.666-95.666 4.666-32.667-4-45.334-5.666-66 3-20.667 8.667-27.015 8.304-28 19.667z" id="path4875" fill="#f85157" fill-opacity="1" stroke="none" filter="url(#filter4905)"/><path d="M95 705.695c-14.8 32.406-4 68 69.333 81.334 73.334 13.333 184.667 13.333 211.334-13.334 26.666-26.666 22.666-63.333 28.666-69.333S457 761.695 455 785.03c-2 23.333-33.333 90-66 94.666-32.667 4.667-84 12.667-116 17.334-32 4.666-60.667 14-60 33.333.667 19.333-.667 42.667 7.333 50.667s.2 22.126-8 26c-32.798 15.494-76.666-10-100.666-41.334-24-31.333-59.334-89.333-64.667-134-5.333-44.666-1.247-82.898 5.333-103.333 6.334-19.667 10-26 19.334-36 9.333-10 24.666-14 28-6 3.333 8-1.874 13.219-4.667 19.333z" id="path4877" fill="#cd0000" fill-opacity="1" stroke="none" filter="url(#filter4885)"/><path d="M117.667 697.029s10.666-22 34.666-23.334c24-1.333 51.334-2 51.334-2s5.333-24-8-31.333c-13.334-7.333-28.667-12.667-35.334-4.667-6.666 8-26 6.667-38 18-12 11.334-20 30-15.333 36s10.667 7.334 10.667 7.334z" id="path4879" fill="#f44a4d" fill-opacity="1" stroke="none" filter="url(#filter4917)"/><path d="M199 701.695l22-12s16.331 3.869 24.667 4.334c8.892.496 26.666-1.667 26.666-1.667s7.896 4.727 12.334 5.333c8.89 1.215 26.666-3.666 26.666-3.666s-10.413-1.331-15-3.667c-3.372-1.717-8.666-7.333-8.666-7.333s4.516-6.557 8-8c5.954-2.466 12.986 1.114 19.333 0 6.75-1.185 12.83-4.834 19.333-7 11.571-3.855 23.38-6.96 35-10.667 12.72-4.057 38-12.667 38-12.667l-53.333 14s-20.841 2.851-31.333 3.334c-7.882.362-23.667-.334-23.667-.334s2.315-5.535 4.333-7.666c5.532-5.841 13.657-8.513 20.334-13 7.675-5.159 22.666-16 22.666-16s-30.295 14.118-45.666 20.666c-6.606 2.815-20 8-20 8L263 655.03l-22 .666s-26.163-20.268-36-33.333c-9.206-12.226-20.667-41-20.667-41s1.51 23.88 4.667 35.333c4.405 15.978 19.667 45.667 19.667 45.667s-22.012 2.443-32.334-.667c-11.333-3.414-22.287-11.07-30-19-7.23-7.434-15.147-13.597-20-22.333-2.698-4.856-4.666-16-4.666-16s-.155 11.717 2 17c4.188 10.269 12.71 18.28 20.333 26.333 6.661 7.037 13.593 14.183 22 19 9.268 5.311 19.93 7.909 30.333 10.334 5.02 1.17 15.334 2 15.334 2s-4.328 8.508-6.667 12.666c-1.906 3.388-6 10-6 10z" id="path4869" fill="green" stroke="#000"/><path d="M238 672.029c6.731 8.886 13.47 8.163 21 8.333 6.464.146 17.934.12 18.333-6.333.766-12.371-2.75-21.818-1.666-32.667 1.026-10.27 7.666-30 7.666-30s-12.037 1.126-17-1.667c-4.841-2.724-10-13.333-10-13.333s-7.13 12.218-10 18.667c-3.6 8.092-7.477 16.275-9 25-.974 5.582-.126 11.335 0 17 .111 5.004-2.422 10.922.667 15z" id="path4871" fill="#0a6506" fill-opacity="1" stroke="#000"/></g></svg>