<svg xmlns="http://www.w3.org/2000/svg" width="475.146" height="560.397" viewBox="0 0 125.716 148.272" version="1.1" id="svg973"><g id="layer1" transform="translate(-5.934 -8.174)" stroke="none" stroke-linecap="round" stroke-miterlimit="4" stroke-dasharray="none" stroke-dashoffset="0" stroke-opacity="1"><path d="M68.16 17.72l14.604-9.546-6.12 34.424h-5.792z" id="rect883" opacity="1" fill="#8f5902" fill-opacity="1" stroke-width="5.981"/><path d="M49.79 34.35c-84.762 11.035-29.762 151.055 23.522 116.675 45.522 19.947 52.93-29.055 57.325-55.173 3.956-23.504-2.904-59.918-34.47-60.51-7.597-.143-15.568-.973-21.607 7.256-7.126-8.85-15.634-9.438-24.77-8.248z" id="path818" opacity="1" fill="#c00" fill-opacity=".995" stroke-width="4.611"/><path d="M55.597 33.903c-1.858.4-3.839.193-5.806.447 12.428 2.173 17.813 7.527 24.77 8.248-3.787-4.728-12.566-10.077-18.964-8.695zm36.182 1.361c-2.115-.016-4.225.056-6.282.42.768.018 1.537.04 2.3.054 31.566.592 38.427 37.006 34.471 60.51-3.433 20.403-8.705 54.771-32.55 59.325 30.977 2.544 37.03-37.132 40.83-59.71 3.955-23.504-2.905-59.918-34.472-60.51-1.424-.027-2.862-.078-4.297-.089zM53.109 156.31c5.176.703 14.061-1.365 20.682-5.565-6.423-1.464-12.22 3.997-20.682 5.565z" id="path818-9" opacity="1" fill="#a40000" fill-opacity=".559" stroke-width="4.611"/><path d="M23.931 59.751c3.077-5.89 13.449-9.786 13.449-9.786-20.037 13.87-12.114 33.228-13.936 33.024-8.36-12.465-2.59-17.347.487-23.238z" id="rect880" opacity="1" fill="#fff" fill-opacity=".559" stroke-width="4.284"/></g></svg>