<svg xmlns="http://www.w3.org/2000/svg" id="svg2" version="1.1" viewBox="0 0 66.026 133.712"><g id="g4" transform="translate(85.156 -465.5)"><path id="path6" d="M-47.424 517.63c7.592-14.954 17.639-28.685 27.674-42.064" stroke="#4a0" stroke-width="1.55" fill="none"/><path id="path8" d="M-47.424 515.78c-.376-12.428.854-37.51 13.652-43.909" stroke="#4a0" stroke-width="1.55" fill="none"/><path id="path10" d="M-62.921 480.36c6.809 11.348 10.607 24.648 15.497 36.898 1.974-17.549-12.354-37.75-22.508-51.289" stroke="#4a0" stroke-width="1.55" fill="none"/><path id="path12" d="M-30.081 479.99c-7.375 11.062-13.491 22.896-16.973 35.791-7.742-15.301-18.955-28.102-29.15-41.695" stroke="#4a0" stroke-width="1.55" fill="none"/><path id="path14" d="M-47.793 516.52c-9.463-8.35-24.613-11.329-33.578-20.294" stroke="#4a0" stroke-width="1.55" fill="none"/><path id="path16" d="M-47.793 517.26c-12.331-13.261-22.21-28.834-36.898-39.85" stroke="#4a0" stroke-width="1.55" fill="none"/><path id="path18" d="M-45.579 516.15c-.096-15.391 9.75-31.151 20.294-41.695" stroke="#4a0" stroke-width="1.55" fill="none"/><path id="path20" d="M-44.103 513.94c1.664-16.318 13.439-24.509 24.353-35.422" stroke="#4a0" stroke-width="1.55" fill="none"/><path id="path22" d="M-61.076 515.78c1.55 28.85 7.803 55.818 12.545 83.39 5.035-27.97 12.103-55.535 14.021-84.128 2.741-5.298-28.278-3.7-26.567.738" stroke="#000" stroke-width=".517" fill="#ff7f2a"/><path id="path24" d="M-57.755 524.64h4.797" stroke="#000" stroke-width=".517" fill="none"/><path id="path26" d="M-48.162 530.54c1.197.129 2.234.672 3.32 1.107" stroke="#000" stroke-width=".517" fill="none"/><path id="path28" d="M-50.744 546.41h2.214" stroke="#000" stroke-width=".517" fill="none"/><path id="path30" d="M-50.744 560.06c1.72.802 1.616 1.4 2.952 1.845" stroke="#000" stroke-width=".517" fill="none"/><path id="path32" d="M-45.21 540.87c1.996-.46 2.035.095 3.32.738" stroke="#000" stroke-width=".517" fill="none"/><path id="path34" d="M-43.734 522.79c2.011-.341 4.222.648 5.904 1.107" stroke="#000" stroke-width=".517" fill="none"/></g></svg>