<svg xmlns="http://www.w3.org/2000/svg" xmlns:xlink="http://www.w3.org/1999/xlink" id="svg2" viewBox="0 0 400 400" version="1.0" width="100%" height="100%"><defs id="defs4"><radialGradient id="radialGradient2642" gradientUnits="userSpaceOnUse" cy="332.36" cx="-485.71" r="262.86"><stop id="stop3965" offset="0" stop-color="#f0f7f9"/><stop id="stop3963" offset="1" stop-color="#ccc"/></radialGradient><radialGradient id="radialGradient2644" gradientUnits="userSpaceOnUse" cy="353" cx="-257.14" gradientTransform="matrix(1.6357 -.01413 .00864 .99996 160.42 -3.62)" r="52.319"><stop id="stop3344" offset="0" stop-color="#fff"/><stop id="stop3346" offset="1" stop-color="#fff" stop-opacity="0"/></radialGradient><radialGradient id="radialGradient2646" gradientUnits="userSpaceOnUse" cy="219.21" cx="-260.01" gradientTransform="matrix(-.99219 .12477 -.07518 -.59784 -502.2 415.88)" r="37.016"><stop id="stop3359" offset="0" stop-color="#fff"/><stop id="stop3361" offset="1" stop-color="#fff" stop-opacity="0"/></radialGradient><radialGradient xlink:href="#radialGradient2642" id="radialGradient3218" gradientUnits="userSpaceOnUse" cx="-485.71" cy="332.36" r="262.86"/><radialGradient xlink:href="#radialGradient2644" id="radialGradient3220" gradientUnits="userSpaceOnUse" gradientTransform="matrix(1.6357 -.01413 .00864 .99996 160.42 -3.62)" cx="-257.14" cy="353" r="52.319"/><radialGradient xlink:href="#radialGradient2646" id="radialGradient3222" gradientUnits="userSpaceOnUse" gradientTransform="matrix(-.99219 .12477 -.07518 -.59784 -502.2 415.88)" cx="-260.01" cy="219.21" r="37.016"/><radialGradient xlink:href="#radialGradient2644" id="radialGradient3257" gradientUnits="userSpaceOnUse" gradientTransform="matrix(1.6357 -.01413 .00864 .99996 160.42 -3.62)" cx="-257.14" cy="353" r="52.319"/><radialGradient xlink:href="#radialGradient2646" id="radialGradient3259" gradientUnits="userSpaceOnUse" gradientTransform="matrix(-.99219 .12477 -.07518 -.59784 -502.2 415.88)" cx="-260.01" cy="219.21" r="37.016"/><filter id="filter3957"><feGaussianBlur id="feGaussianBlur3959" stdDeviation="5.257"/></filter><filter id="filter3239"><feGaussianBlur id="feGaussianBlur3241" stdDeviation="5.299"/></filter><filter id="filter3249"><feGaussianBlur id="feGaussianBlur3251" stdDeviation="5.257"/></filter><filter id="filter3371"><feGaussianBlur id="feGaussianBlur3373" stdDeviation="1.046"/></filter><linearGradient id="linearGradient2640" y2="332.36" gradientUnits="userSpaceOnUse" x2="-221.36" y1="614.71" x1="-485.71"><stop id="stop3225" offset="0" stop-color="#fff"/><stop id="stop3227" offset="1" stop-color="#fff" stop-opacity="0"/></linearGradient><linearGradient xlink:href="#linearGradient2640" id="linearGradient3163" gradientUnits="userSpaceOnUse" x1="-485.71" y1="614.71" x2="-221.36" y2="332.36"/><linearGradient xlink:href="#linearGradient2640" id="linearGradient3216" gradientUnits="userSpaceOnUse" x1="-485.71" y1="614.71" x2="-221.36" y2="332.36"/></defs><g id="layer1" transform="translate(-278.34 -412.89)"><path id="path3243" d="M-222.857 332.362a262.857 262.857 0 11-525.714 0 262.857 262.857 0 11525.714 0z" transform="translate(832.215 373.788) scale(.72854)" fill="#000" fill-rule="evenodd" filter="url(#filter3249)"/><path id="path3951" d="M-222.857 332.362a262.857 262.857 0 11-525.714 0 262.857 262.857 0 11525.714 0z" transform="translate(832.215 367.752) scale(.72854)" fill="#333" fill-rule="evenodd"/><path id="path3949" d="M-222.857 332.362a262.857 262.857 0 11-525.714 0 262.857 262.857 0 11525.714 0z" transform="translate(807.003 384.274) scale(.67662)" fill="#000" fill-rule="evenodd" filter="url(#filter3957)"/><path id="path2451" d="M-222.857 332.362a262.857 262.857 0 11-525.714 0 262.857 262.857 0 11525.714 0z" transform="translate(796.45 391.498) scale(.6549)" fill="none" stroke="url(#linearGradient3216)" stroke-width="4.141" stroke-linecap="round" filter="url(#filter3239)"/><path id="path2383" d="M-222.857 332.362a262.857 262.857 0 11-525.714 0 262.857 262.857 0 11525.714 0z" transform="translate(796.45 391.498) scale(.6549)" fill="url(#radialGradient3218)" fill-rule="evenodd"/><path d="M477.812 745.338l5.553-139.242h-2.247l2.414-24.205-11.102.002 2.416 24.203h-2.588l5.554 139.241z" id="rect3080" fill="#000" fill-rule="evenodd"/><path d="M574.337 634.377l-99.067-32.184-.617 2.353-16.825-7.112-3.05 11.643 18.151 2.049-.71 2.71 102.118 20.541z" id="path3087" fill="#000" fill-rule="evenodd"/><path id="path2385" d="M473.54 450.322l1.201 21.317h7.25l1.216-21.317h-9.668zm-9.774.66l-4.015.437 2.589 15.808 2.205-.224-.78-16.02zm29.2 0l-.779 16.02 2.206.225 2.589-15.808-4.015-.436zm-45.643 2.404l-3.962.833 4.226 15.465 2.18-.476-2.444-15.822zm62.086 0l-2.43 15.836 2.166.462 4.213-15.452-3.949-.846zm-78.212 4.095l-3.83 1.241 5.798 14.937 2.127-.7-4.095-15.478zm94.325 0l-4.081 15.505 2.126.673 5.798-14.937-3.843-1.241zM415.6 463.239l-3.685 1.65 7.33 14.238 2.047-.911-5.692-14.977zm125.52 0l-5.666 14.99 2.033.911 7.33-14.25-3.698-1.651zm-137.974 5.956l-8.387 4.834 11.702 17.856 6.286-3.619-9.601-19.07zm150.454 0l-9.628 19.071 6.287 3.619 11.701-17.856-8.36-4.834zm-166.963 10.288l-3.262 2.351 10.13 12.415 1.796-1.308-8.664-13.458zm183.445 0l-8.663 13.485 1.809 1.294 10.143-12.401-3.289-2.377zM373.59 489.772l-2.998 2.694 11.358 11.279 1.664-1.48-10.024-12.493zm209.555.013l-10.024 12.48 1.638 1.493 11.397-11.266-3.011-2.707zM361.69 501.381l-2.72 3.01 12.506 10.025 1.493-1.664-11.279-11.371zm233.355 0l-11.28 11.384 1.493 1.651 12.48-10.024-2.693-3.011zm-243.987 12.784l-2.377 3.262 13.471 8.677 1.321-1.822-12.415-10.117zm254.618.026l-12.401 10.117 1.294 1.81 13.484-8.664-2.377-3.263zm-262.45 11.358l-4.833 8.387 19.07 9.615 3.633-6.287-17.87-11.715zm270.269 0l-17.87 11.715 3.633 6.287 19.07-9.615-4.833-8.387zm-279.408 17.143l-1.637 3.711 14.963 5.68.912-2.035-14.238-7.356zm288.547.027l-14.237 7.343.898 2.02 14.977-5.665-1.638-3.698zm-294.701 15.425l-1.242 3.857 15.48 4.068.7-2.114-14.938-5.81zm300.855.014l-14.923 5.824.686 2.113 15.479-4.081-1.242-3.856zM323.415 574.15l-.832 3.95 15.822 2.442.476-2.179-15.466-4.213zm309.89.027l-15.466 4.213.462 2.166 15.835-2.43-.832-3.95zM320.601 590.54l-.41 4.015 15.994.766.238-2.206-15.822-2.575zm315.515.026l-15.822 2.563.238 2.218 15.994-.779-.41-4.002zM319.532 604.33v9.668l21.316-1.202v-7.25l-21.316-1.216zm317.655 0l-21.316 1.215v7.25l21.316 1.203v-9.668zm-301 18.635l-15.994.78.41 4.014 15.821-2.562-.238-2.232zm284.346.027l-.238 2.218 15.822 2.576.41-4.028-15.994-.766zm-282.128 14.765l-15.822 2.43.832 3.962 15.466-4.2-.476-2.192zm279.896.013l-.462 2.193 15.465 4.213.832-3.962-15.835-2.444zM342.17 652.231l-15.479 4.08 1.242 3.831 14.91-5.798-.673-2.113zm272.381.026l-.7 2.113 14.937 5.798 1.242-3.83-15.479-4.08zM347.412 666.23l-14.963 5.68 1.637 3.684 14.238-7.33-.912-2.034zm261.882.014l-.898 2.047 14.237 7.316 1.638-3.671-14.977-5.692zm-251.831 8.531l-19.071 9.615 4.834 8.373 17.869-11.714-3.632-6.274zm241.794 0l-3.632 6.274 17.869 11.714 4.833-8.373-19.07-9.615zM362.15 692.21l-13.484 8.663 2.377 3.276 12.402-10.143-1.295-1.796zm232.417.026l-1.32 1.783 12.4 10.143 2.391-3.262-13.47-8.664zM371.45 703.897l-12.48 10.024 2.707 3.011 11.265-11.371-1.492-1.664zm213.795.026l-1.492 1.651 11.278 11.371 2.708-2.998-12.494-10.024zM381.95 714.542l-11.385 11.292 3.011 2.707 10.024-12.507-1.65-1.492zm192.809.026l-1.651 1.492 10.024 12.494 2.998-2.72-11.371-11.266zm-181.266 9.496l-10.143 12.401 3.288 2.364 8.664-13.458-1.81-1.307zm169.71 0l-1.783 1.32 8.663 13.472 3.262-2.39-10.143-12.402zM406.46 726.44l-11.702 17.843 8.387 4.833 9.601-19.044-6.286-3.632zm143.798 0l-6.287 3.632 9.628 19.044 8.36-4.833-11.701-17.843zm-131.027 12.745l-7.33 14.237 3.698 1.65 5.666-14.976-2.034-.911zm118.242 0l-2.047.911 5.692 14.99 3.672-1.638-7.317-14.263zm-104.335 5.48l-5.798 14.911 3.856 1.255 4.081-15.492-2.14-.673zm90.415 0l-2.14.674 4.108 15.505 3.83-1.241-5.798-14.937zm-48.813 1.995l-1.202 21.33h9.668l-1.215-21.33h-7.251zm-27.167 1.994l-4.213 15.44 3.949.844 2.43-15.835-2.166-.449zm61.558 0l-2.18.45 2.444 15.834 3.962-.845-4.226-15.439zm-46.819 2.443l-2.588 15.81 4.028.422.779-15.994-2.219-.238zm32.067 0l-2.206.238.766 15.994 4.028-.423-2.588-15.809z" fill="#000" fill-rule="evenodd"/><path d="M357.37 618.95c-3.367 0-5.798-.397-7.277-1.216-1.492-.805-2.152-2.086-1.994-3.843v-.396h4.768v.396c0 .977.383 1.717 1.149 2.219.753.502 1.875.753 3.354.753 2.47 0 4.028-.436 4.662-1.295.555-.779.859-2.522.912-5.23-2.113.912-4.359 1.36-6.736 1.36-2.985 0-5.111-.435-6.379-1.307-1.28-.871-1.915-2.337-1.915-4.371v-.727c0-1.98.806-3.46 2.417-4.45 1.598-.978 4.015-1.466 7.25-1.466 3.95 0 6.617.541 7.99 1.624 1.374 1.083 2.061 3.183 2.035 6.287v2.298c-.013 3.684-.727 6.154-2.127 7.448-1.386 1.281-4.094 1.915-8.109 1.915zm5.428-13.723c0-1.426-.356-2.403-1.056-2.918-.7-.529-2.034-.78-3.975-.78-1.81 0-3.104.278-3.87.846-.78.568-1.162 1.518-1.162 2.852v.74c0 1.268.396 2.18 1.188 2.734.78.554 2.06.845 3.844.845 1.65 0 2.892-.317 3.75-.924.846-.608 1.281-1.493 1.281-2.655v-.74z" id="text3054" fill="#000"/><path d="M603.432 604.088c0-.957-.368-1.63-1.086-2.027-.719-.407-1.934-.606-3.628-.606-1.547 0-2.726.246-3.518.739-.81.492-1.178 1.193-1.123 2.093v.568h-4.825v-.568c-.184-1.573.534-2.785 2.173-3.637 1.64-.853 4.088-1.279 7.311-1.279 3.112 0 5.47.36 7.09 1.09 1.602.729 2.413 1.79 2.413 3.191v.55c0 1.629-.7 2.775-2.137 3.447-.791.388-1.952.654-3.462.805 1.62.161 2.836.426 3.61.805 1.326.635 1.989 1.885 1.989 3.732v1.06c0 1.63-.847 2.861-2.542 3.676-1.694.814-4.235 1.221-7.642 1.221-3.113 0-5.47-.435-7.09-1.326-1.64-.88-2.394-2.14-2.284-3.779v-.568h4.77v.568c-.037 1.023.313 1.781 1.068 2.274.737.492 1.897.738 3.462.738 1.879 0 3.26-.265 4.162-.776.884-.521 1.326-1.317 1.326-2.397v-1.051c0-.957-.442-1.705-1.326-2.245-.902-.54-2.155-.805-3.757-.805h-1.418v-2.197h.497c2.081 0 3.592-.218 4.53-.654.958-.435 1.437-1.136 1.437-2.093v-.55z" id="text3058" fill="#000"/><path d="M484.725 476.855c-3.34 0-5.771.397-7.33 1.189-1.558.792-2.245 1.981-2.06 3.579v.581h4.808v-.581c-.04-1.017.277-1.717.937-2.113.674-.396 1.876-.62 3.645-.62 1.374 0 2.483.237 3.329.7.845.475 1.267 1.109 1.267 1.888 0 1.386-1.043 2.971-3.156 4.794-2.1 1.81-5.85 4.319-11.213 7.541v2.325h19.52v-2.074h-14.765c5.322-3.262 8.994-5.745 11.04-7.462 2.26-1.915 3.382-3.645 3.382-5.164 0-1.505-.793-2.641-2.39-3.407-1.599-.793-3.936-1.176-7.014-1.176zm-15.914.198a30.483 30.483 0 01-3.09 1.374 40.13 40.13 0 01-3.474 1.11v2.284c1.876-.502 3.434-.99 4.636-1.44l.95-.37v16.127h4.821v-19.085h-3.843z" id="path3256" fill="#000"/><path d="M478.716 717.143c3.368 0 5.798.41 7.277 1.216 1.48.805 2.153 2.1 1.995 3.856v.396h-4.768v-.396c0-.977-.383-1.717-1.15-2.219-.765-.515-1.875-.766-3.354-.766-2.245 0-3.71.489-4.398 1.466-.594.845-.924 2.496-.977 4.953 2.126-.832 4.438-1.242 6.947-1.242 2.826 0 4.847.436 6.062 1.308 1.215.871 1.822 2.324 1.822 4.371v.727c0 1.98-.832 3.46-2.47 4.437-1.637.99-4.107 1.48-7.382 1.48-3.407 0-5.89-.502-7.462-1.493-1.572-.99-2.364-2.562-2.364-4.715v-2.285c.026-4.582.674-7.58 1.981-8.994 1.281-1.4 4.028-2.1 8.241-2.1zm-5.401 13.723c0 1.44.356 2.416 1.056 2.931.7.516 2.02.78 3.95.78 1.808 0 3.103-.29 3.869-.859.766-.568 1.162-1.519 1.162-2.852v-.727c0-1.268-.396-2.179-1.189-2.734-.792-.568-2.073-.845-3.843-.845-1.638 0-2.88.304-3.724.911-.859.608-1.281 1.493-1.281 2.668v.727z" id="text3050" fill="#000"/><path d="M410.581 493.826a29.964 29.964 0 01-3.103 1.4c-.912.344-2.06.7-3.474 1.083v2.285c1.889-.489 3.434-.964 4.65-1.413l.95-.37v16.126h4.807v-19.11h-3.83zm16.166 0a29.734 29.734 0 01-3.078 1.4c-.91.344-2.073.7-3.473 1.083v2.285c1.875-.489 3.407-.964 4.623-1.413l.95-.37v16.126h4.834v-19.11h-3.856z" id="path3310" fill="#000"/><path d="M383.19 537.898c-3.341 0-5.785.423-7.396 1.255-1.611.832-2.417 2.126-2.417 3.856v9.007c0 1.744.845 3.104 2.55 4.042 1.703.95 4.12 1.426 7.263 1.426 3.21 0 5.68-.475 7.356-1.4 1.664-.938 2.496-2.285 2.496-4.068v-9.007c0-1.81-.766-3.117-2.31-3.922-1.546-.793-4.069-1.189-7.542-1.189zm-15.677.198a29.734 29.734 0 01-3.077 1.4c-.911.343-2.073.7-3.473 1.083v2.285c1.875-.502 3.433-.964 4.635-1.426l.938-.383v16.152h4.834v-19.11h-3.857zm15.677 1.902c1.77 0 3.064.238 3.856.7.793.475 1.19 1.241 1.19 2.311v9.007c0 1.083-.424 1.915-1.282 2.483-.845.555-2.113.82-3.764.82-1.704 0-2.958-.265-3.777-.807-.819-.541-1.228-1.373-1.228-2.496v-9.007c0-1.122.383-1.915 1.122-2.35.74-.45 2.02-.661 3.883-.661z" id="path3318" fill="#000"/><path d="M380.085 670.605c1.62.18 2.818.484 3.591.9 1.326.739 2.007 2.15 2.007 4.243v-.407c0 1.733-.865 3.088-2.596 4.073-1.731.975-4.144 1.468-7.2 1.468-3.316 0-5.784-.455-7.386-1.354-1.583-.91-2.394-2.302-2.394-4.187v.407c0-1.96.737-3.343 2.21-4.148.92-.493 2.228-.833 3.96-1.013-1.4-.2-2.523-.502-3.37-.92-1.474-.738-2.21-1.912-2.21-3.523v.38c0-1.668.791-2.956 2.412-3.865 1.602-.91 3.886-1.364 6.85-1.364 3.223 0 5.58.417 7.072 1.26 1.474.833 2.229 2.16 2.229 3.968v-.379c0 1.61-.682 2.785-2.026 3.533-.792.436-1.842.74-3.15.928zm-4.125-1.07c1.528 0 2.652-.274 3.388-.814.718-.54 1.087-1.383 1.087-2.51v.379c0-1.137-.35-1.952-1.05-2.453-.7-.502-1.842-.758-3.425-.758-1.474 0-2.578.274-3.334.814-.736.53-1.123 1.336-1.123 2.397v-.38c0 1.128.368 1.97 1.105 2.51.718.54 1.842.815 3.352.815zm-.074 2.131c-1.805 0-3.075.284-3.83.853-.756.559-1.124 1.506-1.124 2.822v-.407c0 1.459.35 2.462 1.031 2.993.7.53 2.008.795 3.923.795 1.786 0 3.057-.284 3.83-.87.756-.579 1.142-1.554 1.142-2.918v.407c0-1.42-.35-2.387-1.05-2.898-.68-.512-1.988-.777-3.922-.777z" id="text3283" fill="#000"/><path d="M411.373 721.353l12.431-17.02h-14.272v-2.093h18.563v2.093l-11.013 17.02h-5.709z" id="text3287" fill="#000"/><path d="M548.295 715.945c0 2.15-.7 3.675-2.118 4.556-1.4.88-3.849 1.316-7.292 1.316-3.426 0-5.82-.322-7.164-.956-1.344-.644-2.081-1.819-2.247-3.514v-.568h4.77v.568c.11.805.479 1.392 1.142 1.771.663.37 1.657.559 2.983.559 2.044 0 3.407-.275 4.107-.834.718-.549 1.068-1.629 1.068-3.239v-1.279c0-1.193-.332-2.036-.976-2.51-.626-.473-1.768-.71-3.407-.71-1.565 0-2.726.218-3.48.644-.774.426-1.124 1.07-1.106 1.932h-4.917l.35-11.252h17.366v2.15h-12.983l-.184 6.081c.829-.426 1.51-.739 2.063-.947 1.233-.464 2.725-.692 4.493-.692 2.818 0 4.77.417 5.875 1.241 1.105.824 1.657 2.292 1.657 4.404v1.28z" id="text3291" fill="#000"/><path d="M582.899 673.513H569.51v-1.97l11.529-12.445h6.684v12.332h4.273v2.083h-4.273v4.689H582.9v-4.689zm0-2.084v-9.963l-9.135 9.963h9.135z" id="text3295" fill="#000"/><path d="M591.204 541.671c0 1.516-1.123 3.23-3.388 5.153-2.045 1.724-5.71 4.205-11.032 7.463h14.77v2.084h-19.502v-2.321c5.34-3.23 9.079-5.749 11.178-7.558 2.118-1.818 3.168-3.419 3.168-4.792 0-.777-.424-1.402-1.271-1.876-.847-.464-1.952-.7-3.315-.7-1.768 0-3.002.198-3.665.606-.663.397-.976 1.108-.92 2.13v.569h-4.807v-.568c-.203-1.6.479-2.794 2.044-3.59 1.565-.796 4.015-1.193 7.348-1.193 3.075 0 5.414.397 6.998 1.174 1.602.777 2.394 1.923 2.394 3.42z" id="text3299" fill="#000"/><path d="M539.51 511.978v-16.13l-.957.36c-1.197.455-2.744.929-4.622 1.421v-2.282c1.4-.38 2.56-.74 3.462-1.09a28.9 28.9 0 003.094-1.392h3.83v19.113h-4.806z" id="text3303" fill="#000"/><path transform="matrix(.14492 -.02618 .02618 .14492 508.035 560.296)" d="M-204.824 291.651a52.32 52.32 0 11-104.638 0 52.32 52.32 0 11104.638 0z" id="path3365" opacity=".8" fill="#000" fill-rule="evenodd" filter="url(#filter3371)"/><path transform="matrix(.14492 -.02618 .02618 .14492 507.943 560.017)" d="M-204.824 291.651a52.32 52.32 0 11-104.638 0 52.32 52.32 0 11104.638 0z" id="path3338" fill="#000" fill-rule="evenodd"/><path transform="matrix(.12561 -.0227 .0227 .12561 504.218 567)" d="M-204.824 291.651a52.32 52.32 0 11-104.638 0 52.32 52.32 0 11104.638 0z" id="path3340" fill="url(#radialGradient3257)" fill-rule="evenodd"/><path transform="translate(465.01 500.05) scale(.2172)" d="M-257.156 243.625c-17.159 0-32.073 9.028-40.563 22.531 11.165-10.63 26.221-17.187 42.813-17.187 11.38 0 22.033 3.107 31.219 8.469-8.653-8.47-20.39-13.813-33.47-13.813z" id="path3355" opacity=".8" fill="url(#radialGradient3259)" fill-rule="evenodd"/></g></svg>