<svg xmlns="http://www.w3.org/2000/svg" id="svg2" version="1.1" viewBox="0 0 492.059 468.585"><defs id="defs4"><radialGradient id="radialGradient4217" gradientUnits="userSpaceOnUse" cy="695.85" cx="404.2" gradientTransform="matrix(.2947 .25819 -.94651 1.0803 860.76 -235.49)" r="39.25"><stop id="stop4209" offset="0" stop-color="#e9ffd3"/><stop id="stop4211" offset="1" stop-color="#e9ffd3" stop-opacity="0"/></radialGradient><linearGradient id="linearGradient4295" y2="690.36" gradientUnits="userSpaceOnUse" x2="357" gradientTransform="matrix(1.3402 0 0 1.6242 -130.39 -440.02)" y1="1192.9" x1="268"><stop id="stop4287" offset="0" stop-color="#6dae54"/><stop id="stop4289" offset="1" stop-color="#6dae54" stop-opacity="0"/></linearGradient><filter id="filter4227" height="1.129" width="1.151" color-interpolation-filters="sRGB" y="-.065" x="-.075"><feGaussianBlur id="feGaussianBlur4229" stdDeviation="2.465"/></filter></defs><g id="layer1" transform="translate(-7.283 -560.36)" fill-rule="evenodd"><path id="path4162" d="M65.272 1025.6c47.538 7.92 87.482-3.417 127.99-21.115 72.766-31.795 137.95-88.077 197-148.62 35.038-35.919 73.593-73.671 91.131-125.07 14.026-41.102 27.026-96.154 6.7-133.19-16.51-30.082-54.791-39.608-84.43-35.733-36.487 4.77-64.554 42.991-93.811 69.843-31.503 28.913-55.617 68.526-87.111 97.455-38.041 34.943-84.783 54.667-121.96 90.958-32.108 31.347-68.09 63.093-85.771 108.01-7.35 18.671-7.425 46.099-6.701 51.164 3.722 26.032 35.802 42.767 56.957 46.291z" stroke="#000" stroke-width="1.475" fill="#1e7908"/><path id="path4189" d="M317.89 707.29c16.719-20.93 39.535-73.091 39.535-73.091l21.443 29.236s-150.15 187.81-235.87 266.38c-34.372 31.504-49.563 76.796-110.56 81.212-14.939 1.081-8.122-40.089 0-54.412 17.56-30.966 50.063-47.773 75.719-70.655 68.828-61.383 150.3-104.26 209.74-178.67z" fill="url(#linearGradient4295)"/><path id="path4164" d="M33.108 1003.7s9.254-19.379 15.412-27.612c48.153-64.379 109.69-111.95 165.51-166.49 33.568-32.798 68.575-63.413 101.85-96.643 10.265-10.251 30.154-31.673 30.154-31.673s-75.722 71.474-114.58 105.58c-36.032 31.618-73.777 60.294-109.89 91.77-12.694 11.063-26.03 21.263-37.525 34.109-19.077 21.321-39.895 42.583-51.596 70.655-2.884 6.92-4.02 22.739-4.02 22.739z" fill="#6dae2c"/><path id="path4164-6" d="M26.381 998.59s-1.537-31.167 2.994-45.277c14.31-44.564 44.923-79.277 72.793-113.13 18.84-22.881 41.336-40.927 62.99-59.798 14.408-12.554 44.46-35.478 44.46-35.478s-66.08 46.338-95.91 74.948c-20.183 19.359-39.151 40.939-55.637 64.897-12.368 17.974-25.053 36.684-32.024 58.511-4.28 13.398-5.958 28.246-5.42 42.598.189 5.025 3.006 14.643 3.006 14.643z" fill="#6dae2c"/><path id="path4181" d="M33.108 1006.1s61.454-30.369 91.801-46.291c13.518-7.092 27.051-14.182 40.205-21.927 14.813-8.722 29.186-18.176 43.555-27.612 27.77-18.236 56.61-35.119 82.42-56.036 18.523-15.012 51.596-49.539 51.596-49.539l11.391-13.806s-26.101 25.531-40.412 36.809c-39.534 31.154-82.046 58.472-124.97 84.767-11.628 7.124-24.486 12.176-35.838 19.733-10.143 6.752-18.296 16.271-28.623 22.739-23.31 14.602-51.617 20.291-74.379 35.733-6.282 4.262-16.752 15.43-16.752 15.43z" fill="#6dae2c"/><path id="path4183" d="M35.118 1011.8s49.978 3.587 74.379-.812c34.58-6.235 67.521-20.473 99.172-35.733 26.476-12.765 75.049-46.291 75.049-46.291s-49.222 30.693-75.719 42.23c-32.283 14.057-65.826 26.435-100.51 32.485-16.292 2.841-33.076.664-49.586 1.624-6.49.377-19.432 1.624-19.432 1.624z" fill="#6dae2c"/><path id="path4185" d="M305.16 749.52s22.167-18.749 32.164-29.236c8.233-8.637 22.783-27.612 22.783-27.612s-18.624 18.014-28.143 26.8c-9.25 8.537-18.089 16.601-28.143 25.176-1.282 1.093 1.34 4.873 1.34 4.873z" fill="#6dae2c"/><path id="path4187" d="M292 662.86l36-20.5 31-54-11.5-16s-10.456 8.525-15.5 13c-13.847 12.286-30.065 22.71-40.5 38-5.565 8.155-11 27.5-11 27.5v13z" transform="matrix(1.3402 0 0 1.6242 -2.406 -349.87)" filter="url(#filter4227)" fill="url(#radialGradient4217)"/></g></svg>