<svg xmlns="http://www.w3.org/2000/svg" id="0" viewBox="0 0 149.32 185.28" version="1.0"><g id="1" transform="translate(-4.202 -4.202)" stroke-linejoin="round" stroke="#000" stroke-linecap="round"><path id="2" d="M62.483 168.98l-1.9-.42-.929-.63-.507-1.48-.211-1.44.085-1.18.844-2.62-.211-1.98-.887-3.04-1.097-2.28-.887-2.03-.549-2.32-.042-1.9.591-2.28 1.056-1.99 1.097-1.6.929-2.2.422-1.81-.042-2.15-.507-2.41-.844-1.27-1.858-2.24-.168-.76.084-1.39.253-1.01 1.014-1.65h42.131l.04 1.18.98 1.86.71 2.58.05 1.85-.6 3.34-2.107 5.87-.464 2.19v1.27l1.051 4.35.47 1.65 1.1 2.11.55 2.32-.05 1.69-.67 2.83-1.565 4.09-.802 4.35-.591.43-1.055.08-34.914.04z" fill-rule="evenodd" stroke-width="1.266" fill="silver"/><path id="3" d="M63.58 168.98l7.304 7.35h17.309l7.304-7.35H63.58z" fill-rule="evenodd" stroke-width="1.266" fill="#000"/><path id="4" d="M100.18 124.9H58.219l-.38-3-.718-3.38-1.689-4.77-2.364-4.56-4.433-7.6-5.404-10.343-1.435-3.547-1.013-4.18-.423-3.336-.084-3.842.422-4.054.676-3.589 1.182-3.927 1.942-4.349 2.448-4.138 2.702-3.673 3.335-3.674 3.125-2.575 3.377-2.154 4.728-2.238 4.518-1.604 3.884-.929 3.673-.423h3.968l5.151.507 5.15 1.014 4.307 1.477 3.504 1.816 4.392 3.04 4.09 3.547 2.66 2.871 2.45 3.209 2.07 3.547 1.86 4.138 1.1 3.336.8 3.758.34 3.716-.09 4.264-.59 4.476-1.1 4.603-1.18 3.673-5.74 9.463-4.98 8.9-1.78 4.06-1.56 5.07-.84 4.56-.09.84z" fill-rule="evenodd" stroke-width="1.266" fill="#ff0"/><path id="5" d="M58.219 131.15l42.171 7.73" stroke-width="1.266" fill="none"/><path id="6" d="M58.345 142.97l42.175 7.73" stroke-width="1.266" fill="none"/><path id="7" d="M58.345 154.8l42.175 7.76" stroke-width="1.266" fill="none"/><path id="8" d="M134.46 189.42v-.21" stroke-width=".042" fill="none"/><path id="9" d="M68.351 124.77L62.06 82.465l.085-4.265.38-2.66.675-1.9.76-1.014 1.056-.549.548-.126 1.478.084 1.351.633.844.929.676 1.647.76 4.265.338 4.645-.085 2.702-.506 1.182-.76.549-.38.127-.887-.085-.887-.549-.633-1.182-.844-3.505-.338-2.575.042-2.365.549-1.858 1.224-2.069 2.449-2.618 1.858-1.266 1.097-.211 1.267.464 1.266 1.14 1.351 2.111.845 2.618.802 4.729.127 2.365-.254 1.984-.464 1.014-.929.549-1.224.126-1.056-.422-.591-.844-.464-2.154-.676-7.009.127-2.069.549-1.351 1.14-1.182 2.111-1.267 2.786-1.014.802-.126 1.351.084 1.14.591 1.393 1.774 1.393 2.955.634 2.745.126 2.534-.337 3.378-.549 1.815-.507.76-1.013.507-.887.042-.76-.211-.675-.718-.591-1.773-.38-3.505v-4.602l.295-2.28.634-1.394 1.097-.929 1.605-.549 1.266-.042 1.351.38 1.182.887.887 1.604.38 1.816.042 1.604-4.771 47.414" stroke-width="1.266" fill="none"/><path id="10" d="M4.264 76.469h22.755v3.462H4.264v-3.462z" fill-rule="evenodd" stroke-width=".042" fill="#ff0"/><path id="11" d="M130.66 76.258h22.8v3.462h-22.8v-3.462z" fill-rule="evenodd" stroke-width=".042" fill="#ff0"/><path id="12" d="M80.425 4.265h-3.462v22.759h3.462V4.264z" fill-rule="evenodd" stroke-width=".042" fill="#ff0"/><path id="13" d="M26.302 24.448l-2.491 2.449 16.127 16.172 2.449-2.491-16.085-16.13z" fill-rule="evenodd" stroke-width=".042" fill="#ff0"/><path id="14" d="M131.17 26.897l-2.45-2.449-16.12 16.13 2.44 2.491 16.13-16.172z" fill-rule="evenodd" stroke-width=".042" fill="#ff0"/><path id="15" d="M124.59 104.89l-2.45 2.49 16.08 16.13 2.49-2.49-16.12-16.13z" fill-rule="evenodd" stroke-width=".042" fill="#ff0"/><path id="16" d="M37.405 109.11l-2.449-2.45-16.127 16.09 2.491 2.49 16.085-16.13z" fill-rule="evenodd" stroke-width=".042" fill="#ff0"/></g></svg>