<svg id="svg15024" xmlns="http://www.w3.org/2000/svg" height="289.01mm" width="307.37mm" version="1.1" viewBox="0 0 1089.114 1024.066"><g id="layer1" transform="translate(-1127.8 -4.358)"><g id="g18464" transform="rotate(15.121 1671.69 566.59)"><path id="rect18461" d="M1638.2.87c-3.662 0-6.981 1.687-9.613 4.148a184.839 184.839 0 01.017.003c-27.41-1.487-55.878 2.976-83.059 16.365-60.799 29.985-108.78 83.516-111.67 148.66-1.144 25.664-3.46 54.504 2.405 82.143v.01l-304.36 392.45c-2.982 5.578 1.55 12.307 4.312 19.904-.277-.808-.22-.646.567 1.62l75.877 219.45c27.108-.001 27.094.017 0 .017l81.97 237.07a14.376 14.376 0 0013.534 9.615 14.1 14.1 0 003.576-.459l890.07-230.12c6.666-1.716 11.187-7.954 10.672-14.85l-.086-1.26c-891.54-34.642-650.63-.027.025-.027l-39.1-552.34c-101.8-269.92-356.9-326.29-535.2-332.43z" fill="#ffd5d5"/><path id="path13554" d="M2167.6 657.04c-27.066 20.228-32.961 62.83-64.262 70.068-36.05 8.297-65.176-44.375-109.52-33.273-44.376 11.073-51.3 70.698-95.676 84.574-44.376 13.848-92.872-30.528-127.55-18.025-34.648 12.474-49.898 56.822-108.15 72.072-58.224 15.25-102.57-23.547-134.47-16.623-24.548 5.322-65.406 47.436-92.443 69.781h254.61l484.56-128.21-7.096-100.37zm-732.1 228.61c-8.068 6.666-15.05 11.786-19.828 13.389-20.8 6.924-77.651-2.773-105.38 6.926-20.514 7.181-34.962 26.494-47.236 37.88l17.367 50.214 409.68-108.41h-254.61z" fill="#f1a9a0"/><path id="path13558" d="M2146 352.07l-980.65 309.34 48.639 140.65c28.325-9.785 41.687-36.909 68.066-44.434 30.385-8.698 56.422 13.018 99.854 0 43.403-13.018 43.402-52.1 86.834-69.467s73.817 43.402 125.92 21.715c52.101-21.716 60.771-69.467 104.2-82.514 43.403-13.018 72.042 35.219 128.49 22.201 56.45-13.047 40.828-61.257 101.63-82.973 60.77-21.716 76.592 33.504 124.37 20.486 43.518-11.874 56.935-70.899 102.97-88.752l-10.3-146.26zm28.615 405.33l-484.56 128.23h459.72l33.275-8.611-8.44-119.62zm-484.57 128.25l-409.68 108.41 36.938 106.8 832.47-215.21h-459.72z" fill="#b08174"/><path id="path13578" d="M1721.7 34.795c128.49 16.223 317.44 77.794 413.66 290.66l-952.81 300.56 265.17-341.9c15.936 29.641 47.523 55.563 109.35 71.185 90.326 22.832 146.78-4.377 179.48-36.794l23.433 11.301c2.003.973 4.12 1.43 6.209 1.43 5.321 0 10.414-2.975 12.875-8.068 3.433-7.124.457-15.679-6.667-19.112l-16.823-8.125c6.495-9.47 11.187-18.54 14.248-26.036 4.921-12.074 8.984-27.41 11.988-44.347 1.574.6 3.062 1.487 4.807 1.487 1.602 0 3.262-.286 4.864-.858l32.788-11.93c7.439-2.69 11.273-10.902 8.555-18.34-2.69-7.411-10.93-11.217-18.34-8.556l-29.098 10.615c2.632-31.673.858-66.607-8.326-98.852-6.552-22.889-27.095-46.436-55.363-64.318" fill="#fff"/><path id="path13638" d="M1436.2 252.19c-5.865-27.638-3.548-56.479-2.403-82.143 2.89-65.148 50.87-118.68 111.67-148.66 27.18-13.39 55.649-17.853 83.058-16.366 34.39 1.888 67.065 13.304 93.13 29.784 28.296 17.882 48.81 41.429 55.363 64.318 9.212 32.216 10.958 67.179 8.326 98.823a305.384 305.384 0 01-3.577 27.581c-2.975 16.938-7.067 32.302-11.988 44.376-3.061 7.496-7.754 16.537-14.248 26.008-5.121 7.467-11.502 15.135-18.998 22.603-32.73 32.388-89.152 59.597-179.51 36.765-61.829-15.622-93.416-41.515-109.35-71.185-5.522-10.271-9.155-20.972-11.473-31.901" fill="#e26a6a"/><path id="path13642" d="M1550.4 137.29c13.218 0 25.693-2.718 36.594-8.211 15.135-7.611 34.934-24.434 43.346-61.314 1.774-7.725-3.033-15.393-10.758-17.138-7.696-1.832-15.364 3.061-17.11 10.758-4.778 20.915-14.306 35.077-28.325 42.144-15.536 7.782-37.023 6.78-58.825-2.833-7.153-3.147-15.65.115-18.855 7.325-3.176 7.21.086 15.65 7.324 18.855 15.736 6.923 31.673 10.414 46.608 10.414" fill="#f1a9a0"/><path id="path13562" d="M1638.2.87c-3.662 0-6.981 1.687-9.613 4.148 34.419 1.888 67.093 13.334 93.158 29.785 128.49 16.194 317.44 77.765 413.66 290.63l-952.81 300.56 265.17-341.9c-5.522-10.271-9.155-20.971-11.473-31.9l-304.37 392.46c-3.191 5.968 2.223 13.256 4.865 21.516-1.155-3.358-1.146-3.33.014.008l75.877 219.45h30.299l-28.896-83.543-48.64-140.65v-.012l980.64-309.34-1.173-16.766a14.204 14.204 0 01.723-5.631 14.203 14.203 0 00-.719 5.627l1.172 16.766 10.328 146.23 11.217 158.73 7.066 100.37 8.442 119.62-33.275 8.584h62.572l-38.996-552.31c-101.8-269.92-356.9-326.29-535.2-332.43zm204.2 100.92c-6.669-.136-12.658 4.502-14.135 11.286-1.688 7.697 3.175 15.335 10.9 17.023l31.473 6.897c1.03.229 2.06.343 3.09.343 6.552 0 12.474-4.549 13.934-11.244 1.688-7.725-3.177-15.335-10.902-17.023l-31.471-6.925a14.234 14.234 0 00-2.889-.358zm79.06 40.167c-6.125-.041-11.752 3.941-13.658 10.078l-8.67 27.84c-2.375 7.554 1.831 15.564 9.385 17.91 1.43.458 2.862.658 4.264.658 6.094 0 11.758-3.92 13.646-10.043l8.699-27.838c2.346-7.553-1.86-15.566-9.385-17.912a14.209 14.209 0 00-4.281-.693zm-102.7 44.572a14.32 14.32 0 00-4.21.848l-29.128 10.586a306.734 306.734 0 01-3.576 27.582c1.602.6 3.09 1.486 4.807 1.486 1.63 0 3.29-.256 4.892-.857l32.787-11.932c7.41-2.69 11.245-10.901 8.527-18.34-2.185-6.021-8.015-9.662-14.1-9.373zm48.428 11.883a14.25 14.25 0 00-6.832 1.754c-6.952 3.805-9.5 12.475-5.723 19.428l6.524 11.93c2.575 4.75 7.496 7.469 12.56 7.469 2.317 0 4.663-.573 6.838-1.746 6.952-3.806 9.499-12.475 5.722-19.428l-6.523-11.93a14.299 14.299 0 00-12.566-7.477zm81.41 30.416c-7.897 0-14.307 6.41-14.307 14.307v31.471c0 7.897 6.41 14.307 14.307 14.307s14.305-6.41 14.305-14.307v-31.47c0-7.898-6.408-14.308-14.305-14.308zm-98.024 58.637c-6.07-.288-11.946 3.315-14.178 9.336-2.718 7.41 1.06 15.621 8.498 18.367l20.6 7.582c1.631.6 3.318.889 4.95.889 5.836 0 11.3-3.578 13.417-9.358 2.747-7.41-1.058-15.62-8.469-18.367l-20.629-7.611a14.28 14.28 0 00-4.189-.838zm-94.959 8.47c-5.093 7.44-11.502 15.136-18.998 22.575l23.404 11.3a14.162 14.162 0 006.207 1.432 14.331 14.331 0 0012.904-8.097c3.433-7.096.458-15.651-6.666-19.084zm393.7 27.99zm-2.541 3.231zm-517.3 54.717c-7.897 0-14.307 6.408-14.307 14.305v31.473c0 7.897 6.41 14.307 14.307 14.307s14.305-6.41 14.305-14.307v-31.473c0-7.896-6.408-14.305-14.305-14.305zm-98.193.01a14.361 14.361 0 00-10.285 3.77c-5.808 5.379-6.151 14.42-.8 20.229l13.017 14.105a14.219 14.219 0 0010.5 4.605c3.49 0 6.981-1.257 9.7-3.775 5.807-5.379 6.18-14.42.83-20.23l-13.019-14.104a14.185 14.185 0 00-9.943-4.6zm-104.95.018c-6.622.139-12.569 4.798-13.871 11.582l-5.436 28.21c-1.487 7.755 3.606 15.279 11.36 16.767.915.172 1.83.258 2.716.258 6.724 0 12.704-4.777 14.05-11.615l5.407-28.24c1.488-7.754-3.605-15.251-11.359-16.738a14.568 14.568 0 00-2.867-.223zm73.354 39.049c-2.305.099-4.62.758-6.738 2.037l-21.688 13.02c-6.781 4.063-8.983 12.846-4.92 19.627a14.359 14.359 0 0012.303 6.953c2.489 0 5.035-.658 7.324-2.06l21.717-13.018c6.752-4.063 8.953-12.848 4.89-19.63a14.323 14.323 0 00-12.888-6.93zm-287 464.69l81.971 237.07a14.376 14.376 0 0013.533 9.615 14.1 14.1 0 003.576-.459l890.07-230.12c6.667-1.716 11.187-7.954 10.672-14.85l-.086-1.26h-62.545l-832.47 215.21-36.938-106.78-17.367-50.213-20.113-58.225z" fill="#6e4c3d"/></g></g></svg>