<svg xmlns="http://www.w3.org/2000/svg" id="svg2" viewBox="0 0 230 300" version="1.1"><g id="layer1" transform="translate(0 -752.36)"><g id="g4076"><path id="rect2993" stroke-linejoin="round" stroke="#000" stroke-linecap="round" stroke-width="3.543" fill="#8e1818" d="M13.281 767.84l197.957-5.363 7.204 265.941-197.957 5.363z"/><path id="rect2993-3-8-1" stroke-linejoin="round" d="M13.281 768.1l193.96.138 7.205 265.94-193.96-.138z" stroke="#c3c3c3" stroke-linecap="round" fill="#fff"/><path id="rect2993-3-8-0" stroke-linejoin="round" d="M12.281 769.6l192.46.21 7.562 265.94-192.81-.21z" stroke="#c3c3c3" stroke-linecap="round" fill="#fff"/><path id="rect2993-3-8" stroke-linejoin="round" d="M11.281 770.1l190.96 1.138 7.205 265.94-190.96-1.138z" stroke="#c3c3c3" stroke-linecap="round" fill="#fff"/><path id="rect2993-3" stroke-linejoin="round" d="M12.179 767.37l186.88 2.639 7.205 269.87-189.03-4.567z" stroke="#000" stroke-linecap="round" stroke-width="3.543" fill="#c62020"/><path id="rect3825" stroke-linejoin="round" d="M77.624 803.51c17.753.167 34.791.333 53.258-.214 21.798-.143 26.517-3.667 27.004 17.949l.75 33.255c1.46 19.352-6.96 16.489-26.129 16.127-18.859-.264-36.645-.428-53.365-.286-21.544-.049-25.996.522-26.647-17.592l-1-32.755c-.947-19.18 7.17-16.663 26.129-16.485z" stroke="#696969" stroke-linecap="round" stroke-width="2" fill="#fff"/><path id="path3830" stroke="#000" stroke-width="1" fill="none" d="M64.711 824.98l80.656.643"/><path id="path3832" stroke="#000" stroke-width="1" fill="none" d="M64.068 840.06l80.798.572"/><path id="path3834" stroke="#000" stroke-width="1" fill="none" d="M64.64 853.91l80.726.715"/></g></g></svg>