<svg xmlns="http://www.w3.org/2000/svg" id="svg2" viewBox="0 0 1200 600" version="1.0"><g id="layer1" transform="translate(291.69 -58.79)"><g id="g1994" transform="translate(489.14 -170.87) scale(.87619)"><path id="path1987" d="M-803.12 604.5v-300h1200v600h-1200v-300zm1157-1.5V343.5h-1117v519h1117V603z" fill="#505d77"/><path id="path1985" d="M-803.12 604.5v-300h1200v600h-1200v-300zm20.47 294.75c.28-1.23.63-4.5.77-7.25l.26-5h23l.5 7 .5 7h25l.31-5.96c.17-3.28.79-6.54 1.37-7.25.74-.9 4.21-1.29 11.41-1.29 8.84 0 10.47.26 11.24 1.75.5.97.69 2.34.43 3.07-.25.72-.17 3.31.2 5.75l.67 4.43h12.42c14.09 0 13.16.65 13.69-9.5l.26-5h23l.5 7 .5 7h25l.5-7 .5-7h23l.5 7 .5 7 12.73.28c14.47.32 13.48.98 14.01-9.28l.26-5 10.36-.28c6.77-.19 10.83.11 11.75.87.93.77 1.39 3.3 1.39 7.57v6.4l12.75-.28 12.75-.28.5-7 .5-7h23l.5 7 .5 7 12.75.28 12.75.28v-6.4c0-4.27.47-6.8 1.4-7.57.91-.76 4.97-1.06 11.75-.87l10.35.28.26 5c.53 10.15-.4 9.5 13.74 9.5s13.21.65 13.74-9.5l.26-5 10.36-.28c6.77-.19 10.83.11 11.75.87.93.77 1.39 3.3 1.39 7.57v6.4l12.75-.28 12.75-.28.5-7 .5-7h23l.26 5c.53 10.15-.4 9.5 13.74 9.5s13.21.65 13.74-9.5l.26-5 10.36-.28c6.58-.18 10.84.12 11.7.83.8.66 1.47 3.66 1.65 7.29l.29 6.16h25l.5-7 .5-7h23l.5 7 .5 7h25l.31-5.96c.17-3.28.79-6.54 1.37-7.25 1.43-1.73 20.91-1.8 22.62-.09.68.68 1.2 3.94 1.2 7.53v6.33l12.75-.28 12.75-.28.5-7 .5-7h23l.5 7 .5 7 12.75.28 12.75.28v-6.4c0-4.27.47-6.8 1.4-7.57.91-.76 4.97-1.06 11.75-.87l10.35.28.26 5c.54 10.26-.45 9.6 14.02 9.28l12.723-.28.5-7 .5-7h23l.5 7 .5 7h25l.296-6.16c.174-3.63.851-6.63 1.646-7.29.859-.71 5.117-1.01 11.704-.83l10.354.28.5 7 .5 7 12.724.28c14.47.32 13.48.98 14.015-9.28l.261-5 10.354-.28c6.587-.18 10.845.12 11.705.83.794.66 1.472 3.66 1.646 7.29l.295 6.16h25l.5-7 .5-7h23l.5 7 .5 7 12.747.28 12.75.28v-6.4c0-4.27.47-6.8 1.4-7.57.91-.76 4.97-1.06 11.75-.87l10.35.28.26 5c.54 10.26-.45 9.6 14.02 9.28l12.72-.28.5-7 .5-7 10.36-.28c6.58-.18 10.84.12 11.7.83.8.66 1.47 3.66 1.65 7.29l.29 6.16h25l.5-7 .5-7h23l.26 5c.53 10.15-.4 9.5 13.74 9.5s13.21.65 13.74-9.5l.26-5h23l.5 7 .5 7h25l.5-7 .5-7h23l.26 5c.54 10.26-.45 9.6 14.02 9.28l12.72-.28.5-7 .5-7 7.5-.5 7.5-.5v-24l-7.5-.5-7.5-.5v-23l7.5-.5 7.5-.5.28-12.2.28-12.21-7.78-.29-7.78-.3-.28-11.25-.28-11.25 6.78-.01c3.73-.01 7.36-.38 8.07-.83.95-.61 1.21-3.87 1-12.74l-.29-11.92-7.5-.5-7.5-.5v-23l7.5-.5 7.5-.5.28-12.25.28-12.25-6.78-.01c-3.73-.01-7.36-.38-8.06-.83-.95-.6-1.21-3.67-1-11.74l.28-10.92 7.5-.5 7.5-.5v-24l-7.5-.5-7.5-.5-.28-11.25-.28-11.25 5.78-.01c10.84-.02 10.38.58 10.06-13.36l-.28-12.13-7.5-.5-7.5-.5v-23l7.5-.5 7.5-.5.28-12.25.28-12.25-6.78-.01c-3.73-.01-7.36-.38-8.06-.83-.95-.6-1.21-3.67-1-11.74l.28-10.92 7.5-.5 7.5-.5v-24l-7.5-.5-7.5-.5-.28-10.91c-.21-8.07.05-11.14 1-11.74.7-.45 4.33-.82 8.06-.83l6.78-.02-.28-12.25-.28-12.25-7.5-.5-7.5-.5v-23l7.5-.5 7.5-.5.28-12.25.28-12.25-6.78-.01c-3.73-.01-7.36-.38-8.06-.83-.95-.6-1.21-3.67-1-11.74l.28-10.92 7.78-.29 7.78-.29-.28-12.21-.28-12.21-7.5-.5-7.5-.5-.28-10.91c-.21-8.07.05-11.14 1-11.74.7-.45 4.33-.82 8.06-.83l6.78-.02-.28-12.25-.28-12.25-7.5-.5-7.5-.5-.5-7-.5-7-12.72-.28c-14.47-.31-13.48-.97-14.02 9.28l-.26 5h-23l-.5-7-.5-7h-25l-.5 7-.5 7h-23l-.26-5c-.53-10.14.4-9.5-13.74-9.5s-13.21-.64-13.74 9.5l-.26 5h-23l-.5-7-.5-7h-25l-.5 7-.5 7h-23l-.5-7-.5-7-12.72-.28c-14.47-.31-13.48-.97-14.02 9.28l-.26 5-10.92.29c-8.06.21-11.13-.05-11.73-1-.45-.71-.82-4.11-.83-7.57l-.02-6.28-12.75.28-12.747.28-.5 7-.5 7h-23l-.5-7-.5-7h-25l-.295 6.17c-.174 3.63-.852 6.63-1.646 7.29-.86.71-5.118 1.01-11.705.83L25.383 322l-.26-5c-.537-10.25.453-9.59-14.016-9.28l-12.724.28-.5 7-.5 7h-23l-.5-7-.5-7h-25l-.5 7-.5 7h-23l-.5-7-.5-7-12.723-.28c-14.47-.31-13.48-.97-14.02 9.28l-.26 5-10.35.29c-6.78.19-10.84-.11-11.75-.87-.93-.77-1.4-3.3-1.4-7.57v-6.41l-12.75.28-12.75.28-.5 7-.5 7h-23l-.5-7-.5-7-12.75-.28-12.75-.28v6.33c0 3.59-.52 6.85-1.2 7.53-1.71 1.72-21.19 1.64-22.62-.08-.58-.71-1.2-3.97-1.37-7.25l-.31-5.97h-25l-.5 7-.5 7h-23l-.5-7-.5-7h-25l-.29 6.17c-.18 3.63-.85 6.63-1.65 7.29-.86.71-5.12 1.01-11.7.83l-10.36-.29-.26-5c-.53-10.14.4-9.5-13.74-9.5s-13.21-.64-13.74 9.5l-.26 5h-23l-.5-7-.5-7-12.75-.28-12.75-.28v6.41c0 4.27-.46 6.8-1.39 7.57-.92.76-4.98 1.06-11.75.87l-10.36-.29-.26-5c-.53-10.14.4-9.5-13.74-9.5s-13.21-.64-13.74 9.5l-.26 5-10.35.29c-6.78.19-10.84-.11-11.75-.87-.93-.77-1.4-3.3-1.4-7.57v-6.41l-12.75.28-12.75.28-.5 7-.5 7h-23l-.5-7-.5-7-12.75-.28-12.75-.28v6.41c0 4.27-.46 6.8-1.39 7.57-.92.76-4.98 1.06-11.75.87l-10.36-.29-.26-5c-.53-10.25.46-9.59-14.01-9.28l-12.73.28-.5 7-.5 7h-23l-.5-7-.5-7h-25l-.5 7-.5 7h-23l-.26-5c-.53-10.14.4-9.5-13.69-9.5h-12.42l-.67 4.44c-.37 2.44-.45 5.03-.2 5.75.26.72.07 2.1-.43 3.06-.77 1.5-2.4 1.75-11.24 1.75-7.2 0-10.67-.39-11.41-1.28-.58-.71-1.2-3.97-1.37-7.25l-.31-5.97h-25l-.29 7.28-.3 7.29-12.2-.29-12.21-.28-.29-7.29-.3-7.29-8.2.29-8.21.29v15l8 .5 8 .5v22l-6 .26c-11.34.49-10.6-.49-10.28 13.52l.28 12.22 8 .5 8 .5v22l-8 .5-8 .5-.28 12.23c-.32 14.01-1.06 13.03 10.28 13.52l6 .25v22l-8 .5-8 .5v25l8 .5 8 .5v22l-6 .26c-11.34.49-10.6-.49-10.28 13.52l.28 12.22 8 .5 8 .5v22l-8 .5-8 .5-.28 12.23c-.32 14.01-1.06 13.03 10.28 13.52l6 .25v22l-8 .5-8 .5v25l8 .5 8 .5v22l-6 .26c-11.34.49-10.6-.49-10.28 13.52l.28 12.22 8 .5 8 .5v22l-8 .5-8 .5v25l8 .5 8 .5v22l-6 .26c-11.34.49-10.6-.49-10.28 13.52l.28 12.22 8 .5 8 .5v22l-6 .26c-11.34.49-10.6-.49-10.28 13.52l.28 12.22 8 .5 8 .5v22l-8 .5-8 .5v25l8 .5 8 .5v22l-6 .26c-10.69.46-10.5.31-10.5 8.1 0 3.74.3 7.11.67 7.48.37.36 4.18.66 8.48.66 7.29 0 7.85-.15 8.32-2.25zm25.53-22.14c0-9.26-.24-9.61-6.67-9.61-2.96 0-3.67-.45-4.62-2.95-1.04-2.78-1.49-2.98-7.16-3.25l-6.05-.3v-23l6.25-.29 6.25-.3V812.6l-6.25-.3-6.25-.3-.28-11.25-.28-11.25 5.28-.01c2.91-.01 5.86-.38 6.57-.83.95-.61 1.21-3.87 1-12.74l-.29-11.92-6.28-.29-6.28-.3.28-11.7.28-11.71 6.25-.29 6.25-.3V714.5l-5.25-.01c-2.88-.01-5.83-.38-6.53-.83-.95-.6-1.21-3.67-1-11.74l.28-10.92 6.25-.29 6.25-.3V665.6l-6.25-.3-6.25-.3-.28-11.25-.28-11.25h4.95c8.34 0 8.11.39 8.11-13.55V616.6l-6.25-.3-6.25-.3v-23l6.25-.29 6.25-.3V567.5l-5.25-.01c-2.88-.01-5.83-.38-6.53-.83-.95-.6-1.21-3.67-1-11.74l.28-10.92 6.25-.29 6.25-.3V518.6l-6.25-.3-6.25-.3-.28-10.91c-.21-8.07.05-11.14 1-11.74.7-.45 3.65-.82 6.53-.83l5.25-.02v-24.9l-6.25-.3-6.25-.3v-23l6.25-.29 6.25-.3V420.5l-5.25-.01c-2.88-.01-5.83-.38-6.53-.83-.95-.6-1.21-3.67-1-11.74l.28-10.92 6.25-.29 6.25-.3V371.6l-6.25-.3-6.25-.3-.28-10.91c-.32-12.26-.11-12.69 6.28-12.51 6.27.17 6.5.08 6.5-2.64 0-4.53 1.71-6.43 5.79-6.45 2.04-.01 4.25-.36 4.91-.78.67-.42 1.33-3.62 1.5-7.23l.3-6.48 11.75-.28 11.75-.28v6.33c0 3.59.52 6.85 1.2 7.53 1.65 1.65 22.95 1.65 24.6 0 .68-.68 1.2-3.94 1.2-7.53v-6.33l11.75.28 11.75.28.5 7 .5 7 11.36.29c7.31.18 11.84-.12 12.7-.84.8-.65 1.47-3.66 1.65-7.28l.29-6.17h23l.3 6.75c.35 8.1.08 7.97 15.2 7.55l10.5-.3.5-7 .5-7 11.75-.28 11.75-.28v6.33c0 3.59.52 6.85 1.2 7.53 1.65 1.65 22.95 1.65 24.6 0 .68-.68 1.2-3.94 1.2-7.53v-6.33l11.75.28 11.75.28.5 7 .5 7 10.5.3c15.13.42 14.85.55 15.21-7.55l.29-6.75 11.75-.28 11.75-.28v6.33c0 3.59.52 6.85 1.2 7.53 1.62 1.62 23.4 1.67 24.39.06.39-.62.78-2.54.87-4.25s.25-4.57.36-6.36l.18-3.25h23v5.57c0 9.25.26 9.43 13.34 9.43 7.43 0 11.67-.4 12.46-1.2.68-.68 1.2-3.94 1.2-7.53v-6.33l11.75.28 11.75.28.3 6.75c.35 8.1.08 7.97 15.2 7.55l10.5-.3.5-7 .5-7 11.7-.28 11.7-.28.55 3.28c.3 1.81.66 5.08.8 7.28l.25 4 11.36.29c7.52.19 11.83-.11 12.75-.87.93-.77 1.39-3.31 1.39-7.57v-6.41l11.75.28 11.75.28.31 5.97c.17 3.28.79 6.54 1.37 7.25 1.19 1.43 21.39 1.85 23.52.49.67-.42 1.33-3.62 1.5-7.23l.3-6.48 11.75-.28 11.75-.28v6.33c0 3.59.52 6.85 1.2 7.53.79.8 5.04 1.2 12.47 1.2 13.08 0 13.33-.18 13.33-9.46v-5.6l11.75.28 11.75.28.31 6.48c.17 3.61.83 6.81 1.5 7.23 1.56.99 21.83.99 23.39 0 .67-.42 1.33-3.62 1.5-7.23l.3-6.48 11.75-.28 11.75-.28v6.33c0 3.59.52 6.85 1.2 7.53 1.65 1.65 22.95 1.65 24.6 0 .68-.68 1.2-3.94 1.2-7.53v-6.33l11.753.28 11.75.28.5 7 .5 7 10.5.3c15.122.42 14.849.55 15.205-7.55l.295-6.75 11.75-.28 11.75-.28v6.41c0 4.26.468 6.8 1.393 7.57.922.76 5.233 1.06 12.75.87l11.357-.29.262-5c.527-10.08-.26-9.5 12.758-9.5h11.48v6.3c0 3.57.522 6.82 1.2 7.5 1.652 1.65 22.95 1.65 24.6 0 .682-.68 1.2-3.94 1.2-7.53v-6.33l11.75.28 11.75.28.305 6.48c.169 3.61.832 6.81 1.5 7.23 1.558.99 21.834.99 23.393 0 .668-.42 1.33-3.62 1.5-7.23l.3-6.48 11.75-.28 11.75-.28v6.41c0 4.26.47 6.8 1.4 7.57.92.76 5.23 1.06 12.75.87l11.35-.29.26-5c.53-10.08-.25-9.5 12.74-9.5 13 0 12.21-.58 12.74 9.5l.26 5 10.5.3c15.13.42 14.85.55 15.21-7.55l.29-6.75h23l.3 6.17c.17 3.62.85 6.63 1.64 7.28.87.72 5.4 1.02 12.71.84l11.35-.29.26-5c.54-10.2-.3-9.6 13.02-9.28l11.72.28.31 6.48c.17 3.61.83 6.81 1.5 7.23 2.13 1.36 22.33.94 23.51-.49.59-.71 1.21-3.97 1.38-7.25l.3-5.97h23l.31 5.97c.17 3.28.79 6.54 1.37 7.25.76.91 4.39 1.28 12.41 1.28 13.17 0 13.41-.17 13.41-9.46v-5.6l11.75.28 11.75.28v22l-8 .5-8 .5v25l8 .5 8 .5v22l-8 .5-8 .5v25l8 .5 8 .5v22l-8 .5-8 .5v25l8 .5 8 .5v22l-6 .26c-11.34.49-10.6-.49-10.28 13.52l.28 12.22 8 .5 8 .5v22l-8 .5-8 .5-.28 12.23c-.32 14.01-1.06 13.03 10.28 13.52l6 .25v22l-8 .5-8 .5v25l8 .5 8 .5v22l-6 .26c-11.34.49-10.6-.49-10.28 13.52l.28 12.22 8 .5 8 .5v22l-8 .5-8 .5v25l8 .5 8 .5v22l-8 .5-8 .5v25l8 .5 8 .5v22l-8 .5-8 .5v25l8 .5 8 .5v22l-8 .5-8 .5v25l8 .5 8 .5v22l-11.75.29-11.75.28v-7.1c0-10.95-.02-10.97-13.33-10.97-7.43 0-11.68.41-12.47 1.2-.73.73-1.2 4.27-1.2 9v7.8h-24v-7.8c0-4.73-.47-8.27-1.2-9-1.34-1.34-21.47-1.69-23.5-.4-.73.46-1.32 3.91-1.5 8.73l-.3 7.97h-24l-.5-8.5-.5-8.5-11.35-.28c-7.52-.19-11.83.11-12.75.87-.98.81-1.4 3.52-1.4 9.04v7.87h-24v-8.48c0-10.12.62-9.74-15-9.31l-10.5.29-.5 8.5-.5 8.5h-24l-.5-8.5-.5-8.5-11.35-.28c-7.52-.19-11.83.11-12.75.87-.98.81-1.4 3.53-1.4 9.07v7.91l-11.75-.28-11.75-.29-.497-8.5-.5-8.5h-25l-.5 8.5-.5 8.5-11.75.29-11.75.28v-7.83c0-4.76-.471-8.31-1.2-9.04-.79-.78-5-1.2-12.3-1.2s-11.511.42-12.3 1.2c-.73.73-1.2 4.28-1.2 9.04v7.83l-11.75-.28-11.75-.29-.5-8.5-.5-8.5-10.5-.29c-15.618-.43-15-.81-15 9.31v8.48h-24v-8.48c0-10.12.619-9.74-15-9.31l-10.5.29-.5 8.5-.5 8.5-11.75.29-11.753.28v-7.83c0-4.76-.47-8.31-1.2-9.04-.79-.78-5-1.2-12.3-1.2s-11.51.42-12.3 1.2c-.73.73-1.2 4.28-1.2 9.04v7.83l-11.75-.28-11.75-.29-.5-8.5-.5-8.5-10.5-.29c-15.62-.43-15-.81-15 9.31v8.48h-24v-7.8c0-4.73-.47-8.27-1.2-9-.79-.78-5-1.2-12.3-1.2s-11.51.42-12.3 1.2c-.73.73-1.2 4.27-1.2 9v7.8h-24v-8.39c0-6.73-.31-8.51-1.58-9-2.28-.88-21.69-.72-23.12.19-.73.46-1.32 3.91-1.5 8.73l-.3 7.97-11.75.29-11.75.28v-7.91c0-5.54-.41-8.26-1.39-9.07-.92-.76-5.23-1.06-12.75-.87l-11.36.28-.25 6.5c-.47 11.88.46 11.11-13.02 10.79l-11.73-.29-.5-8.5-.5-8.5h-25l-.5 8.5-.5 8.5-11.75.29-11.75.28v-7.83c0-4.76-.47-8.31-1.2-9.04-.79-.79-5.03-1.2-12.46-1.2-13.31 0-13.34.02-13.34 10.94v7.06h-11.5c-6.32 0-11.55-.33-11.62-.75-.06-.41-.2-3.91-.3-7.78-.11-3.87-.53-7.58-.94-8.25-1.04-1.68-22.76-1.69-24.44-.02-.73.73-1.2 4.27-1.2 9v7.8h-24v-8.48c0-10.12.62-9.74-15-9.31l-10.5.29-.5 8.5-.5 8.5-11.75.29-11.75.28v-7.83c0-4.76-.47-8.31-1.2-9.04-.79-.78-5-1.2-12.3-1.2s-11.51.42-12.3 1.2c-.73.73-1.2 4.28-1.2 9.04v7.83l-11.75-.28-11.75-.29-.5-8.5-.5-8.5-10.5-.29c-15.45-.43-14.86-.78-15.21 9.05l-.29 8.24-11.75.29-11.75.28v-7.91c0-5.54-.41-8.26-1.39-9.07-.92-.76-5.23-1.06-12.75-.87l-11.36.28-.5 8.5-.5 8.5-11.75.29-11.75.28v-7.83c0-4.76-.47-8.31-1.2-9.04-.79-.78-5-1.2-12.3-1.2s-11.51.42-12.3 1.2c-.73.73-1.2 4.27-1.2 9v7.8h-24v-8.39zM355.38 603V342h-1120l-.25 260c-.14 143-.05 260.57.22 261.26.38.99 112.95 1.2 560.25 1l559.78-.26V603z" fill="#07080a"/></g></g></svg>