<svg xmlns="http://www.w3.org/2000/svg" id="svg1441" xml:space="preserve" viewBox="63.999 81.283 439.001 478.279" version="1.1" y="0" x="0"><g id="layer1"><path id="rect11246" d="M69.535 218.58l206.46-136.1c4.312-2.843 15.927-.43 25.941 5.389l184.24 107.06c10.015 5.82 14.637 12.842 10.324 15.686l-206.46 136.1c-4.312 2.844-15.927.432-25.941-5.389l-184.24-107.06c-10.016-5.82-14.638-12.84-10.325-15.69z"/><path id="rect27716" d="M293.24 338.58l199.1-130.73c6.031-3.961 10.805 3.262 10.661 16.131l-1.933 173.3c-.144 12.869-5.149 26.512-11.181 30.471l-199.1 130.73c-6.031 3.959-10.805-3.262-10.661-16.131l1.933-173.3c.14-12.87 5.15-26.51 11.18-30.47z"/><path id="rect5005" fill="#F41809" d="M299.35 488.33l45.47-30.844c4.632-3.141 8.386-2.439 8.386 1.57v42.777c0 4.008-3.754 9.805-8.386 12.945l-45.47 30.844c-4.632 3.141-8.386 2.439-8.386-1.57v-42.777c.01-4 3.76-9.8 8.39-12.94z"/><path id="rect5765" fill="#F41809" d="M301.81 417.14l43.656-29.613c5.133-3.48 9.293-2.367 9.293 2.49v39.705c0 4.857-4.16 11.617-9.293 15.098l-43.656 29.613c-5.132 3.48-9.293 2.367-9.293-2.49v-39.705c0-4.86 4.16-11.62 9.29-15.1z"/><path id="rect5767" fill="#F41809" d="M297.96 349.26l51.362-34.84c3.004-2.037 5.44 2.211 5.44 9.49v30.936c0 7.277-2.437 14.83-5.44 16.869l-51.362 34.838c-3.004 2.039-5.439-2.209-5.439-9.488v-30.936c0-7.28 2.44-14.83 5.44-16.87z"/><path id="rect5769" fill="#F41809" d="M372.1 298.56l45.889-30.873c4.656-3.133 8.432-.568 8.432 5.727v34.496c0 6.295-3.775 13.938-8.432 17.072L372.1 355.855c-4.657 3.133-8.432.568-8.432-5.727v-34.496c0-6.29 3.77-13.93 8.43-17.07z"/><path id="rect5771" fill="#F41809" d="M370.29 369.84l49.514-33.312c3.655-2.461 6.619 1.641 6.619 9.16v30.066c0 7.518-2.964 15.607-6.619 18.066l-49.514 33.312c-3.656 2.459-6.619-1.641-6.619-9.16v-30.066c0-7.52 2.96-15.61 6.62-18.07z"/><path id="rect5773" fill="#F41809" d="M371.45 438.32l44.075-29.654c5.157-3.471 9.339.309 9.339 8.438v27.852c0 8.131-4.182 17.535-9.339 21.004l-44.075 29.654c-5.157 3.471-9.339-.309-9.339-8.439v-27.85c.01-8.12 4.2-17.53 9.35-21z"/><path id="rect5775" fill="#F41809" d="M441.66 388.58l45.888-30.873c4.657-3.133 8.433-.555 8.433 5.76v34.43c0 6.312-3.775 13.971-8.433 17.104l-45.888 30.875c-4.657 3.133-8.433.555-8.433-5.76v-34.43c0-6.32 3.78-13.98 8.43-17.11z"/><path id="rect5777" fill="#F41809" d="M441.77 323.1l47.7-32.094c4.157-2.797 7.526.158 7.526 6.598v33.973c0 6.439-3.369 13.928-7.526 16.723l-47.7 32.094c-4.156 2.797-7.526-.158-7.526-6.598v-33.973c.01-6.43 3.38-13.92 7.53-16.72z"/><path id="rect5779" fill="#F41809" d="M441.77 252.36l47.7-32.094c4.157-2.797 7.526-1.725 7.526 2.395v42.377c0 4.119-3.369 9.727-7.526 12.521l-47.7 32.094c-4.156 2.797-7.526 1.725-7.526-2.395v-42.377c.01-4.12 3.38-9.73 7.53-12.52z"/><path id="rect12043" d="M73.126 217.78l213.25 127.47c3.791 2.266 6.755 13.4 6.621 24.869l-2.016 171.5c-.135 11.469-3.317 18.928-7.108 16.662l-213.25-127.47c-3.791-2.266-6.755-13.4-6.62-24.869l2.015-171.5c.137-11.47 3.32-18.93 7.111-16.66z"/><path id="rect8055" fill="#00d" d="M225.29 458.78l46.143 29.148c4.445 2.809 8.05 10.871 8.05 18.008v31.447c0 7.139-3.604 10.646-8.05 7.838l-46.143-29.148c-4.445-2.809-8.049-10.871-8.049-18.008v-31.447c0-7.14 3.61-10.65 8.05-7.84z"/><path id="rect8815" fill="#00d" d="M226.34 387.83l46.143 29.148c4.445 2.809 8.05 8.115 8.05 11.854v43.758c0 3.738-3.604 4.49-8.05 1.684l-46.143-29.15c-4.445-2.809-8.049-8.113-8.049-11.852v-43.76c0-3.74 3.6-4.49 8.05-1.68z"/><path id="rect8817" fill="#00d" d="M226.34 320.05l46.143 29.148c4.445 2.809 8.05 9.023 8.05 13.879v39.707c0 4.855-3.604 6.516-8.05 3.709l-46.143-29.15c-4.445-2.809-8.049-9.021-8.049-13.879v-39.705c0-4.86 3.6-6.52 8.05-3.71z"/><path id="rect8819" fill="#00d" d="M155.22 414.43l46.143 29.148c4.446 2.809 8.05 10.084 8.05 16.25v34.965c0 6.166-3.604 8.889-8.05 6.08l-46.143-29.15c-4.445-2.807-8.049-10.082-8.049-16.248V420.51c0-6.18 3.6-8.9 8.05-6.09z"/><path id="rect8821" fill="#00d" d="M155.22 345.07l46.143 29.15c4.446 2.807 8.05 10.441 8.05 17.053v33.357c0 6.609-3.604 9.691-8.05 6.883l-46.143-29.148c-4.445-2.809-8.049-10.443-8.049-17.055v-33.357c0-6.6 3.6-9.68 8.05-6.87z"/><path id="rect8823" fill="#00d" d="M155.73 278.24l46.143 29.148c4.445 2.809 8.049 9.383 8.049 14.682v38.1c0 5.301-3.604 7.32-8.049 4.512l-46.143-29.148c-4.446-2.809-8.05-9.383-8.05-14.684v-38.098c0-5.29 3.6-7.31 8.05-4.51z"/><path id="rect8825" fill="#00d" d="M83.565 369.46l46.143 29.15c4.446 2.807 8.049 8.748 8.049 13.266v40.93c0 4.52-3.604 5.906-8.049 3.098l-46.143-29.148c-4.446-2.809-8.049-8.75-8.049-13.268v-40.93c-.002-4.52 3.601-5.91 8.047-3.1z"/><path id="rect8827" fill="#00d" d="M84.611 302.95l46.143 29.148c4.446 2.809 8.049 8.596 8.049 12.924v41.615c0 4.33-3.604 5.562-8.049 2.754l-46.143-29.148c-4.446-2.809-8.049-8.594-8.049-12.924v-41.615c.004-4.33 3.607-5.56 8.053-2.75z"/><path id="rect8829" fill="#00d" d="M84.611 234.53l46.143 29.15c4.446 2.809 8.049 8.191 8.049 12.025v43.412c0 3.834-3.604 4.664-8.049 1.855l-46.143-29.148c-4.446-2.809-8.049-8.193-8.049-12.025v-43.414c.004-3.81 3.607-4.64 8.053-1.84z"/><path id="rect10429" fill="#FFE200" d="M146.35 182.23l51.762 30.957c2.556 1.529.342 5.602-4.946 9.098l-39.69 26.238c-5.288 3.496-11.646 5.09-14.203 3.561l-51.762-30.957c-2.556-1.529-.342-5.602 4.946-9.098l39.69-26.238c5.3-3.49 11.66-5.09 14.21-3.56z"/><path id="rect11189" fill="#FFE200" d="M216.75 226.06l51.762 30.957c2.557 1.529.342 5.602-4.945 9.098l-39.69 26.238c-5.288 3.496-11.646 5.09-14.203 3.561l-51.762-30.957c-2.556-1.529-.342-5.602 4.946-9.098l39.69-26.238c5.29-3.49 11.65-5.08 14.2-3.56z"/><path id="rect11191" fill="#FFE200" d="M289.04 269.28l51.762 30.957c2.557 1.529.342 5.604-4.946 9.098l-39.689 26.238c-5.288 3.496-11.646 5.09-14.203 3.562l-51.762-30.959c-2.556-1.529-.342-5.602 4.946-9.098l39.69-26.238c5.29-3.5 11.64-5.09 14.2-3.56z"/><path id="rect11193" fill="#FFE200" d="M217.66 135.72l51.763 30.958c2.556 1.528.342 5.602-4.946 9.097l-39.69 26.238c-5.288 3.496-11.646 5.09-14.203 3.561l-51.762-30.957c-2.556-1.529-.342-5.602 4.946-9.098l39.69-26.238c5.29-3.5 11.65-5.09 14.2-3.56z"/><path id="rect11195" fill="#FFE200" d="M288.97 178.33l51.762 30.957c2.556 1.529.342 5.602-4.946 9.098l-39.689 26.238c-5.288 3.496-11.646 5.09-14.203 3.562l-51.762-30.959c-2.556-1.529-.342-5.602 4.946-9.098l39.69-26.238c5.28-3.5 11.64-5.09 14.2-3.56z"/><path id="rect11197" fill="#FFE200" d="M362.78 222.48l51.762 30.957c2.557 1.529.342 5.602-4.946 9.098l-39.689 26.238c-5.288 3.496-11.646 5.09-14.203 3.562l-51.762-30.959c-2.556-1.529-.342-5.602 4.946-9.098l39.689-26.238c5.29-3.49 11.65-5.09 14.2-3.56z"/><path id="rect11199" fill="#FFE200" d="M286.9 89.946l51.762 30.958c2.557 1.529.342 5.602-4.945 9.098l-39.69 26.238c-5.287 3.496-11.646 5.09-14.202 3.562l-51.762-30.958c-2.556-1.529-.342-5.602 4.946-9.098l39.689-26.238c5.28-3.49 11.63-5.085 14.19-3.556z"/><path id="rect11201" fill="#FFE200" d="M360.24 132.5l51.762 30.958c2.557 1.528.342 5.602-4.946 9.098l-39.689 26.238c-5.288 3.494-11.646 5.09-14.203 3.561l-51.762-30.958c-2.556-1.529-.342-5.603 4.946-9.098l39.689-26.239c5.28-3.5 11.64-5.09 14.2-3.56z"/><path id="rect11203" fill="#FFE200" d="M432.07 176.68l51.762 30.957c2.556 1.529.342 5.604-4.946 9.098l-39.689 26.238c-5.288 3.496-11.646 5.09-14.203 3.562l-51.762-30.959c-2.557-1.529-.342-5.602 4.945-9.098l39.69-26.238c5.28-3.5 11.64-5.09 14.2-3.56z"/><path id="rect27914" opacity=".418" fill="#fff" d="M163.56 177.13l45.584 26.756c3.303 1.939 3.867 4.029 1.26 4.67s-7.398-.414-10.701-2.352l-45.584-26.758c-3.303-1.938-3.867-4.029-1.26-4.668 2.61-.64 7.4.41 10.7 2.35z"/><path id="rect29432" opacity=".418" fill="#fff" d="M95.51 224.9l45.584 26.758c3.303 1.938 3.867 4.029 1.26 4.668-2.607.641-7.398-.412-10.701-2.352l-45.582-26.76c-3.303-1.939-3.867-4.029-1.26-4.67 2.608-.64 7.399.41 10.702 2.35z"/><path id="rect29434" opacity=".418" fill="#fff" d="M89.51 298.9l45.584 26.758c3.303 1.938 3.867 4.029 1.26 4.668-2.607.641-7.398-.412-10.701-2.352l-45.582-26.76c-3.303-1.939-3.867-4.029-1.26-4.67 2.608-.64 7.399.41 10.702 2.35z"/><path id="rect29436" opacity=".418" fill="#fff" d="M165.35 270.75l45.584 26.756c3.303 1.939 3.867 4.029 1.26 4.67s-7.398-.412-10.701-2.352l-45.584-26.756c-3.303-1.939-3.867-4.029-1.26-4.67 2.6-.64 7.39.41 10.7 2.35z"/><path id="rect29438" opacity=".418" fill="#fff" d="M237.35 313.9l45.584 26.758c3.303 1.938 3.867 4.029 1.26 4.668-2.607.641-7.398-.412-10.701-2.352l-45.584-26.756c-3.303-1.939-3.867-4.029-1.26-4.67 2.6-.64 7.39.41 10.7 2.35z"/><path id="rect29440" opacity=".418" fill="#fff" d="M164.35 346.75l45.584 26.756c3.303 1.939 3.867 4.029 1.26 4.67s-7.398-.412-10.701-2.352l-45.584-26.756c-3.303-1.939-3.867-4.029-1.26-4.67 2.6-.64 7.39.41 10.7 2.35z"/><path id="rect29442" opacity=".418" fill="#fff" d="M231.35 385.75l45.584 26.756c3.303 1.939 3.867 4.029 1.26 4.67s-7.398-.412-10.701-2.352l-45.584-26.756c-3.303-1.939-3.867-4.029-1.26-4.67 2.6-.64 7.39.41 10.7 2.35z"/><path id="rect29444" opacity=".418" fill="#fff" d="M89.51 368.75l45.584 26.756c3.303 1.939 3.867 4.029 1.26 4.67s-7.398-.412-10.701-2.352l-45.584-26.756c-3.303-1.939-3.867-4.029-1.26-4.67 2.61-.64 7.401.41 10.704 2.35z"/><path id="rect29446" opacity=".418" fill="#fff" d="M162.35 414.9l45.584 26.758c3.303 1.938 3.867 4.029 1.26 4.668-2.607.641-7.398-.412-10.701-2.352l-45.584-26.756c-3.303-1.939-3.867-4.029-1.26-4.67 2.6-.64 7.39.41 10.7 2.35z"/><path id="rect29448" opacity=".418" fill="#fff" d="M233.35 457.75l45.584 26.756c3.303 1.939 3.867 4.029 1.26 4.67s-7.398-.412-10.701-2.352l-45.584-26.756c-3.303-1.939-3.867-4.029-1.26-4.67 2.6-.64 7.39.41 10.7 2.35z"/><path id="rect29450" opacity=".418" fill="#fff" d="M235.35 221.9l45.584 26.758c3.303 1.938 3.867 4.029 1.26 4.668-2.607.641-7.398-.412-10.701-2.352l-45.584-26.756c-3.303-1.939-3.867-4.029-1.26-4.67 2.6-.64 7.39.41 10.7 2.35z"/><path id="rect29452" opacity=".418" fill="#fff" d="M234.35 132.9l45.584 26.757c3.303 1.938 3.867 4.029 1.26 4.669-2.606.641-7.398-.413-10.701-2.352l-45.584-26.756c-3.303-1.939-3.867-4.029-1.26-4.669 2.6-.64 7.39.41 10.7 2.35z"/><path id="rect29454" opacity=".418" fill="#fff" d="M309.51 175.75l45.585 26.756c3.303 1.939 3.866 4.029 1.26 4.67-2.607.641-7.398-.412-10.701-2.352l-45.585-26.756c-3.303-1.939-3.866-4.029-1.26-4.67 2.6-.64 7.39.41 10.69 2.35z"/><path id="rect29456" opacity=".418" fill="#fff" d="M381.51 218.9l45.585 26.758c3.303 1.938 3.866 4.029 1.26 4.668-2.607.641-7.398-.412-10.701-2.352l-45.585-26.756c-3.303-1.939-3.866-4.029-1.26-4.67 2.6-.64 7.39.41 10.69 2.35z"/><path id="rect29458" opacity=".418" fill="#fff" d="M311.51 265.75l45.585 26.756c3.303 1.939 3.866 4.029 1.26 4.67-2.607.641-7.398-.412-10.701-2.352l-45.585-26.756c-3.303-1.939-3.866-4.029-1.26-4.67 2.6-.64 7.39.41 10.69 2.35z"/><path id="path29466" d="M435.33 328.97c-1.292 3.645-4.027 6-6.109 5.26-2.082-.738-2.723-4.291-1.43-7.934 1.292-3.645 4.028-5.998 6.11-5.26s2.72 4.28 1.43 7.93z" opacity=".3" fill="#fff"/><path id="path29470" d="M365.33 377.43c-1.292 3.645-4.027 6-6.109 5.26-2.082-.738-2.723-4.289-1.43-7.934 1.292-3.643 4.028-5.998 6.11-5.26s2.72 4.29 1.43 7.93z" opacity=".3" fill="#fff"/><path id="path29472" d="M364.33 448.97c-1.292 3.645-4.027 6-6.109 5.26-2.082-.738-2.723-4.291-1.43-7.934 1.292-3.645 4.028-5.998 6.11-5.26s2.72 4.28 1.43 7.93z" opacity=".3" fill="#fff"/><path id="path29474" d="M437.21 397.97c-1.293 3.645-4.028 6-6.11 5.26-2.082-.738-2.722-4.291-1.43-7.934 1.293-3.645 4.028-5.998 6.11-5.26s2.72 4.28 1.43 7.93z" opacity=".3" fill="#fff"/><path id="path29476" d="M296.33 423.97c-1.292 3.645-4.027 6-6.109 5.26-2.082-.738-2.723-4.291-1.43-7.934 1.292-3.645 4.028-5.998 6.11-5.26s2.72 4.28 1.43 7.93z" opacity=".3" fill="#fff"/><path id="path29478" d="M293.21 495.97c-1.293 3.645-4.028 6-6.11 5.26-2.082-.738-2.722-4.291-1.43-7.934 1.293-3.645 4.028-5.998 6.11-5.26s2.72 4.28 1.43 7.93z" opacity=".3" fill="#fff"/><path id="rect29482" opacity=".249" fill="#fff" d="M294.99 333.94l44.547-28.451c3.228-2.061 5.346-1.613 4.731 1-.614 2.613-3.729 6.402-6.956 8.465l-44.547 28.451c-3.228 2.061-5.347 1.613-4.732-1 .62-2.62 3.73-6.41 6.96-8.47z"/><path id="rect30242" opacity=".249" fill="#fff" d="M368.61 289.6l44.547-28.449c3.228-2.062 5.347-1.615 4.731.998-.614 2.613-3.729 6.402-6.956 8.465l-44.547 28.451c-3.228 2.061-5.347 1.613-4.731-1 .62-2.62 3.74-6.41 6.96-8.47z"/><path id="rect30244" opacity=".249" fill="#fff" d="M439.06 242.11l44.547-28.451c3.228-2.061 5.346-1.613 4.731 1-.614 2.613-3.729 6.402-6.957 8.465l-44.546 28.451c-3.229 2.061-5.347 1.613-4.732-1 .62-2.61 3.74-6.39 6.96-8.46z"/><path id="rect30246" opacity=".249" fill="#fff" d="M224.62 200.11l44.546-28.451c3.228-2.061 5.347-1.613 4.731 1-.614 2.613-3.729 6.402-6.956 8.465l-44.547 28.451c-3.228 2.061-5.346 1.613-4.732-1 .61-2.61 3.73-6.39 6.96-8.46z"/><path id="rect30248" opacity=".249" fill="#fff" d="M153.62 247.11l44.546-28.451c3.228-2.061 5.346-1.613 4.732 1s-3.729 6.402-6.957 8.465l-44.547 28.451c-3.228 2.061-5.346 1.613-4.732-1 .61-2.61 3.73-6.39 6.96-8.46z"/><path id="rect30250" opacity=".249" fill="#fff" d="M291.61 156.11l44.547-28.451c3.228-2.062 5.347-1.614 4.731 1-.614 2.613-3.729 6.403-6.956 8.464l-44.547 28.451c-3.228 2.062-5.347 1.614-4.731-.999.62-2.61 3.74-6.39 6.96-8.46z"/><path id="rect30252" opacity=".249" fill="#fff" d="M227.06 289.6l44.547-28.449c3.228-2.062 5.346-1.615 4.731.998-.614 2.613-3.729 6.402-6.957 8.465l-44.546 28.451c-3.228 2.061-5.346 1.613-4.731-1 .62-2.62 3.74-6.41 6.96-8.47z"/><path id="rect30254" opacity=".249" fill="#fff" d="M294.06 245.6l44.547-28.449c3.228-2.062 5.346-1.615 4.731.998-.614 2.613-3.729 6.402-6.957 8.465l-44.546 28.451c-3.228 2.061-5.347 1.613-4.732-1 .62-2.62 3.74-6.41 6.96-8.47z"/><path id="rect30256" opacity=".249" fill="#fff" d="M366.61 196.6l44.547-28.45c3.228-2.062 5.347-1.614 4.731.999-.614 2.613-3.729 6.402-6.956 8.464l-44.547 28.451c-3.228 2.061-5.347 1.613-4.731-1 .62-2.61 3.74-6.4 6.96-8.46z"/></g></svg>